<?xml version="1.0" encoding="UTF-8" standalone="no"?>
<svg
   xmlns:dc="http://purl.org/dc/elements/1.1/"
   xmlns:cc="http://creativecommons.org/ns#"
   xmlns:rdf="http://www.w3.org/1999/02/22-rdf-syntax-ns#"
   xmlns:svg="http://www.w3.org/2000/svg"
   xmlns="http://www.w3.org/2000/svg"
   xmlns:sodipodi="http://sodipodi.sourceforge.net/DTD/sodipodi-0.dtd"
   xmlns:inkscape="http://www.inkscape.org/namespaces/inkscape"
   version="1.0"
   width="127.99996"
   height="202.91173"
   viewBox="0 0 468 638"
   preserveAspectRatio="xMidYMid meet"
   id="svg2304"
   sodipodi:version="0.32"
   inkscape:version="0.46"
   sodipodi:docname="faustlogo.svg"
   sodipodi:docbase="CLAMSVN/NetworkEditor/src/images"
   inkscape:output_extension="org.inkscape.output.svg.inkscape">
  <defs
     id="defs2395">
    <inkscape:perspective
       sodipodi:type="inkscape:persp3d"
       inkscape:vp_x="0 : 398.75 : 1"
       inkscape:vp_y="0 : 1000 : 0"
       inkscape:vp_z="585 : 398.75 : 1"
       inkscape:persp3d-origin="292.5 : 265.83333 : 1"
       id="perspective2560" />
  </defs>
  <sodipodi:namedview
     inkscape:window-height="702"
     inkscape:window-width="866"
     inkscape:pageshadow="2"
     inkscape:pageopacity="0.0"
     guidetolerance="10.0"
     gridtolerance="10.0"
     objecttolerance="10.0"
     borderopacity="1.0"
     bordercolor="#666666"
     pagecolor="#ffffff"
     id="base"
     inkscape:zoom="1.3406213"
     inkscape:cx="199.21899"
     inkscape:cy="37.12955"
     inkscape:window-x="134"
     inkscape:window-y="113"
     inkscape:current-layer="svg2304"
     showgrid="false" />
  <metadata
     id="metadata2306">
Created by potrace 1.8, written by Peter Selinger 2001-2007
<rdf:RDF>
  <cc:Work
     rdf:about="">
    <dc:format>image/svg+xml</dc:format>
    <dc:type
       rdf:resource="http://purl.org/dc/dcmitype/StillImage" />
  </cc:Work>
</rdf:RDF>
</metadata>
  <g
     id="g2675"
     transform="matrix(1.2439011,0,0,1.2439011,-56.963912,-77.704408)">
    <path
       sodipodi:nodetypes="cccsscssccccccccsscsccccccsccccccccccccscssscccsscccccccccscccc"
       d="M 51.529867,26.441359 L 45.794567,31.947247 L 45.794567,301.73577 C 45.794567,568.31251 45.794567,571.29487 50.382807,575.88311 C 54.971047,580.47135 57.953407,580.47135 234.60065,580.47135 C 405.97141,580.47135 414.68907,580.24194 418.13025,576.34193 C 421.80084,572.44193 422.03025,549.95955 422.03025,301.04753 C 422.03025,32.864895 422.03025,29.882539 417.44201,25.294299 C 412.85377,20.706059 409.87141,20.706059 235.05947,20.706059 L 57.035757,20.706059 L 51.529867,26.441359 z M 269.01245,86.317891 C 327.51251,101.45908 368.34784,155.1415 373.16549,223.04745 L 374.54197,243.23571 L 388.99492,243.23571 C 409.642,243.23571 411.24789,245.98865 410.10083,282.23575 C 409.18318,315.7299 408.49494,316.64755 384.86551,316.64755 C 373.85373,316.64755 369.26549,317.5652 369.26549,319.40049 C 369.26549,321.00638 371.78902,332.01815 375.00079,343.71817 C 382.8008,372.39467 382.57139,374.00055 372.93608,374.00055 C 365.82431,374.00055 364.90666,375.14761 357.79489,388.91233 C 283.30381,500.98515 108.2231,467.1096 98.559327,328.80639 L 98.559327,316.64755 L 85.253437,316.64755 C 64.147527,316.64755 63.229877,315.04167 62.312237,282.92399 C 61.394587,245.98865 62.312237,244.61218 85.482847,243.69453 C 95.118147,243.23571 103.14757,242.31806 103.14757,241.40041 C 103.14757,240.48277 99.935797,229.47099 96.265207,217.08274 C 87.088727,187.02977 87.318137,185.19447 97.182857,186.34153 C 104.75345,187.25918 104.98287,186.80036 108.65346,175.55917 C 112.78287,162.25327 124.94171,141.37678 136.64172,126.92382 C 149.02997,112.01204 172.65941,96.182607 193.76531,89.070835 C 215.78886,81.500239 246.30066,80.353179 269.01245,86.317891 z M 93.741677,513.02422 C 116.91229,517.61246 123.79465,549.73014 105.21228,565.55957 C 95.118147,573.8184 76.535777,573.8184 66.671057,565.33016 C 49.235747,550.64779 54.053397,522.88894 75.618127,514.17128 C 82.729897,511.41834 84.565197,511.18893 93.741677,513.02422 z M 180.00059,517.61246 C 186.42413,521.74188 192.61825,534.13013 192.61825,542.61837 C 192.61825,550.64779 187.34177,560.51251 179.77118,566.47722 C 175.18294,570.14781 170.36529,571.29487 161.18881,571.29487 C 149.94762,571.29487 147.6535,570.37722 140.77114,563.49486 C 133.88878,556.6125 132.97113,554.31838 132.97113,543.07719 C 132.97113,528.85365 138.24761,520.13599 149.94762,514.85952 C 158.20645,511.18893 171.97117,512.33599 180.00059,517.61246 z M 248.59478,514.85952 C 259.83597,519.44776 266.03009,528.85365 266.03009,540.78307 C 266.03009,560.51251 255.01831,571.29487 235.05947,571.29487 C 226.57123,571.29487 223.13005,569.9184 216.4771,563.72427 C 209.36533,557.30074 207.98885,554.31838 207.07121,544.68308 C 205.0065,520.82423 226.1124,505.45363 248.59478,514.85952 z M 322.23603,514.85952 C 337.14781,521.28305 343.57135,540.09484 336.00075,556.15368 C 326.59486,576.11252 293.10071,576.57135 283.00658,557.07133 C 278.18893,547.89485 279.79481,529.54189 285.75952,522.88894 C 294.936,512.33599 308.93013,509.35363 322.23603,514.85952 z M 405.28317,521.74188 C 411.70671,528.85365 412.85377,531.60659 412.85377,541.70072 C 412.85377,562.11839 400.23611,573.13017 379.35962,570.60663 C 357.10665,568.0831 346.32429,543.30661 359.17136,523.57717 C 364.21843,515.77717 375.45961,511.41834 387.61845,512.5654 C 395.64787,513.25363 399.31846,515.08893 405.28317,521.74188 z"
       id="path2677"
       style="fill:#eb0000;fill-opacity:1;stroke:none" />
    <path
       sodipodi:nodetypes="ccssscccsccccccscccscccccccccccccscccccscc"
       d="M 206.24139,106.68181 C 176.87665,114.94064 149.1178,138.79949 134.66484,168.16422 C 130.0766,177.79953 126.1766,186.97601 126.1766,188.12307 C 126.1766,189.49954 128.70013,190.6466 131.9119,190.6466 C 135.12367,190.6466 138.33544,192.02307 139.02367,193.85837 C 139.71191,195.69366 133.97661,207.16426 126.40601,219.55251 L 112.41188,242.2643 L 128.92954,242.95254 C 153.0178,243.87018 153.70604,244.78783 153.70604,278.74081 C 153.70604,314.29967 152.32957,316.8232 132.82955,316.8232 L 119.29424,316.8232 L 119.29424,325.99968 C 129.42301,446.65413 268.90973,462.19019 339.30035,379.22326 L 344.34741,369.58796 L 337.23564,368.21149 C 333.56505,367.29384 330.35328,365.45854 330.35328,364.08207 C 330.35328,362.7056 337.00623,351.46441 345.26506,339.07616 L 360.17684,316.8232 L 343.42976,316.8232 C 319.57092,316.8232 318.88268,315.90555 318.88268,279.65846 C 318.88268,245.24666 320.02974,243.41136 340.218,243.41136 L 353.29448,243.41136 L 353.29448,231.25252 C 353.29448,214.96427 345.49447,184.22306 337.46505,168.16422 C 316.35915,126.41124 279.65323,103.24063 235.37671,103.69945 C 225.28258,103.69945 211.97669,105.30534 206.24139,106.68181 z M 232.62377,213.5878 C 240.19436,216.34074 243.40613,223.68193 253.50026,261.53491 C 257.85909,278.5114 264.51204,297.782 268.18263,304.66436 L 274.83558,316.8232 L 264.74145,316.8232 C 252.81202,316.8232 250.5179,313.61143 243.17672,285.39376 C 235.83554,258.55255 236.75318,259.69961 230.10024,267.49962 C 216.79434,283.55846 209.45316,307.41731 216.1061,314.07026 C 218.17081,316.13496 216.33552,316.8232 207.84727,316.8232 L 196.8355,316.8232 L 198.21197,309.48202 C 199.81785,300.99377 211.74728,279.88787 224.82376,261.76432 C 233.312,249.8349 233.77083,248.45842 231.70612,240.65842 C 229.18259,231.48194 220.00611,222.76428 213.12375,222.76428 C 207.15904,222.76428 207.61786,219.55251 214.0414,215.19368 C 220.00611,210.83486 224.59435,210.37603 232.62377,213.5878 z"
       id="path2679"
       style="fill:#eb0000;fill-opacity:1;stroke:none" />
    <g
       id="g2681">
      <g
         id="g2683">
        <path
           transform="matrix(0.8992511,0,0,-0.9380081,8.7574228,1052.2167)"
           d="M 119.83598,543.48151 A 32.912697,32.068783 0 1 1 54.010582,543.48151 A 32.912697,32.068783 0 1 1 119.83598,543.48151 z"
           sodipodi:ry="32.068783"
           sodipodi:rx="32.912697"
           sodipodi:cy="543.48151"
           sodipodi:cx="86.923279"
           id="path2685"
           style="fill:#008caa;fill-opacity:1;fill-rule:nonzero;stroke:#008caa;stroke-width:1.18599999;stroke-miterlimit:4;stroke-dasharray:none;stroke-dashoffset:0;stroke-opacity:1"
           sodipodi:type="arc" />
        <path
           d="M 82.58832,533.61754 C 82.58832,535.45284 84.194204,537.05872 86.0295,537.05872 C 87.864796,537.05872 89.47068,535.45284 89.47068,533.61754 C 89.47068,531.78224 87.864796,530.17636 86.0295,530.17636 C 84.194204,530.17636 82.58832,531.78224 82.58832,533.61754 z"
           id="path2687"
           style="fill:#000000;stroke:none" />
        <path
           d="M 82.58832,551.9705 C 82.58832,553.8058 84.194204,555.41168 86.0295,555.41168 C 87.864796,555.41168 89.47068,553.8058 89.47068,551.9705 C 89.47068,550.1352 87.864796,548.52932 86.0295,548.52932 C 84.194204,548.52932 82.58832,550.1352 82.58832,551.9705 z"
           id="path2689"
           style="fill:#000000;stroke:none" />
      </g>
      <g
         id="g2691">
        <path
           sodipodi:type="arc"
           style="fill:#008caa;fill-opacity:1;fill-rule:nonzero;stroke:#008caa;stroke-width:1.18599999;stroke-miterlimit:4;stroke-dasharray:none;stroke-dashoffset:0;stroke-opacity:1"
           id="path2693"
           sodipodi:cx="86.923279"
           sodipodi:cy="543.48151"
           sodipodi:rx="32.912697"
           sodipodi:ry="32.068783"
           d="M 119.83598,543.48151 A 32.912697,32.068783 0 1 1 54.010582,543.48151 A 32.912697,32.068783 0 1 1 119.83598,543.48151 z"
           transform="matrix(0.8992511,0,0,-0.9380081,83.865889,1052.2167)" />
        <path
           d="M 152.10016,535.45284 C 141.77662,541.87637 140.62956,543.25284 144.07074,545.31755 C 146.13544,546.69402 151.87074,549.90579 156.6884,552.88815 C 161.27664,555.64109 165.17664,557.24698 165.17664,556.09992 C 165.17664,554.95286 161.04722,551.74109 156.00016,548.75873 C 150.9531,546.00579 146.82368,543.25284 146.82368,542.79402 C 146.82368,542.3352 150.9531,539.58225 156.00016,536.82931 C 161.04722,533.84695 165.17664,530.8646 165.17664,529.71754 C 165.17664,527.194 165.63546,526.96459 152.10016,535.45284 z"
           id="path2695"
           style="fill:#000000;stroke:none" />
        <path
           d="M 169.76488,533.61754 C 169.76488,535.45284 170.91194,537.05872 172.059,537.05872 C 173.43547,537.05872 174.35312,535.45284 174.35312,533.61754 C 174.35312,531.78224 173.43547,530.17636 172.059,530.17636 C 170.91194,530.17636 169.76488,531.78224 169.76488,533.61754 z"
           id="path2697"
           style="fill:#000000;stroke:none" />
        <path
           d="M 169.76488,553.11756 C 169.76488,554.26462 170.91194,555.41168 172.059,555.41168 C 173.43547,555.41168 174.35312,554.26462 174.35312,553.11756 C 174.35312,551.74109 173.43547,550.82344 172.059,550.82344 C 170.91194,550.82344 169.76488,551.74109 169.76488,553.11756 z"
           id="path2699"
           style="fill:#000000;stroke:none" />
      </g>
      <g
         id="g2701">
        <path
           transform="matrix(0.8992511,0,0,-0.9380081,158.5524,1052.2167)"
           d="M 119.83598,543.48151 A 32.912697,32.068783 0 1 1 54.010582,543.48151 A 32.912697,32.068783 0 1 1 119.83598,543.48151 z"
           sodipodi:ry="32.068783"
           sodipodi:rx="32.912697"
           sodipodi:cy="543.48151"
           sodipodi:cx="86.923279"
           id="path2703"
           style="fill:#008caa;fill-opacity:1;fill-rule:nonzero;stroke:#008caa;stroke-width:1.18599999;stroke-miterlimit:4;stroke-dasharray:none;stroke-dashoffset:0;stroke-opacity:1"
           sodipodi:type="arc" />
        <path
           d="M 234.00024,529.48812 C 234.00024,530.40577 238.35907,533.84695 243.63554,536.82931 L 253.27085,542.3352 L 243.63554,547.84108 C 238.35907,551.05285 234.00024,554.49403 234.00024,555.64109 C 234.00024,556.55874 239.50613,554.26462 246.38849,550.1352 C 253.27085,546.00579 258.31791,542.10578 257.40026,541.41755 C 253.04144,537.51754 234.00024,527.65283 234.00024,529.48812 z"
           id="path2705"
           style="fill:#000000;stroke:none" />
        <path
           d="M 222.52964,533.61754 C 222.52964,535.45284 224.13552,537.05872 225.97082,537.05872 C 227.80612,537.05872 229.412,535.45284 229.412,533.61754 C 229.412,531.78224 227.80612,530.17636 225.97082,530.17636 C 224.13552,530.17636 222.52964,531.78224 222.52964,533.61754 z"
           id="path2707"
           style="fill:#000000;stroke:none" />
        <path
           d="M 222.52964,553.11756 C 222.52964,554.26462 224.13552,555.41168 225.97082,555.41168 C 227.80612,555.41168 229.412,554.26462 229.412,553.11756 C 229.412,551.74109 227.80612,550.82344 225.97082,550.82344 C 224.13552,550.82344 222.52964,551.74109 222.52964,553.11756 z"
           id="path2709"
           style="fill:#000000;stroke:none" />
      </g>
      <g
         id="g2711">
        <path
           sodipodi:type="arc"
           style="fill:#008caa;fill-opacity:1;fill-rule:nonzero;stroke:#008caa;stroke-width:1.18599999;stroke-miterlimit:4;stroke-dasharray:none;stroke-dashoffset:0;stroke-opacity:1"
           id="path2713"
           sodipodi:cx="86.923279"
           sodipodi:cy="543.48151"
           sodipodi:rx="32.912697"
           sodipodi:ry="32.068783"
           d="M 119.83598,543.48151 A 32.912697,32.068783 0 1 1 54.010582,543.48151 A 32.912697,32.068783 0 1 1 119.83598,543.48151 z"
           transform="matrix(0.8992511,0,0,-0.9380081,231.12912,1052.2167)" />
        <path
           d="M 305.11796,542.79402 C 305.11796,544.62932 306.26502,546.2352 307.64149,546.2352 C 309.01796,546.2352 309.47679,547.84108 308.78855,549.90579 C 308.10032,551.74109 308.32973,552.65874 309.7062,551.9705 C 313.37679,549.67638 312.45914,539.35284 308.55914,539.35284 C 306.72384,539.35284 305.11796,540.95872 305.11796,542.79402 z"
           id="path2715"
           style="fill:#000000;stroke:none" />
      </g>
      <g
         id="g2717">
        <path
           transform="matrix(0.8992511,0,0,-0.9380081,305.39367,1052.2167)"
           d="M 119.83598,543.48151 A 32.912697,32.068783 0 1 1 54.010582,543.48151 A 32.912697,32.068783 0 1 1 119.83598,543.48151 z"
           sodipodi:ry="32.068783"
           sodipodi:rx="32.912697"
           sodipodi:cy="543.48151"
           sodipodi:cx="86.923279"
           id="path2719"
           style="fill:#008caa;fill-opacity:1;fill-rule:nonzero;stroke:#008caa;stroke-width:1.18599999;stroke-miterlimit:4;stroke-dasharray:none;stroke-dashoffset:0;stroke-opacity:1"
           sodipodi:type="arc" />
        <path
           d="M 373.25332,538.6646 C 370.27097,541.41755 371.64744,544.62932 374.6298,542.10578 C 376.92392,540.04108 378.98862,540.4999 382.88863,543.02343 C 388.85334,547.38226 394.58864,545.77638 394.58864,540.04108 C 394.58864,536.5999 394.12982,536.5999 392.52393,539.12343 C 390.68864,541.87637 389.31216,542.10578 384.2651,539.81166 C 377.38274,536.5999 375.31803,536.37048 373.25332,538.6646 z"
           id="path2721"
           style="fill:#000000;stroke:none" />
      </g>
    </g>
    <g
       id="g2723">
      <path
         style="fill:#000000;stroke:none"
         id="path2725"
         d="M 50.700052,596.24702 C 47.947108,601.29408 49.32358,603.5882 55.517704,603.5882 C 60.105944,603.5882 61.023592,607.02938 57.353,609.3235 C 55.976528,610.24115 53.223584,609.55291 51.158876,607.71762 C 47.947108,605.19408 47.488284,605.19408 48.635344,608.17644 C 50.241228,613.68233 58.958884,613.68233 61.94124,608.40585 C 64.005948,604.27644 63.547124,603.12938 58.270648,601.29408 C 53.682408,599.45878 52.76476,598.08231 54.600056,596.24702 C 56.435352,594.41172 58.270648,594.64113 61.023592,596.93525 C 64.464772,599.6882 64.923596,599.6882 63.776536,596.70584 C 62.170652,591.42936 53.452996,591.19995 50.700052,596.24702 z" />
      <path
         style="fill:#000000;stroke:none"
         id="path2727"
         d="M 123.19424,593.72348 C 120.90012,597.8529 119.06483,613.91174 121.12954,611.61762 C 123.42366,609.09409 127.09425,592.1176 125.25895,592.1176 C 124.57072,592.1176 123.65307,592.80584 123.19424,593.72348 z" />
      <path
         style="fill:#000000;stroke:none"
         id="path2729"
         d="M 139.02367,597.16466 C 138.33544,600.14702 137.87661,604.96467 137.87661,608.17644 C 138.10602,612.07644 138.56485,612.53527 139.25308,609.78232 C 139.71191,607.71762 142.23544,605.88232 144.52956,605.88232 C 149.80604,605.88232 154.62369,599.91761 152.78839,595.55878 C 150.72368,590.05289 140.62956,591.19995 139.02367,597.16466 z M 149.1178,598.99996 C 149.1178,601.52349 147.51192,603.5882 145.67662,603.5882 C 143.84132,603.5882 142.23544,601.52349 142.23544,598.99996 C 142.23544,596.47643 143.84132,594.41172 145.67662,594.41172 C 147.51192,594.41172 149.1178,596.47643 149.1178,598.99996 z" />
      <path
         style="fill:#000000;stroke:none"
         id="path2731"
         d="M 292.95912,596.0176 C 288.37088,612.53527 288.6003,612.76468 296.4003,612.53527 C 302.1356,612.30586 302.59443,611.84703 298.69442,611.1588 C 293.87677,610.24115 293.41795,609.3235 294.79442,601.06467 C 296.4003,592.1176 295.02383,588.44701 292.95912,596.0176 z" />
      <path
         style="fill:#000000;stroke:none"
         id="path2733"
         d="M 66.758892,598.99996 C 66.52948,600.83526 65.841244,604.96467 65.153008,608.17644 C 64.005948,612.53527 64.23536,613.2235 66.300068,611.38821 C 67.905952,610.01174 68.8236,605.88232 68.135364,602.21173 C 67.67654,598.54114 66.988304,597.16466 66.758892,598.99996 z" />
      <path
         style="fill:#000000;stroke:none"
         id="path2735"
         d="M 76.394196,598.54114 C 72.494192,601.06467 71.576544,612.76468 75.476548,612.76468 C 76.394196,612.76468 76.85302,610.24115 76.394196,607.25879 C 75.247136,602.21173 79.14714,596.93525 81.900084,599.6882 C 84.194204,602.21173 79.835376,614.82939 76.164784,615.74704 C 72.723604,616.66468 72.723604,616.8941 75.935372,617.12351 C 80.753024,617.35292 83.964792,613.45292 85.800088,604.73526 C 86.947148,598.99996 86.488324,597.62349 83.047144,597.39408 C 80.753024,597.16466 77.770668,597.8529 76.394196,598.54114 z" />
      <path
         style="fill:#000000;stroke:none"
         id="path2737"
         d="M 90.61774,600.83526 C 89.929504,602.44114 89.47068,606.11173 89.47068,608.86468 C 89.700092,612.76468 90.388328,612.30586 93.370684,605.88232 L 97.041276,597.8529 L 98.417748,605.88232 L 100.02363,613.91174 L 101.62952,607.4882 C 102.54716,604.04702 102.77658,600.14702 102.08834,598.99996 C 100.25304,596.0176 91.994212,597.16466 90.61774,600.83526 z" />
      <path
         style="fill:#000000;stroke:none"
         id="path2739"
         d="M 108.74129,599.45878 C 107.59423,601.29408 108.28246,601.52349 110.806,600.60584 C 113.10012,599.91761 114.706,599.91761 114.706,601.06467 C 114.706,602.21173 112.64129,603.5882 109.88835,604.27644 C 103.92364,605.88232 105.30011,611.38821 111.72364,612.30586 C 115.39424,612.76468 116.77071,611.38821 117.68836,606.57056 C 118.37659,603.12938 118.37659,599.45878 117.68836,598.54114 C 116.08247,595.78819 110.57658,596.47643 108.74129,599.45878 z M 114.706,606.79997 C 114.706,607.4882 113.78835,608.63526 112.41188,609.3235 C 111.26482,610.01174 110.11776,609.55291 110.11776,608.40585 C 110.11776,607.02938 111.26482,605.88232 112.41188,605.88232 C 113.78835,605.88232 114.706,606.34114 114.706,606.79997 z" />
      <path
         style="fill:#000000;stroke:none"
         id="path2741"
         d="M 155.08251,604.27644 C 153.24722,612.99409 155.31192,615.51762 157.37663,607.25879 C 158.06487,604.04702 159.67075,601.29408 160.81781,601.29408 C 161.96487,601.29408 162.88252,600.37643 162.88252,599.45878 C 162.88252,594.18231 156.22957,598.31172 155.08251,604.27644 z" />
      <path
         style="fill:#000000;stroke:none"
         id="path2743"
         d="M 167.47076,601.52349 C 164.25899,607.25879 166.09429,612.76468 170.68253,612.76468 C 175.04136,612.76468 179.85901,604.50585 178.02371,599.91761 C 176.18842,595.09996 170.2237,596.0176 167.47076,601.52349 z M 174.35312,604.73526 C 174.35312,607.94703 173.43547,610.47056 172.059,610.47056 C 169.53547,610.47056 168.84723,602.89996 171.37076,600.60584 C 173.8943,598.08231 174.35312,598.77055 174.35312,604.73526 z" />
      <path
         style="fill:#000000;stroke:none"
         id="path2745"
         d="M 183.5296,601.52349 C 181.92372,604.04702 181.46489,607.71762 182.15313,609.55291 C 183.5296,613.2235 189.49431,613.91174 191.55902,610.47056 C 192.47667,609.09409 191.32961,608.86468 189.2649,609.78232 C 186.28254,610.69997 185.59431,610.01174 186.28254,605.65291 C 186.74137,601.7529 188.11784,600.37643 191.32961,600.83526 C 193.85314,601.29408 194.77079,600.60584 193.85314,599.22937 C 191.55902,595.09996 186.28254,596.24702 183.5296,601.52349 z" />
      <path
         style="fill:#000000;stroke:none"
         id="path2747"
         d="M 200.50609,598.54114 C 192.47667,604.04702 197.52373,615.74704 205.78256,610.47056 C 209.45316,608.17644 209.22374,608.17644 204.86492,609.3235 C 201.65315,610.24115 199.58844,609.78232 199.58844,608.40585 C 199.58844,607.02938 201.42374,605.88232 203.71786,605.88232 C 209.68257,605.88232 211.51786,603.35879 208.53551,599.6882 C 205.55315,596.24702 204.17668,596.0176 200.50609,598.54114 z M 206.4708,601.29408 C 206.4708,602.44114 204.86492,603.5882 202.80021,603.5882 C 200.96491,603.5882 200.04726,602.44114 200.7355,601.29408 C 201.42374,599.91761 203.02962,598.99996 204.40609,598.99996 C 205.55315,598.99996 206.4708,599.91761 206.4708,601.29408 z" />
      <path
         style="fill:#000000;stroke:none"
         id="path2749"
         d="M 215.64728,598.99996 C 212.66492,601.06467 212.66492,601.7529 216.33552,604.50585 C 221.61199,608.63526 221.38258,611.1588 215.41787,609.3235 C 211.97669,608.17644 211.05904,608.40585 211.97669,610.24115 C 214.27081,613.68233 219.08846,613.45292 222.52964,609.3235 C 224.82376,606.57056 224.59435,605.65291 221.61199,604.50585 C 219.54728,603.81761 217.9414,602.21173 217.9414,601.06467 C 217.9414,600.14702 219.54728,599.91761 221.8414,600.60584 C 224.36494,601.52349 225.05317,601.29408 223.90611,599.45878 C 221.8414,596.0176 220.23552,596.0176 215.64728,598.99996 z" />
      <path
         style="fill:#000000;stroke:none"
         id="path2751"
         d="M 229.412,600.14702 C 227.11788,602.89996 227.34729,603.81761 230.32965,604.96467 C 232.39436,605.65291 234.00024,607.4882 234.00024,608.63526 C 234.00024,610.01174 232.16494,610.24115 230.10024,609.3235 C 227.11788,608.40585 226.65906,608.63526 228.49435,610.47056 C 231.2473,613.2235 238.58848,611.38821 238.58848,607.94703 C 238.58848,606.79997 236.9826,605.19408 235.1473,604.50585 C 233.312,603.5882 231.70612,601.98232 231.70612,600.83526 C 231.70612,599.45878 233.312,598.99996 235.1473,599.91761 C 236.9826,600.60584 238.58848,600.14702 238.58848,598.99996 C 238.58848,595.55878 232.62377,596.24702 229.412,600.14702 z" />
      <path
         style="fill:#000000;stroke:none"
         id="path2753"
         d="M 243.40613,598.99996 C 243.17672,600.83526 242.48848,604.96467 241.80025,608.17644 C 240.65319,612.53527 240.8826,613.2235 242.94731,611.38821 C 244.55319,610.01174 245.47084,605.88232 244.7826,602.21173 C 244.32378,598.54114 243.63554,597.16466 243.40613,598.99996 z" />
      <path
         style="fill:#000000;stroke:none"
         id="path2755"
         d="M 251.20614,600.83526 C 250.5179,602.44114 250.05908,606.11173 250.05908,608.86468 C 250.28849,612.76468 250.97673,612.30586 253.95908,605.88232 L 257.62968,597.8529 L 259.00615,605.88232 L 260.61203,613.91174 L 262.21792,607.4882 C 263.13556,604.04702 263.36498,600.14702 262.67674,598.99996 C 260.84144,596.0176 252.58261,597.16466 251.20614,600.83526 z" />
      <path
         style="fill:#000000;stroke:none"
         id="path2757"
         d="M 268.18263,601.52349 C 265.6591,606.34114 266.80616,612.76468 270.24734,612.76468 C 271.16498,612.76468 272.08263,610.47056 271.85322,607.4882 C 271.85322,604.73526 273.00028,602.44114 274.14734,602.44114 C 275.52381,602.44114 276.21205,605.4235 275.98264,609.3235 C 275.52381,615.97645 275.52381,615.97645 277.58852,610.47056 C 278.50617,607.25879 279.42382,603.12938 279.65323,601.29408 C 279.88264,596.0176 271.16498,596.24702 268.18263,601.52349 z" />
      <path
         style="fill:#000000;stroke:none"
         id="path2759"
         d="M 308.32973,599.45878 C 307.18267,601.29408 307.8709,601.52349 310.39444,600.60584 C 312.68856,599.91761 314.29444,599.91761 314.29444,601.06467 C 314.29444,602.21173 312.22973,603.5882 309.47679,604.27644 C 303.51208,605.88232 304.88855,611.38821 311.31208,612.30586 C 314.98268,612.76468 316.35915,611.38821 317.2768,606.57056 C 317.96503,603.12938 317.96503,599.45878 317.2768,598.54114 C 315.67091,595.78819 310.16502,596.47643 308.32973,599.45878 z M 314.29444,606.79997 C 314.29444,607.4882 313.37679,608.63526 312.00032,609.3235 C 310.85326,610.01174 309.7062,609.55291 309.7062,608.40585 C 309.7062,607.02938 310.85326,605.88232 312.00032,605.88232 C 313.37679,605.88232 314.29444,606.34114 314.29444,606.79997 z" />
      <path
         style="fill:#000000;stroke:none"
         id="path2761"
         d="M 324.84739,599.22937 C 322.32386,607.25879 321.86504,612.76468 323.47092,612.76468 C 325.53563,612.76468 328.7474,598.77055 326.9121,597.16466 C 326.45328,596.47643 325.53563,597.39408 324.84739,599.22937 z" />
      <path
         style="fill:#000000;stroke:none"
         id="path2763"
         d="M 331.50034,604.73526 C 331.50034,609.09409 332.18858,612.76468 333.33564,612.76468 C 334.25328,612.76468 334.94152,610.24115 334.94152,607.02938 C 334.94152,603.81761 334.94152,600.60584 335.17093,599.6882 C 335.17093,598.77055 334.4827,597.62349 333.33564,597.39408 C 332.41799,596.93525 331.50034,600.37643 331.50034,604.73526 z" />
      <path
         style="fill:#000000;stroke:none"
         id="path2765"
         d="M 339.30035,601.52349 C 336.77682,606.34114 337.92388,612.76468 341.36506,612.76468 C 342.2827,612.76468 343.20035,610.47056 342.97094,607.4882 C 342.97094,604.73526 344.118,602.44114 345.26506,602.44114 C 346.64153,602.44114 347.32977,605.4235 347.10036,609.3235 C 346.64153,615.97645 346.64153,615.97645 348.70624,610.47056 C 349.62389,607.25879 350.54154,603.12938 350.77095,601.29408 C 351.00036,596.0176 342.2827,596.24702 339.30035,601.52349 z" />
      <path
         style="fill:#000000;stroke:none"
         id="path2767"
         d="M 355.5886,602.44114 C 355.5886,605.65291 355.5886,608.86468 355.5886,609.78232 C 355.5886,610.92938 357.88272,611.61762 360.63566,611.61762 C 364.53567,611.61762 366.14155,609.78232 367.28861,604.04702 C 367.97685,600.14702 367.97685,596.70584 367.0592,596.70584 C 366.14155,596.70584 364.76508,599.6882 364.07684,603.5882 C 362.24155,612.76468 356.96507,612.76468 358.34154,603.5882 C 359.02978,599.6882 358.57096,596.70584 357.4239,596.70584 C 356.50625,596.70584 355.5886,599.22937 355.5886,602.44114 z" />
      <path
         style="fill:#000000;stroke:none"
         id="path2769"
         d="M 375.08862,598.77055 C 374.40038,600.37643 375.08862,600.60584 377.15333,599.91761 C 382.88863,597.62349 381.51216,602.21173 375.77686,604.73526 C 370.27097,607.02938 369.35332,610.92938 373.71215,612.30586 C 375.08862,612.76468 375.54744,611.61762 374.85921,609.55291 C 373.94156,607.25879 374.6298,605.88232 377.15333,605.88232 C 379.44745,605.88232 380.13568,607.25879 379.44745,609.3235 C 378.5298,611.1588 379.21804,612.76468 380.59451,612.76468 C 381.97098,612.76468 383.11804,610.24115 383.11804,607.02938 C 383.11804,603.81761 383.11804,600.60584 383.34745,599.45878 C 383.34745,596.70584 376.6945,596.24702 375.08862,598.77055 z" />
      <path
         style="fill:#000000;stroke:none"
         id="path2771"
         d="M 387.47687,601.52349 C 384.95334,606.34114 386.1004,612.76468 389.54158,612.76468 C 390.45922,612.76468 391.37687,610.47056 391.14746,607.4882 C 391.14746,604.73526 392.29452,602.44114 393.44158,602.44114 C 394.81805,602.44114 395.50629,605.4235 395.27688,609.3235 C 394.81805,615.97645 394.81805,615.97645 396.88276,610.47056 C 397.80041,607.25879 398.71806,603.12938 398.94747,601.29408 C 399.17688,596.0176 390.45922,596.24702 387.47687,601.52349 z" />
      <path
         style="fill:#000000;stroke:none"
         id="path2773"
         d="M 403.99453,601.7529 C 401.24159,608.63526 406.74748,615.28821 411.1063,610.69997 C 413.62984,608.40585 413.40042,608.17644 410.18866,609.3235 C 407.66512,610.24115 406.05924,609.78232 406.05924,608.40585 C 406.05924,607.02938 408.12395,605.88232 410.87689,605.88232 C 414.08866,605.88232 415.23572,604.73526 414.7769,601.98232 C 413.62984,595.78819 406.28865,595.55878 403.99453,601.7529 z M 410.64748,601.29408 C 410.64748,602.44114 409.50042,603.5882 408.12395,603.5882 C 406.97689,603.5882 406.51806,602.44114 407.2063,601.29408 C 407.89454,599.91761 409.0416,598.99996 409.72983,598.99996 C 410.18866,598.99996 410.64748,599.91761 410.64748,601.29408 z" />
      <path
         style="fill:#000000;stroke:none"
         id="path2775"
         d="M 267.95322,616.66468 C 269.5591,617.35292 271.62381,617.12351 272.31204,616.43527 C 273.22969,615.74704 271.85322,615.0588 269.32969,615.28821 C 266.80616,615.28821 266.11792,615.97645 267.95322,616.66468 z" />
      <path
         style="fill:#000000;stroke:none"
         id="path2777"
         d="M 339.07094,616.66468 C 340.67682,617.35292 342.74153,617.12351 343.42976,616.43527 C 344.34741,615.74704 342.97094,615.0588 340.44741,615.28821 C 337.92388,615.28821 337.23564,615.97645 339.07094,616.66468 z" />
      <path
         style="fill:#000000;stroke:none"
         id="path2779"
         d="M 387.24746,616.66468 C 388.85334,617.35292 390.91805,617.12351 391.60628,616.43527 C 392.52393,615.74704 391.14746,615.0588 388.62393,615.28821 C 386.1004,615.28821 385.41216,615.97645 387.24746,616.66468 z" />
    </g>
    <path
       id="path2781"
       d="M 123.39553,437.63824 L 87.127204,437.63824 L 87.127204,454.45309 L 120.13995,454.45309 L 120.13995,468.0303 L 87.127204,468.0303 L 87.127204,502.02553 L 70.278143,502.02553 L 70.278143,424.06104 L 123.39553,424.06104 L 123.39553,437.63824 M 165.43253,438.16045 L 157.49348,470.06688 L 173.4287,470.06688 L 165.43253,438.16045 M 155.15174,424.06104 L 175.77043,424.06104 L 198.78798,502.02553 L 181.9389,502.02553 L 176.68428,482.75634 L 154.12366,482.75634 L 148.98327,502.02553 L 132.1342,502.02553 L 155.15174,424.06104 M 206.6699,473.2523 L 206.6699,424.06104 L 223.51898,424.06104 L 223.51898,477.11658 C 223.51897,481.0157 224.60414,484.07926 226.77455,486.3073 C 228.94492,488.50056 231.95301,489.59718 235.79881,489.59716 C 239.64455,489.59718 242.65263,488.50056 244.82305,486.3073 C 246.9934,484.07926 248.07859,481.0157 248.07864,477.11658 L 248.07864,424.06104 L 264.9277,424.06104 L 264.9277,473.2523 C 264.92764,483.83557 262.62398,491.52932 258.01673,496.33355 C 253.40936,501.13779 246.0034,503.53991 235.79881,503.53991 C 225.63222,503.53991 218.22626,501.13779 213.58089,496.33355 C 208.97357,491.52932 206.6699,483.83557 206.6699,473.2523 M 300.11085,467.82142 C 291.61965,464.86232 285.87003,461.76394 282.86196,458.52626 C 279.85387,455.25385 278.34984,450.86737 278.34985,445.36681 C 278.34984,438.29976 280.82484,432.74704 285.77486,428.70862 C 290.72485,424.67035 297.52158,422.65118 306.16508,422.6511 C 310.08697,422.65118 314.0089,423.06894 317.93087,423.90438 C 321.85275,424.70516 325.7366,425.90623 329.58244,427.50756 L 329.58244,442.54692 C 325.96506,440.21449 322.29064,438.43901 318.55914,437.22048 C 314.82756,436.00208 311.13409,435.39285 307.47873,435.39278 C 303.40447,435.39285 300.28216,436.14133 298.1118,437.63824 C 295.94139,439.13528 294.85619,441.27629 294.85622,444.0613 C 294.85619,446.21979 295.63677,448.01267 297.19795,449.43997 C 298.79716,450.83256 302.10985,452.38175 307.13604,454.08755 L 314.38972,456.59411 C 321.24353,458.89184 326.28872,461.938 329.52532,465.73262 C 332.76181,469.5273 334.38008,474.31413 334.38014,480.09312 C 334.38008,487.96095 331.82891,493.8444 326.72666,497.74349 C 321.66237,501.60777 313.98986,503.53991 303.70912,503.53991 C 299.48255,503.53991 295.23696,503.06993 290.97237,502.12997 C 286.7458,501.22483 282.65254,499.8671 278.69253,498.05681 L 278.69253,482.1297 C 283.18561,485.05404 287.52638,487.22987 291.71487,488.65721 C 295.94139,490.08457 300.11081,490.79823 304.22315,490.79823 C 308.37352,490.79823 311.59102,489.94531 313.87568,488.23945 C 316.16026,486.49879 317.30256,484.07926 317.30261,480.98086 C 317.30256,478.64839 316.54103,476.61181 315.01798,474.87112 C 313.49486,473.09566 311.28639,471.70314 308.39258,470.69352 L 300.11085,467.82142 M 384.98445,502.02553 L 368.13538,502.02553 L 368.13538,437.53381 L 346.48861,437.53381 L 346.48861,424.06104 L 406.63122,424.06104 L 406.63122,437.53381 L 384.98445,437.53381 L 384.98445,502.02553"
       style="font-size:114.34502411px;font-style:normal;font-variant:normal;font-weight:bold;font-stretch:normal;text-align:start;line-height:100%;writing-mode:lr-tb;text-anchor:start;fill:#ffd600;fill-opacity:1;stroke:none;stroke-width:1px;stroke-linecap:butt;stroke-linejoin:miter;stroke-opacity:1;font-family:Monospace;-inkscape-font-specification:Monospace Bold" />
  </g>
</svg>
