/* XPM */
static const char * ClipBoard_xpm[] = {
"24 24 67 1",
" 	c None",
".	c #000000",
"+	c #B9B9B9",
"@	c #FEFEFE",
"#	c #F9F9F9",
"$	c #757575",
"%	c #F5F5E8",
"&	c #565651",
"*	c #FFFFFF",
"=	c #A0A0A0",
"-	c #939393",
";	c #7C7C7C",
">	c #C5C5BB",
",	c #CFC6A0",
"'	c #D7CEAA",
")	c #ADA689",
"!	c #4B483C",
"~	c #6D6D6D",
"{	c #6C6C6C",
"]	c #A9A9A9",
"^	c #3D3A30",
"/	c #979178",
"(	c #C1B898",
"_	c #8A793D",
":	c #C3BB9A",
"<	c #AFA78A",
"[	c #444236",
"}	c #FAFAFA",
"|	c #EFEFEF",
"1	c #C7C7C7",
"2	c #D8D8D8",
"3	c #D2D2D2",
"4	c #7B7B7B",
"5	c #302E26",
"6	c #89846C",
"7	c #C4BC9A",
"8	c #847235",
"9	c #C5C5C5",
"0	c #A7A7A7",
"a	c #ADADAD",
"b	c #9A9A9A",
"c	c #9B9B9B",
"d	c #868686",
"e	c #424242",
"f	c #847033",
"g	c #C9C09E",
"h	c #464337",
"i	c #35332A",
"j	c #2D2B23",
"k	c #C6BE9D",
"l	c #826F33",
"m	c #B7AE90",
"n	c #B1AA8C",
"o	c #B9B293",
"p	c #AAA48B",
"q	c #A5A086",
"r	c #A19A7F",
"s	c #AFA88C",
"t	c #A9A489",
"u	c #A39E85",
"v	c #EBE7D0",
"w	c #D2C9A5",
"x	c #A29053",
"y	c #8E7C3D",
"z	c #88793B",
"A	c #806C2F",
"B	c #78652B",
"       ....             ",
" ......+@#$......       ",
".%%%%%&*=-;&>%%%,.      ",
".%''')!*~{]^/(''_.      ",
".%::<[}|123456<78.      ",
".%''!900abcde!)'f.      ",
".%g:6hijjjjj56<kl.      ",
".%'''////////(''l.      ",
".%g::::::::::::'l.      ",
".%''''''''''''''l.      ",
".%mnnnnnnnnnnnn'l.      ",
".%''''''''''''''l.      ",
".%onnnnnnnnnnnn'l.      ",
".%''''''''''''''l.      ",
".%pqrrrrrrrrrrr'l.      ",
".%''''''''''''''l.      ",
".%sqrrrrrrrrrrr'l.      ",
".%''''''''''''''l.      ",
".%turrrrrrrrrrr'l.      ",
".v''''''''''''''l.      ",
".wxyzABllllllllll.      ",
" .................      ",
"                        ",
"                        "};
