<?xml version="1.0" encoding="UTF-8" standalone="no"?>
<svg
   xmlns:dc="http://purl.org/dc/elements/1.1/"
   xmlns:cc="http://creativecommons.org/ns#"
   xmlns:rdf="http://www.w3.org/1999/02/22-rdf-syntax-ns#"
   xmlns:svg="http://www.w3.org/2000/svg"
   xmlns="http://www.w3.org/2000/svg"
   xmlns:xlink="http://www.w3.org/1999/xlink"
   xmlns:sodipodi="http://sodipodi.sourceforge.net/DTD/sodipodi-0.dtd"
   xmlns:inkscape="http://www.inkscape.org/namespaces/inkscape"
   version="1.0"
   width="468pt"
   height="229pt"
   viewBox="0 0 468 229"
   preserveAspectRatio="xMidYMid meet"
   id="svg2"
   sodipodi:version="0.32"
   inkscape:version="0.46"
   sodipodi:docname="clamlogo.svg"
   inkscape:output_extension="org.inkscape.output.svg.inkscape"
   inkscape:export-filename="/home/vokimon/CajitasDeArena/clam/web/images/clamlogo-transp.png"
   inkscape:export-xdpi="90"
   inkscape:export-ydpi="90">
  <defs
     id="defs17">
    <linearGradient
       inkscape:collect="always"
       id="linearGradient3178">
      <stop
         style="stop-color:#9cd7d1;stop-opacity:1;"
         offset="0"
         id="stop3180" />
      <stop
         style="stop-color:#ffffff;stop-opacity:1;"
         offset="1"
         id="stop3182" />
    </linearGradient>
    <linearGradient
       inkscape:collect="always"
       id="linearGradient2523">
      <stop
         style="stop-color:#bd9655;stop-opacity:1;"
         offset="0"
         id="stop2525" />
      <stop
         style="stop-color:#ffffff;stop-opacity:1;"
         offset="1"
         id="stop2527" />
    </linearGradient>
    <linearGradient
       inkscape:collect="always"
       id="linearGradient2515">
      <stop
         style="stop-color:#9cd7d1;stop-opacity:1;"
         offset="0"
         id="stop2517" />
      <stop
         style="stop-color:#ffffff;stop-opacity:1;"
         offset="1"
         id="stop2519" />
    </linearGradient>
    <linearGradient
       inkscape:collect="always"
       id="linearGradient2509">
      <stop
         style="stop-color:#9cd7d1;stop-opacity:1;"
         offset="0"
         id="stop2511" />
      <stop
         style="stop-color:#ffffff;stop-opacity:1;"
         offset="1"
         id="stop2513" />
    </linearGradient>
    <linearGradient
       inkscape:collect="always"
       id="linearGradient2493">
      <stop
         style="stop-color:#9cd7d1;stop-opacity:1;"
         offset="0"
         id="stop2495" />
      <stop
         style="stop-color:#ffffff;stop-opacity:1;"
         offset="1"
         id="stop2497" />
    </linearGradient>
    <inkscape:perspective
       sodipodi:type="inkscape:persp3d"
       inkscape:vp_x="0 : 143.125 : 1"
       inkscape:vp_y="6.123234e-14 : 1000 : 0"
       inkscape:vp_z="585 : 143.125 : 1"
       inkscape:persp3d-origin="292.5 : 95.416667 : 1"
       id="perspective19" />
    <inkscape:perspective
       id="perspective2475"
       inkscape:persp3d-origin="372.04724 : 350.78739 : 1"
       inkscape:vp_z="744.09448 : 526.18109 : 1"
       inkscape:vp_y="0 : 1000 : 0"
       inkscape:vp_x="0 : 526.18109 : 1"
       sodipodi:type="inkscape:persp3d" />
    <linearGradient
       inkscape:collect="always"
       xlink:href="#linearGradient2493"
       id="linearGradient2499"
       x1="149.3763"
       y1="80.953331"
       x2="153.20647"
       y2="33.459324"
       gradientUnits="userSpaceOnUse" />
    <linearGradient
       inkscape:collect="always"
       xlink:href="#linearGradient2509"
       id="linearGradient2507"
       x1="106.47849"
       y1="70.228882"
       x2="124.86327"
       y2="27.331066"
       gradientUnits="userSpaceOnUse" />
    <linearGradient
       inkscape:collect="always"
       xlink:href="#linearGradient2515"
       id="linearGradient2521"
       x1="189.20999"
       y1="84.017464"
       x2="212.19096"
       y2="31.927261"
       gradientUnits="userSpaceOnUse" />
    <linearGradient
       inkscape:collect="always"
       xlink:href="#linearGradient2523"
       id="linearGradient2529"
       x1="91.157852"
       y1="177.4734"
       x2="363.09933"
       y2="270.16333"
       gradientUnits="userSpaceOnUse" />
    <linearGradient
       inkscape:collect="always"
       xlink:href="#linearGradient3178"
       id="linearGradient3184"
       x1="185.37982"
       y1="88.613655"
       x2="199.16841"
       y2="38.055519"
       gradientUnits="userSpaceOnUse" />
  </defs>
  <sodipodi:namedview
     inkscape:window-height="667"
     inkscape:window-width="868"
     inkscape:pageshadow="2"
     inkscape:pageopacity="0.0"
     guidetolerance="10.0"
     gridtolerance="10.0"
     objecttolerance="10.0"
     borderopacity="1.0"
     bordercolor="#666666"
     pagecolor="#ffffff"
     id="base"
     showgrid="false"
     inkscape:zoom="0.65271395"
     inkscape:cx="583.7553"
     inkscape:cy="190.9311"
     inkscape:window-x="0"
     inkscape:window-y="0"
     inkscape:current-layer="svg2" />
  <metadata
     id="metadata4">
Created by potrace 1.8, written by Peter Selinger 2001-2007
<rdf:RDF>
  <cc:Work
     rdf:about="">
    <dc:format>image/svg+xml</dc:format>
    <dc:type
       rdf:resource="http://purl.org/dc/dcmitype/StillImage" />
  </cc:Work>
</rdf:RDF>
</metadata>
  <path
     style="opacity:1;fill:url(#linearGradient3184);fill-opacity:1;fill-rule:nonzero;stroke:#a76868;stroke-width:0;stroke-linecap:butt;stroke-miterlimit:4;stroke-dasharray:none;stroke-dashoffset:0;stroke-opacity:1"
     d="M 43.853796,152.28069 C 44.90709,151.70753 56.110313,147.10287 68.749847,142.0481 C 129.71666,117.66645 162.04693,98.953514 204.72059,63.347511 C 220.57991,50.114838 224.6011,47.393278 228.09928,47.524791 C 232.00514,47.671631 235.36188,49.642648 235.36188,51.789262 C 235.36188,61.016681 191.41809,100.91577 162.58881,117.86409 C 140.80845,130.66844 102.42455,144.20606 72.963025,149.4742 C 62.859104,151.28092 47.051222,153.39866 44.006068,153.35348 L 41.938715,153.32281 L 43.853796,152.28069 z"
     id="path3176"
     transform="scale(0.8,0.8)" />
  <path
     style="opacity:1;fill:url(#linearGradient2507);fill-opacity:1;fill-rule:nonzero;stroke:none;stroke-width:0.76603233999999998;stroke-linecap:butt;stroke-miterlimit:4;stroke-dasharray:1.53206468999999990, 3.06412939000000017;stroke-dashoffset:0;stroke-opacity:1"
     d="M 37.47334,128.30814 C 37.47334,120.96734 56.122367,92.909435 70.224731,79.032904 C 88.927495,60.629621 119.83608,43.244317 136.08213,41.989732 C 144.57739,41.333695 144.51845,42.298198 135.29896,54.803217 C 124.5922,69.32552 98.388837,93.310621 78.45607,106.83406 C 65.153658,115.85913 46.985087,126.23657 39.579929,129.03919 C 37.719336,129.74335 37.47334,129.658 37.47334,128.30814 z"
     id="path2481"
     transform="scale(0.8,0.8)" />
  <path
     style="opacity:1;fill:url(#linearGradient2499);fill-opacity:1;fill-rule:nonzero;stroke:none;stroke-width:0.76603233999999998;stroke-linecap:butt;stroke-miterlimit:4;stroke-dasharray:1.53206468999999990, 3.06412939000000017;stroke-dashoffset:0;stroke-opacity:1"
     d="M 40.961077,141.47849 C 42.624026,140.27702 48.638261,136.61318 54.326051,133.33662 C 65.342079,126.99063 68.352341,124.95759 79.222103,116.52254 C 92.111945,106.51988 102.93304,96.655823 126.33309,73.57811 C 165.04487,35.399579 163.85549,35.920428 198.53164,41.962033 C 203.90344,42.897956 208.29855,43.887478 208.29855,44.160967 C 208.29855,44.83362 180.06331,70.502192 173.8271,75.498875 C 158.90011,87.458931 136.82245,100.71581 107.82888,115.12856 C 78.921228,129.49861 45.056508,143.66297 39.60772,143.66297 C 38.207896,143.66297 38.426973,143.30936 40.961085,141.47849 L 40.961077,141.47849 z"
     id="path2483"
     transform="scale(0.8,0.8)" />
  <path
     style="opacity:1;fill:#bd9655;fill-opacity:1;fill-rule:nonzero;stroke:#000000;stroke-width:0.76603234;stroke-linecap:butt;stroke-miterlimit:4;stroke-dasharray:1.53206469, 3.06412939;stroke-dashoffset:0;stroke-opacity:1"
     d=""
     id="path2489"
     transform="scale(0.8,0.8)" />
  <g
     transform="translate(0,229) scale(0.362791,-0.362791)"
     fill="#000000"
     stroke="none"
     id="g6">
    <path
       d="M305 567 c-56 -19 -103 -45 -148 -81 -44 -35 -137 -168 -137 -196 0 -10 21 -41 46 -69 50 -56 132 -101 229 -126 65 -17 245 -38 253 -30 9 9 -51 86 -106 136 -30 28 -77 62 -105 76 l-51 25 70 33 c87 40 168 101 217 162 l39 48 -34 14 c-47 19 -223 24 -273 8z m119 -25 l39 -7 -58 -53 c-38 -35 -95 -71 -169 -107 -127 -62 -208 -86 -111 -34 37 20 93 67 145 120 89 91 91 92 154 81z m-124 -31 c-29 -42 -104 -106 -164 -140 -28 -17 -52 -28 -54 -26 -7 7 30 68 66 107 37 41 120 88 155 88 17 0 17 -2 -3 -29z m218 11 c19 -13 -102 -123 -174 -160 -68 -34 -146 -58 -219 -67 -49 -6 -48 -5 35 27 111 43 201 95 275 157 65 55 64 54 83 43z m-209 -256 c44 -23 171 -140 171 -158 0 -5 -10 -6 -22 -4 -13 3 -61 12 -108 21 -95 18 -201 63 -243 103 l-28 27 73 16 c99 22 102 22 157 -5z"
       id="path8" />
    <path
       d="M838 248 c-74 -84 -108 -136 -108 -164 0 -35 25 -20 60 37 29 48 60 69 102 69 19 0 20 -4 15 -50 -3 -27 -2 -50 2 -50 13 0 29 53 36 118 6 49 4 60 -15 80 -11 12 -25 22 -29 22 -5 0 -33 -28 -63 -62z m52 -19 c0 -5 -10 -9 -21 -9 -18 0 -19 2 -9 15 12 15 30 12 30 -6z"
       id="path10" />
    <path
       d="M1057 289 c-36 -28 -89 -141 -85 -182 2 -27 7 -32 28 -32 23 0 26 6 38 65 13 68 30 110 44 110 4 0 8 -35 8 -79 0 -57 4 -82 15 -91 12 -10 19 -3 41 44 14 30 32 60 40 67 12 10 14 3 14 -39 0 -36 4 -52 16 -56 22 -9 24 -8 24 9 0 8 5 15 11 15 9 0 10 17 4 58 -4 31 -8 72 -8 90 -1 47 -23 38 -69 -27 -26 -37 -38 -48 -38 -35 -1 25 -37 104 -48 104 -5 0 -21 -9 -35 -21z"
       id="path12" />
    <path
       d="M582 243 c-6 -32 -12 -85 -14 -118 l-3 -60 30 3 c42 4 115 32 115 44 0 9 -22 7 -72 -8 -16 -5 -17 2 -12 58 6 66 -4 129 -23 135 -6 2 -15 -22 -21 -54z"
       id="path14" />
  </g>
  <path
     style="opacity:1;fill:url(#linearGradient2529);fill-opacity:1;fill-rule:nonzero;stroke:none;stroke-width:0;stroke-linecap:butt;stroke-miterlimit:4;stroke-dasharray:none;stroke-dashoffset:0;stroke-opacity:1"
     d="M 209.06459,238.93291 C 208.01129,238.74506 193.04544,235.8139 175.80714,232.41923 C 142.69003,225.89758 126.12357,221.58354 108.07517,214.78119 C 76.405019,202.84487 56.407208,191.00994 40.70965,174.91349 L 36.668653,170.76983 L 55.045808,166.7647 C 112.03023,154.34563 114.40906,154.20643 132.07833,162.25706 C 147.98726,169.50561 168.81556,185.71751 194.79588,211.07382 C 210.85942,226.75154 218.66602,236.25025 216.92127,237.995 C 216.04633,238.86993 211.65248,239.39448 209.06459,238.93292 L 209.06459,238.93291 z"
     id="path2487"
     transform="scale(0.8,0.8)" />
</svg>
