/* XPM */
static char * iua_xpm[] = {
"45 49 153 2",
"  	c None",
". 	c #F8ACAF",
"+ 	c #F8A7AB",
"@ 	c #F15358",
"# 	c #F79DA0",
"$ 	c #F9AEB0",
"% 	c #FAB9BB",
"& 	c #F69697",
"* 	c #F58489",
"= 	c #F6878B",
"- 	c #F9B7B9",
"; 	c #F37D82",
"> 	c #F15056",
", 	c #F46B72",
"' 	c #F89EA2",
") 	c #F9BFC2",
"! 	c #F48489",
"~ 	c #F7A0A4",
"{ 	c #EF2A2D",
"] 	c #F69497",
"^ 	c #F16366",
"/ 	c #F79295",
"( 	c #F68A8F",
"_ 	c #F7A7AB",
": 	c #F16263",
"< 	c #EA0000",
"[ 	c #EB0000",
"} 	c #EA0007",
"| 	c #EC0B0F",
"1 	c #EC050E",
"2 	c #EC1115",
"3 	c #EB1619",
"4 	c #ED2229",
"5 	c #ED262C",
"6 	c #EF4D4E",
"7 	c #F58588",
"8 	c #EC1619",
"9 	c #E80000",
"0 	c #EC2328",
"a 	c #F47778",
"b 	c #F7999D",
"c 	c #F9ABAF",
"d 	c #F79DA1",
"e 	c #F69091",
"f 	c #F68F8F",
"g 	c #F3676C",
"h 	c #F36D71",
"i 	c #F36364",
"j 	c #F15E5E",
"k 	c #EC171E",
"l 	c #F15255",
"m 	c #ED3436",
"n 	c #F36268",
"o 	c #F2666A",
"p 	c #F14B50",
"q 	c #F9B2B4",
"r 	c #F68D90",
"s 	c #F58389",
"t 	c #F1484F",
"u 	c #F3747A",
"v 	c #EA0D0D",
"w 	c #EF3A42",
"x 	c #F16064",
"y 	c #EF343C",
"z 	c #F6888D",
"A 	c #F7979B",
"B 	c #F0474F",
"C 	c #E90A14",
"D 	c #F26165",
"E 	c #F47072",
"F 	c #F79A9D",
"G 	c #F25A5E",
"H 	c #F25F65",
"I 	c #EE212A",
"J 	c #EF363E",
"K 	c #E90002",
"L 	c #EB1A19",
"M 	c #F79EA3",
"N 	c #F8A8AC",
"O 	c #F15A60",
"P 	c #ED282F",
"Q 	c #F37175",
"R 	c #EF363C",
"S 	c #F04F51",
"T 	c #E70707",
"U 	c #EE141C",
"V 	c #E90000",
"W 	c #EF3738",
"X 	c #F78F93",
"Y 	c #EB151C",
"Z 	c #F36C70",
"` 	c #EA0808",
" .	c #ED2D35",
"..	c #ED1119",
"+.	c #F0343C",
"@.	c #F7A1A2",
"#.	c #E90001",
"$.	c #F79398",
"%.	c #FABCBC",
"&.	c #E90606",
"*.	c #F36066",
"=.	c #FABABC",
"-.	c #E90303",
";.	c #F59296",
">.	c #F9BBBE",
",.	c #ED2329",
"'.	c #E70000",
").	c #F35C63",
"!.	c #F47B7F",
"~.	c #EE3234",
"{.	c #EA0003",
"].	c #F15558",
"^.	c #E70405",
"/.	c #F57D7E",
"(.	c #F0484D",
"_.	c #F9AFB2",
":.	c #F36B71",
"<.	c #EF474E",
"[.	c #ED1A22",
"}.	c #F15058",
"|.	c #F6898E",
"1.	c #F8A4A7",
"2.	c #F8B0B3",
"3.	c #ED282B",
"4.	c #EA0001",
"5.	c #EC0E16",
"6.	c #F8A2A5",
"7.	c #ED252A",
"8.	c #EF4346",
"9.	c #E90003",
"0.	c #EA2C2D",
"a.	c #F57377",
"b.	c #EC151C",
"c.	c #F3696B",
"d.	c #F56D73",
"e.	c #EC2426",
"f.	c #EB0912",
"g.	c #EE2930",
"h.	c #EE222A",
"i.	c #EC3032",
"j.	c #F58183",
"k.	c #F37278",
"l.	c #F5898D",
"m.	c #F68E91",
"n.	c #F58689",
"o.	c #EE3138",
"p.	c #ED2C33",
"q.	c #F79A9E",
"r.	c #F69094",
"s.	c #EC1E26",
"t.	c #EB1820",
"u.	c #EE2F38",
"v.	c #F14D51",
"                                                                                          ",
"                                                                                          ",
"                                                                                          ",
"                                                                                          ",
"                                                                                          ",
"                                                                                          ",
"                                                                                          ",
"                                                    .       +                             ",
"                                                          + +                             ",
"                                                                                          ",
"                                      +             + @   #             $ %               ",
"                                      +             & *   = -           ; >               ",
"                                      ,             + '   ) +         , , ! ,             ",
"                                      ,             ~ { ] ^ / , , , , , , , (             ",
"                                      +       , _ : < [ } | 1 2 3 4 5 6 7                 ",
"                                            ] 8 9 0 a b , c d e f g h 6 < i               ",
"                                          j k l + ,                       m n             ",
"                                        o p q +                             r             ",
"                                        % +                                               ",
"                                                                                          ",
"                  s t u                                                                   ",
"              t v w x y k                                                                 ",
"              < z       A B                                                               ",
"          , C D           E                             F G H +                           ",
"          I J             :                     + G K L M + + N O P Q +                   ",
"          R S           e T                 / U k V W               X Y ,                 ",
"          Z `        .....+             , +.R + @.#.$.      %.n +     j V                 ",
"            &.*.                      ,  .=.    d -.;.    >.,.'.l +   ).B                 ",
"            !.~.                                o {.,     + ].^./.    p +   (.n           ",
"              3                         , ,     _.< u       + :.+     <., , [.}.          ",
"              } |.                      1.H 2.    V 3.+           + A L 4.y ,             ",
"              5.D                           h b 6.V } 7., , , , , 8.9.0.a.+               ",
"              b.c.                            @.O d.R e.f.g.h.< V i.j.+                   ",
"              f.k.                                  , , , l.l.m., +                       ",
"              5.n.                                                                        ",
"              [.,                                                                         ",
"              o.6.                                                                        ",
"              R g                                                                         ",
"              p.t           q.,                                                           ",
"              r.K ,       , s.,                                                           ",
"                , t.m., !.u.b                                                             ",
"                    , v.a.                                                                ",
"                                                                                          ",
"                                                                                          ",
"                                                                                          ",
"                                                                                          ",
"                                                                                          ",
"                                                                                          ",
"                                                                                          "};
