/* XPM */
static char * minieyes_xpm[] = {
"18 22 97 2",
"  	c None",
". 	c #000000",
"+ 	c #0F0F0F",
"@ 	c #1E1E1E",
"# 	c #232323",
"$ 	c #1F1F1F",
"% 	c #141414",
"& 	c #686868",
"* 	c #CFCFCF",
"= 	c #D5D5D5",
"- 	c #F3F3F3",
"; 	c #DBDBDB",
"> 	c #8A8A8A",
", 	c #8C8C8C",
"' 	c #A8A8A8",
") 	c #F6F6F6",
"! 	c #F8F8F8",
"~ 	c #FFFFFF",
"{ 	c #F9F9F9",
"] 	c #DCDCDC",
"^ 	c #1C1C1C",
"/ 	c #B5B5B5",
"( 	c #E8E8E8",
"_ 	c #F7F7F7",
": 	c #FAFAFA",
"< 	c #ECECEC",
"[ 	c #D9D9D9",
"} 	c #242424",
"| 	c #595959",
"1 	c #D1D1D1",
"2 	c #FEFEFE",
"3 	c #E7E7E7",
"4 	c #707070",
"5 	c #FDFDFD",
"6 	c #FCFCFC",
"7 	c #FBFBFB",
"8 	c #DFDFDF",
"9 	c #484848",
"0 	c #494949",
"a 	c #292929",
"b 	c #F5F5F5",
"c 	c #F4F4F4",
"d 	c #F0F0F0",
"e 	c #505050",
"f 	c #2A2A2A",
"g 	c #F2F2F2",
"h 	c #F1F1F1",
"i 	c #EFEFEF",
"j 	c #EEEEEE",
"k 	c #4F4F4F",
"l 	c #282828",
"m 	c #EDEDED",
"n 	c #C8C8C8",
"o 	c #A5A5A5",
"p 	c #B0B0B0",
"q 	c #E9E9E9",
"r 	c #EBEBEB",
"s 	c #4E4E4E",
"t 	c #272727",
"u 	c #CDCDCD",
"v 	c #5E5E5E",
"w 	c #BBBBBB",
"x 	c #E3E3E3",
"y 	c #EAEAEA",
"z 	c #E6E6E6",
"A 	c #4D4D4D",
"B 	c #DADADA",
"C 	c #555555",
"D 	c #050505",
"E 	c #020202",
"F 	c #0A0A0A",
"G 	c #C3C3C3",
"H 	c #E5E5E5",
"I 	c #BFBFBF",
"J 	c #E4E4E4",
"K 	c #E2E2E2",
"L 	c #C9C9C9",
"M 	c #A0A0A0",
"N 	c #404040",
"O 	c #151515",
"P 	c #808080",
"Q 	c #D2D2D2",
"R 	c #E1E1E1",
"S 	c #E0E0E0",
"T 	c #6F6F6F",
"U 	c #9A9A9A",
"V 	c #5B5B5B",
"W 	c #717171",
"X 	c #DEDEDE",
"Y 	c #DDDDDD",
"Z 	c #131313",
"` 	c #D0D0D0",
" .	c #898989",
"..	c #565353",
"+.	c #5C5959",
"@.	c #1D1C1C",
"#.	c #575555",
"            . . . . . . . .         ",
"            . . . . . . . .         ",
"        . . + @ @ # # $ @ % . .     ",
"      . . . & * = - - ; * > . . .   ",
"    . . , ' * ) ! ~ ~ { ) ] ' ' ^ . ",
"    . . / ( _ ~ ~ ~ ~ ~ ~ : < [ } . ",
"  . + | 1 ! ~ ~ ~ ~ ~ 2 2 2 : 3 4 @ ",
". . } [ { ~ ~ 2 2 2 5 5 6 6 7 : 8 9 ",
". . } ; { 2 5 6 6 7 7 : { ! ! _ 8 0 ",
". . a _ 7 7 : { { ! ! _ ) ) b c d e ",
". . f { ! ! _ _ ) b c c - - g h d e ",
". . a ) b b c c - g h h d d i j j k ",
". . l - g m n o p q m j m < < r r s ",
". . t m i u v . $ w x r y q q ( z A ",
". . } B q C D . E F G ( 3 3 z H ] 0 ",
". . } [ z s . . . . I H J J x K B 9 ",
"  . + | L M N . O P Q K R S 8 ] T @ ",
"    . . / [ U V W ; 8 8 X Y ; [ } . ",
"    . . , ' G X X Y ] ] ; L ' ' ^ Z ",
"      . . . & * * ` * * *  .. . D ..",
"        . . + @ @ @ @ @ @ % . . +.  ",
"            . . . . . . . @.#.#.    "};
