/* XPM */
static char * minidirectory_xpm[] = {
"24 24 278 2",
"  	c None",
". 	c #000000",
"+ 	c #666760",
"@ 	c #C4C6B4",
"# 	c #C2C4B2",
"$ 	c #C1C3B2",
"% 	c #C0C2B1",
"& 	c #ACAE9D",
"* 	c #272822",
"= 	c #6C6D6A",
"- 	c #989B7F",
"; 	c #95997E",
"> 	c #94987C",
", 	c #92967B",
"' 	c #91957A",
") 	c #969A85",
"! 	c #7B7C6D",
"~ 	c #141411",
"{ 	c #5E5E5B",
"] 	c #84876F",
"^ 	c #80836C",
"/ 	c #7F826B",
"( 	c #7F826A",
"_ 	c #7E816A",
": 	c #7D8068",
"< 	c #7A7C66",
"[ 	c #7E806E",
"} 	c #8E917E",
"| 	c #959783",
"1 	c #969783",
"2 	c #969883",
"3 	c #969885",
"4 	c #959782",
"5 	c #8E907E",
"6 	c #838675",
"7 	c #6E7062",
"8 	c #4F4F4C",
"9 	c #6D705B",
"0 	c #696C58",
"a 	c #686B58",
"b 	c #686A57",
"c 	c #686B57",
"d 	c #636653",
"e 	c #48493F",
"f 	c #5E5F59",
"g 	c #5E5E58",
"h 	c #5E5E57",
"i 	c #5E5D58",
"j 	c #5E5D56",
"k 	c #5D5C56",
"l 	c #5C5C55",
"m 	c #5C5C54",
"n 	c #4B4B46",
"o 	c #3F403B",
"p 	c #5F6250",
"q 	c #5C5F4E",
"r 	c #5C5E4E",
"s 	c #5C5E4D",
"t 	c #5B5D4C",
"u 	c #48493D",
"v 	c #C0C0B8",
"w 	c #E3E4D9",
"x 	c #E0E2D6",
"y 	c #DDDED3",
"z 	c #DCDED2",
"A 	c #DBDCD0",
"B 	c #D9DACF",
"C 	c #D8D9CD",
"D 	c #D7D8CC",
"E 	c #D5D6CA",
"F 	c #D4D4C7",
"G 	c #CCCEC0",
"H 	c #ADAEA0",
"I 	c #20201C",
"J 	c #52524B",
"K 	c #5F605A",
"L 	c #5F6059",
"M 	c #9B9D94",
"N 	c #E1E3D6",
"O 	c #C3C6B1",
"P 	c #C1C4B0",
"Q 	c #BDC0AC",
"R 	c #BABEAA",
"S 	c #B9BBA8",
"T 	c #B6B9A6",
"U 	c #B4B7A4",
"V 	c #B1B4A1",
"W 	c #AEB09E",
"X 	c #ABAC9A",
"Y 	c #A7A997",
"Z 	c #909282",
"` 	c #E3E4D7",
" .	c #E4E4DA",
"..	c #E3E4D8",
"+.	c #E2E3D7",
"@.	c #E1E2D6",
"#.	c #E0E1D6",
"$.	c #C3C4B0",
"%.	c #C0C2AE",
"&.	c #BEC0AC",
"*.	c #BCBEAA",
"=.	c #BABCA9",
"-.	c #B9BAA8",
";.	c #B6B8A5",
">.	c #B4B6A4",
",.	c #AFB09E",
"'.	c #ACAD9B",
").	c #A8AA98",
"!.	c #8F9081",
"~.	c #797A72",
"{.	c #CBCDB8",
"].	c #CACBB6",
"^.	c #C8CAB5",
"/.	c #C6C8B2",
"(.	c #C3C5B1",
"_.	c #C2C3B0",
":.	c #C0C1AD",
"<.	c #BABCA8",
"[.	c #B8BAA6",
"}.	c #B6B7A4",
"|.	c #B4B5A3",
"1.	c #B1B3A0",
"2.	c #ACAD9C",
"3.	c #A9AA98",
"4.	c #A5A695",
"5.	c #8C8E7E",
"6.	c #77786F",
"7.	c #C8CAB4",
"8.	c #C6C8B3",
"9.	c #C4C6B2",
"0.	c #C2C4B0",
"a.	c #BFC0AC",
"b.	c #B8BAA7",
"c.	c #B4B6A3",
"d.	c #B2B4A1",
"e.	c #B0B29F",
"f.	c #ADB09D",
"g.	c #ABAC9B",
"h.	c #A1A291",
"i.	c #888A7B",
"j.	c #76776E",
"k.	c #C5C6B1",
"l.	c #C2C4AF",
"m.	c #C0C2AD",
"n.	c #BEC0AB",
"o.	c #BCBEA9",
"p.	c #BABCA7",
"q.	c #B6B8A4",
"r.	c #B4B6A2",
"s.	c #B2B3A0",
"t.	c #B0B19E",
"u.	c #ADAE9C",
"v.	c #AAAC99",
"w.	c #A6A795",
"x.	c #A3A492",
"y.	c #A0A190",
"z.	c #9C9E8C",
"A.	c #838576",
"B.	c #72746A",
"C.	c #BEC0AA",
"D.	c #BCBEA8",
"E.	c #B9BBA6",
"F.	c #B6B9A4",
"G.	c #B6B6A2",
"H.	c #B3B4A0",
"I.	c #B0B39E",
"J.	c #AEB09D",
"K.	c #ACAE9A",
"L.	c #AAAB99",
"M.	c #A8A996",
"N.	c #A5A694",
"O.	c #A2A492",
"P.	c #A0A290",
"Q.	c #9EA08E",
"R.	c #9B9C8B",
"S.	c #989988",
"T.	c #959785",
"U.	c #7F8071",
"V.	c #717268",
"W.	c #BABBA5",
"X.	c #B7BAA4",
"Y.	c #B4B6A1",
"Z.	c #B2B49F",
"`.	c #B0B29E",
" +	c #AEB09C",
".+	c #A9AC98",
"++	c #A7A996",
"@+	c #A3A491",
"#+	c #A0A28F",
"$+	c #9C9E8B",
"%+	c #9A9C8A",
"&+	c #979887",
"*+	c #949584",
"=+	c #929382",
"-+	c #7C7E6F",
";+	c #B4B7A1",
">+	c #B0B29D",
",+	c #AEB09B",
"'+	c #ACAD99",
")+	c #AAAB97",
"!+	c #A7A995",
"~+	c #A5A793",
"{+	c #A1A28F",
"]+	c #9EA08D",
"^+	c #999A89",
"/+	c #969886",
"(+	c #909281",
"_+	c #8F907E",
":+	c #7B7C6E",
"<+	c #707267",
"[+	c #AFB29B",
"}+	c #ADB099",
"|+	c #ABAD98",
"1+	c #A9AB96",
"2+	c #A7A894",
"3+	c #A4A692",
"4+	c #A2A490",
"5+	c #9EA08C",
"6+	c #9A9B89",
"7+	c #989A87",
"8+	c #979886",
"9+	c #959684",
"0+	c #929482",
"a+	c #909180",
"b+	c #8D8E7D",
"c+	c #8B8C7C",
"d+	c #797A6C",
"e+	c #6F7065",
"f+	c #AAAD96",
"g+	c #A8AA95",
"h+	c #A6A893",
"i+	c #A4A690",
"j+	c #A0A28E",
"k+	c #9C9E8A",
"l+	c #9A9A88",
"m+	c #989886",
"n+	c #969784",
"o+	c #949683",
"p+	c #909280",
"q+	c #8E8F7E",
"r+	c #8B8C7B",
"s+	c #888A79",
"t+	c #888979",
"u+	c #77786A",
"v+	c #6C6E63",
"w+	c #A7A993",
"x+	c #A5A792",
"y+	c #A4A58F",
"z+	c #A1A28E",
"A+	c #9FA08C",
"B+	c #9C9F8A",
"C+	c #9A9C89",
"D+	c #999A86",
"E+	c #969785",
"F+	c #949583",
"G+	c #929481",
"H+	c #8C8D7D",
"I+	c #8A8B7A",
"J+	c #878878",
"K+	c #868777",
"L+	c #767869",
"M+	c #62625A",
"N+	c #909380",
"O+	c #8D8E7C",
"P+	c #8A8B7B",
"Q+	c #888A78",
"R+	c #868876",
"S+	c #848675",
"T+	c #828372",
"U+	c #808171",
"V+	c #7E7F70",
"W+	c #7C7E6E",
"X+	c #797A6B",
"Y+	c #78796A",
"Z+	c #76786A",
"`+	c #757768",
" @	c #767768",
".@	c #5E6054",
"                                                ",
"                                                ",
"      . . . . . . .                             ",
"    + @ # $ $ $ % & *                           ",
"    = - ; > > , ' ) ! ~ . . . . . . . . . .     ",
"    { ] ^ / ( _ : < [ } | 1 2 3 | 4 4 5 6 7 .   ",
"    8 9 0 a b c d e f g g h g i j j k l m n .   ",
"    o p q r s t u v w x y z A B C D E F G H .   ",
"    I J K K K L M N O P Q R S T U V W X Y Z .   ",
"    K `  ...+.@.#.$.%.&.*.=.-.;.>.V ,.'.).!..   ",
"    ~.{.].^./.(._.:.&.*.<.[.}.|.1.,.2.3.4.5..   ",
"    6.7.8.9.0.%.a.*.<.b.;.c.d.e.f.g.).4.h.i..   ",
"    j.k.l.m.n.o.p.[.q.r.s.t.u.v.).w.x.y.z.A..   ",
"    B.C.D.E.F.G.H.I.J.K.L.M.N.O.P.Q.R.S.T.U..   ",
"    V.W.X.Y.Z.`. +K..+++N.@+#+Q.$+%+&+*+=+-+.   ",
"    V.;+Z.>+,+'+)+!+~+x.{+]+$+%+^+/+*+(+_+:+.   ",
"    <+[+}+|+1+2+3+4+#+5+$+6+7+8+9+0+a+b+c+d+.   ",
"    e+f+g+h+i+4+j+5+k+l+m+n+o+0+p+q+r+s+t+u+.   ",
"    v+w+x+y+z+A+B+C+D+E+F+G+p+_+H+I+J+K+t+L+.   ",
"    M+N+5 O+P+Q+R+S+T+U+V+W+! X+Y+Z+`+ @Z+.@.   ",
"      . . . . . . . . . . . . . . . . . . .     ",
"                                                ",
"                                                ",
"                                                "};
