/* XPM */
static char * mtg_xpm[] = {
"100 37 3 1",
" 	c None",
".	c #160E56",
"+	c #D8202A",
"                                                                                                    ",
"                                                                   +++                              ",
"                                                                  ++++                              ",
"                                                                  ++++                              ",
"                                                                  ++++                              ",
"                                                                  ++++                          +   ",
" .........................   +++   +++++++     +++++++          ++++++++++++          ++++++++ ++++ ",
"                             +++ ++++++++++  ++++++++++         ++++++++++++         ++++++++++++++ ",
"                             +++++++++++++++++++++++++++        ++++++++++++        +++++++++++++   ",
"                             ++++++    ++++++++    +++++          ++++             +++++    +++++   ",
"                             +++++      ++++++      +++++         ++++            +++++      +++++  ",
" .........................   ++++        ++++        ++++         ++++            ++++        ++++  ",
"                             ++++        ++++        ++++         ++++            ++++        ++++  ",
"                             ++++        ++++        ++++         ++++            ++++        ++++  ",
"                             ++++        ++++        ++++         ++++            ++++        ++++  ",
"                             ++++        ++++        ++++         ++++            ++++        ++++  ",
" .........................   ++++        ++++        ++++         ++++            +++++       ++++  ",
"                             ++++        ++++        ++++         ++++             ++++      ++++   ",
"                             ++++        ++++        ++++         ++++             ++++++++++++++   ",
"                             ++++        ++++        ++++         ++++              ++++++++++++    ",
"                             ++++        ++++        ++++         ++++                ++++++++      ",
" .........................   ++++        ++++        ++++         ++++              +++++++         ",
"                             ++++        ++++        ++++         ++++             +++              ",
"                             ++++        ++++        ++++         +++++            +++    +++++     ",
"                             ++++        ++++        ++++          ++++++++++      ++++++++++++++   ",
"                             ++++        ++++        ++++           +++++++++      +++++++++++++++  ",
" .........................   ++++        ++++        ++++            ++++++++       +++++++++++++++ ",
"                                                                       ++                      ++++ ",
"                                                                                                +++ ",
"                                                                                                +++ ",
"                                                                                    ++         ++++ ",
"                                                                                   +++++     ++++++ ",
"                                                                                  ++++++++++++++++  ",
"                                                                                   ++++++++++++++   ",
"                                                                                      +++++++++     ",
"                                                                                                    ",
"                                                                                                    "};
