/* XPM */
static char * iua_xpm[] = {
"100 98 21 1",
" 	c None",
".	c #0236FE",
"+	c #FEFEFE",
"@	c #FCF1F5",
"#	c #F2CAD9",
"$	c #073BFE",
"%	c #7794FE",
"&	c #5479FE",
"*	c #3460FE",
"=	c #1244FE",
"-	c #2352FE",
";	c #FF0000",
">	c #1647FE",
",	c #E6557A",
"'	c #1A4AFE",
")	c #3C64FE",
"!	c #F23654",
"~	c #E9819F",
"{	c #EB6887",
"]	c #F44461",
"^	c #F19FB4",
";;;;;;;;;;;;;;;;;;;;;;;;;;;;;;;;;;;;;;;;;;;;;;;;;;;;;;;;;;;;;;;;;;;;;;;;;;;;;;;;;;;;;;;;;;;;;;;;;;;;",
";;;;;;;;;;;;;;;;;;;;;;;;;;;;;;;;;;;;;;;;;;;;;;;;;;;;;;;;;;;;;;;;;;;;;;;;;;;;;;;;;;;;;;;;;;;;;;;;;;;;",
";;;;;;;;;;;;;;;;;;;;;;;;;;;;;;;;;;;;;;;;;;;;;;;;;;;;;;;;;;;;;;;;;;;;;;;;;;;;;;;;;;;;;;;;;;;;;;;;;;;;",
";;;;;;;;;;;;;;;;;;;;;;;;;;;;;;;;;;;;;;;;;;;;;;;;;;;;;;;;;;;;!,^##^~{!;;];;;;;;;;;;;;;;;;;;;;;;;;;;;;",
";;;;;;;;;;;;;;;;;;;;;;;;;;;;;;;;;;;;;;;;;;;;;;;;;;;;;;;;;;!~##^{!!;;;]~];;;;;;;;;;;;;;;;;;;;;;;;;;;;",
";;;;;;;;;;;;;;;;;;;;;;;;;;;;;;;;;;;;;;;;;;;;;;;;;;;;;;;;;!#^{;;;;!]~^^!!;;;;;;;;;;;;;;;;;;;;;;;;;;;;",
";;;;;;;;;;;;;;;;;;;;;;;;;;;;;;;;;;;;;;;;;;;;;;;;;;;;;;;;!^,!,{~~^^^{,{^{;;;;;;;;;;;;;;;;;;;;;;;;;;;;",
";;;;;;;;;;;;;;;;;;;;;;;;;;;;;;;;;;;;;;;;;;;;;;;;;;;;;;;;!;;!!!!!!]~^#^,!;;;;;;;;;;;;;;;;;;;;;;;;;;;;",
";;;;;;;;;;;;;;;;;;;;;;;;;;;;;;;;;;;;;;;;;;;;;;;;;;;;;;;;;;;;;;{~~~{{{~^,;;;;;;;;;;;;;;;;;;;;;;;;;;;;",
";;;;;;;;;;;;;;;;;;;;;;;;;;;;;;;;;;;;;;;;;;;;;;;;;;;;;;;;;;;;;;;;;;!~~,;;;;;;;;;;;;;;;;;;;;;;;;;;;;;;",
";;;;;;;;;;;;;;;;;;;;;;;;;;;;;;;;;;;;;;;;;;;;;;;;;;;;;;;;;;;;!;;;;;;;;;;;;;;;;;;;;;;;;;;;;;;;;;;;;;;;",
";;;;;;;;;;;;;;;;;;;;;;;;;;;;;;;;;;;;;;;;;;;;;;;;;;;;;;;;;;;{@^;;;;{@^;;;;;;;;;;;;;;;;;!#;;;;;;;;;;;;",
";;;;;;;;;;;;;;;;;;;;;;;;;;;;;;;;;;;;;;;;;;;;;;;;;;;;;;;;;;;{+^;;;;~+^;;;;;;;;;;;;;;;;;~+{;;;;;;;;;;;",
";;;;;;;;;;;;;;;;;;;;;;;;;;;;;;;;;;;;;;;;,#{;;;;;;;;;;;;;;;;{+#;;;;~+^;;;;;;;;;;;;;;;;!###;;;;;;;;;;;",
";;;;;;;;;;;;;;;;;;;;;;;;;;;;;;;;;;;;;;;;~+^;;;;;;;;;;;;;;;~~+^;;;;~+^~!;;;;;;;;;;;;;;{#]@{;;;;;;;;;;",
";;;;;;;;;;;;;;;;;;;;;;;;;;;;;;;;;;;;;;;;;{!;;;;;;;;;;;;;;;^~+^;;;;~+^~];;;;;;;;;;;;;;#^;^#;;;;;;;;;;",
";;;;;;;;;;;;;;;;;;;;;;;;;;;;;;;;;;;;;;;;!#{;;;;;;;;;;;;;;;;{+^;;;;~+^;;;;;;;;;;;;;;;,@];!@,;;;;;;;;;",
";;;;;;;;;;;;;;;;;;;;;;;;;;;;;;;;;;;;;;;;!@~;;;;;;;;;;;;;;;;,+^;;;;~+~;;;;;;;;;;;;;;;^#;;;^#;;;;;;;;;",
";;;;;;;;;;;;;;;;;;;;;;;;;;;;;;;;;;;;;;;;!@~;;;;;;;;;;;;;;;;,+#!;;;~+~;;;;;;;;;;;;;;]@^!!]~@,;;;;;;;;",
";;;;;;;;;;;;;;;;;;;;;;;;;;;;;;;;;;;;;;;;!@~;;;;;;;;;;;;;;;;,++^;;;#+~;;;;;;;;;;;;;;^+@#@@++^;;;;;;;;",
";;;;;;;;;;;;;;;;;;;;;;;;;;;;;;;;;;;;;;;;!@~;;;;;;;;;;;;;;;;~+++##@++^!!!;;;;;;;;;;!@~!!!!]^@];;;;;;;",
";;;;;;;;;;;;;;;;;;;;;;;;;;;;;;;;;;;;;;;;!@~;;;;;;;;;;;;;;{#++++++++++@@@#^^^^~{]]{^@!;;;;;]@^;;;;;;;",
";;;;;;;;;;;;;;;;;;;;;;;;;;;;;;;;;;;;;;;;!@~;;;;;;;;;;;!{#@+++++++++++++++++++++@@@@@~!;;;;;^#!;;;;;;",
";;;;;;;;;;;;;;;;;;;;;;;;;;;;;;;;;;;;;;;;!#~;;;;;;;;!^#@++++++++++++++++++++++++++++++#{;;;;;!;;;;;;;",
";;;;;;;;;;;;;;;;;;;;;;;;;;;;;;;;;;;;;;;;;!;;;;;;;;~@++++++++++++++++++++++++++++++++++@^!;;;;;;;;;;;",
";;;;;;;;;;;;;;;;;;;;;;;;;;;;;;;;;;;;;;;;;;;;;;;;]#+++++++++++++@@##@@+++++++++++++++++++@,;;;;;;;;;;",
";;;;;;;;;;;;;;;;;;;;;;;;;;;;;;;;;;;;;;;;;;;;;;;~@++++++++++@@^~]!;;!]^#^^^^####@@@@++++++@~;;;;;;;;;",
";;;;;;;;;;;;;;;;;;;;;;;;;;;;;;;;;;;;;;;;;;;;;;~+++++++++#^{]!;;;;;;;;;;;;;;;;;;!]]{#@+++++@!;;;;;;;;",
";;;;;;;;;;;;;;;;;;;;;;;;;;;;;;;;;;;;;;;;;;;;;~+++++++##^!;;;;;;;;;;;;;;;;;;;;;;;;;;;!{#@+++^;;;;;;;;",
";;;;;;;;;;;;;;;;;;;;;;;;;;;;;;;;;;;;;;;;;;;;~+++++@#~;;;;;;;;;;;;;;;;;;;;;;;;;;;;;;;;;;,@++@,;;;;;;;",
";;;;;;;;;;;;;;;;;;;;;;;;;;;;;;;;;;;;;;;;;;;~++++@~!;;;;;;;;;;;;;;;;;;;;;;;;;;;;;;;;;;;;;]@@+^;;;;;;;",
";;;;;;;;;;;;;;;;;;;;;;;;;;;;;;;;;;;;;;;;;;~+++@^];;;;;;;;;;;;;;;;;;;;;;;;;;;;;;;;;;;;;;;;!,~,;;;;;;;",
";;;;;;;;;;;;;;;;;;;;;;;;;;;;;;;;;;;;;;;;;~++#~!;;;;;;;;;;;;;;;;;;;;;;;;;;;;;;;;;;;;;;;;;;;;;;;;;;;;;",
";;;;;;;;;;;;;;;;;;;;;;;;;;;;;;;;;;;;;;;;;#@~;;;;;;;;;;;;;;;;;;;;;;;;;;;;;;;;;;;;;;;;;;;;;;;;;;;;;;;;",
";;;;;;;;;;;;;;;;;;;;;;;;;;;;;;;;;;;;;;;;;]!;;;;;;;;;;;;;;;;;;;;;;;;;;;;;;;;;;;;;;;;;;;;;;;;;;;;;;;;;",
";;;;;;;;;;;;;;;;;;;;;;;;;;;;;;;;;;;;;;;;;;;;;;;;;;;;;;;;;;;;;;;;;;;;;;;;;;;;;;;;;;;;;;;;;;;;;;;;;;;;",
";;;;;;;;;;;;;;;;;;;;;;;;;;;;;;;;;;;;;;;;;;;;;;;;;;;;;;;;;;;;;;;;;;;;;;;;;;;;;;;;;;;;;;;;;;;;;;;;;;;;",
";;;;;;;;;;;;;;;;;;;;;;;;;;;;;;;;;;;;;;;;;;;;;;;;;;;;;;;;;;;;;;;;;;;;;;;;;;;;;;;;;;;;;;;;;;;;;;;;;;;;",
";;;;;;;;;;;;;;;;;;;;;;;;;;;;;;;;;;;;;;;;;;;;;;;;;;;;;;;;;;;;;;;;;;;;;;;;;;;;;;;;;;;;;;;;;;;;;;;;;;;;",
";;;;;;;;;;;!{^######^];;;;;;;;;;;;;;;;;;;;;;;;;;;;;;;;;;;;;;;;;;;;;;;;;;;;;;;;;;;;;;;;;;;;;;;;;;;;;;",
";;;;;;;;;]^@+++++++++@^;;;;;;;;;;;;;;;;;;;;;;;;;;;;;;;;;;;;;;;;;;;;;;;;;;;;;;;;;;;;;;;;;;;;;;;;;;;;;",
";;;;;;;;{@+++++++++++++#!;;;;;;;;;;;;;;;;;;;;;;;;;;;;;;;;;;;;;;;;;;;;;;;;;;;;;;;;;;;;;;;;;;;;;;;;;;;",
";;;;;;;{@+++++@@^^#@@+++#!;;;;;;;;;;;;;;;;;;;;;;;;;;;;;;;;;;;;;;;;;;;;;;;;;;;;;;;;;;;;;;;;;;;;;;;;;;",
";;;;;;]@++++#^!!;;;!!{@++#;;;;;;;;;;;;;;;;;;;;;;;;;;;;;;;;;;;;;;;;;;;;;;;;;;;;;;;;;;;;;;;;;;;;;;;;;;",
";;;;;;#++++^!;;;;;;;;;!#++~;;;;;;;;;;;;;;;;;;;;;;;;;;;;;;;;;;;;;;;;;;;;;;;;;;;;;;;;;;;;;;;;;;;;;;;;;",
";;;;;]@+++^;;;;;;;;;;;;{++@!;;;;;;;;;;;;;;;;;;;;;;;;;;;;;;;;;;;;;;;;;;;;;;;;;;;;;;;;;;;;;;;;;;;;;;;;",
";;;;]#+++^;;;;;;;;;;;;;!@++~;;;;;;;;;;;;;;;;;;;;;;;;;;;;;;;;;;;;;;;;;;;;;;;;;;;;;;;;;;;;;;;;;;;;;;;;",
";;;]@+++@!;;;;;;;;;;;;;;#++^;;;;;;;;;;;;;;;;;;;;;;;;;;;;;;;;;!!!~#^###^~!!;!;;;;;;;;;;;;;;;;;;;;;;;;",
";;;^++++~;;;;;;;;;;;;;;;#++#;;;;;;;;;;;;;;;;;;;;;;;;;;;;;!~^#@@@++++++++@@#@#~,!;;;;;;;;;;;;;;;;;;;;",
";;;~+++#;;;;;;;;;;;;;;;!@++#!;;;;;;;;;;;;;;;;;;;;;;;;;;~#++++++@####%####@@@+++@#{;;;;;;;;;;;;;;;;;;",
";;;^+++^;;;;;;;;;;;;;;;~+++#;;;;;;;;;;;;;;;;;;;;;;;;]~#+++++++#*$$.$$$.$='')%#@+++@,;;;;;;;;;;;;;;;;",
";;;^+++,;;;;;;;;;;;;;;,@+++~;;;;;;;;;;;;;;;;;;;;;!^@+++++++++%'..............$&@#@+@{;;;;;;;;;;;;;;;",
";;;^+++~;;;;;;;;;;;;;{@+++#;;;;;;;;;;;;;;;;;;;;;{@++++++++++#>................$='%++@~;;;;;;;;;;;;;;",
";;;~+++#;;;;;;;]~^^##++++@];;;;;;;;;;;;;;;;;;;]#++++@@+++++@*...................$*@+++#!;;;;;;;;;;;;",
";;;]@+++{;;;;;^@++++++++@];;;;;;;;;;;;;;;;;;,^@+++#{!,+++++%=........>%%&&=......$#++++^;;;;;;;;;;;;",
";;;!#+++#;;;;;]#+++++++^!;;;;;;;;;;;;;;;;;;~@++@#{;;;!@++++*........$%++++#).....$%++++@;;;;;;;;;;;;",
";;;;^+++@];;;;;!{^#@@#{;;;;;;;;;;;;;;;;;;!^@+@^];;;;;]@++++)........&@+++++#$....$%++++^;;;;;;;;;;;;",
";;;;,++++~;;;;;;;;;;;;;;;;;;;;;;;;;;;;;;;#++@{;;;;;;;{+++++).......'@++++++@&.....&+++#!;;;;!;;;;;;;",
";;;;!#+++#;;;;;;;;;;;;;;;;;;;;;;;;;;;;;;,++#!;;;;;;;;{+++++).......-@+++++++%$....&+++~;;;;^@];;;;;;",
";;;;;^+++#;;;;;;;;;;;;;;;;;;;;;;;;;;;;;;,@^!;;;;;;;;;~+++++&.......=#+++++++%....$&++@];;;;#+^;;;;;;",
";;;;;]@++@;;;;;;;;;;;;;;;;;;;;;;;;;;;;;;!!;;;;;;;;;;;~+++++&........&++++++#'.....&++@!;;;;#+@,;;;;;",
";;;;;;#++@];;;;;;;;;;;;;;;;;;;;;;;;;;;;;;;;;;;;;;;;;;~+++++%$.......=#++++@&......%++@!;;;!@++^;;;;;",
";;;;;;^+++{;;;;;;;;;;;;;;;;;;;;;;;;;;;;;;;!~;;;;;;;;;{+++++#$........-%@+@&$.....$%++@!;;;~+++~;;;;;",
";;;;;;{+++#;;;;;;;;;;;;;;;;;;;;;;;;;;;;;;;]+^,;;;;;;;!@++++@-.........$-*-.......$%+++~!]#+++#!;;;;;",
";;;;;;!@++@];;;;;;;;;;;;;;;;;;;;;;;;;;;;;;;#++#];;;;;;#+++++%$..................$-@++++@@+++#!;;;;;;",
";;;;;;!@+++^;;;;;;;;;;;;;;;;;;;;;;;;;;;;;;;;~@+@{;;;;;^+++++@-.................$&#++++++++@^!;;;;;;;",
";;;;;;!@+++#;;;;;;;;;;;;;;;;;;;;;;;;;;;;;;;;;]^+@^];;;^++++++%-..............$'%@+++++++@~!;;;;;;;;;",
";;;;;;;#+++@!;;;;;;;;;;;;;;;;;;;;;;;;;;;;;;;;;;~@+@{;!#+++++++#)$.........$*&##+++++++@^];;;;;;;;;;;",
";;;;;;;#+++@!;;;;;;;;;;;;;;;;;;;;;;;;;;;;;;;;;;;~@+@#@+++++++++@&''>>=--&%%@+++++++++@~;;;;;;;;;;;;;",
";;;;;;;#+++@,;;;;;;;;;;;;;;;;;;;;;;;;;;;;;;;;;;;;]^+++++++++++++@@####@@+++++++++++@#,;;;;;;;;;;;;;;",
";;;;;;;^+++@,;;;;;;;;;;;;;;;;;;;;;;;;;;;;;;;;;;;;;;{#@+++++++++++++++++++++++++++@^!;;;;;;;;;;;;;;;;",
";;;;;;;#+++@];;;;;;;;;;;;;;;;;;;;;;;;;;;;;;;;;;;;;;;;!{^@@++++++++++++++++++++@@#];;;;;;;;;;;;;;;;;;",
";;;;;;!@+++@!;;;;;;;;;;;;;;;;;;;;;;;;;;;;;;;;;;;;;;;;;;;;]{~#@@+++++++++++++@~!;;;;;;;;;;;;;;;;;;;;;",
";;;;;;!@+++@;;;;;;;;;;;;;;;;;;;;;;;;;;;;;;;;;;;;;;;;;;;;;;;;;;!{~###@##@@^{,!;;;;;;;;;;;;;;;;;;;;;;;",
";;;;;;]++++#;;;;;;;;;;;;;;;;;;;;;;;;;;;;;;;;;;;;;;;;;;;;;;;;;;;;;;;;;;;;];;;;;;;;;;;;;;;;;;;;;;;;;;;",
";;;;;;~++++#;;;;;;;;;;;;;;;;;;;;;;;;;;;;;;;;;;;;;;;;;;;;;;;;;;;;;;;;;;;;;;;;;;;;;;;;;;;;;;;;;;;;;;;;",
";;;;;;~++++^;;;;;;;;;;;;;;;;;;;;;;;;;;;;;;;;;;;;;;;;;;;;;;;;;;;;;;;;;;;;;;;;;;;;;;;;;;;;;;;;;;;;;;;;",
";;;;;;]@+++~;;;;;;;;;;;;;;;;;;;;;;;;;;;;;;;;;;;;;;;;;;;;;;;;;;;;;;;;;;;;;;;;;;;;;;;;;;;;;;;;;;;;;;;;",
";;;;;;!@+++{;;;;;;;;;;;;;;;;;;;;;;;;;;;;;;;;;;;;;;;;;;;;;;;;;;;;;;;;;;;;;;;;;;;;;;;;;;;;;;;;;;;;;;;;",
";;;;;;;#+++{;;;;;;;;;;;;;;;;;;;;;;;;;;;;;;;;;;;;;;;;;;;;;;;;;;;;;;;;;;;;;;;;;;;;;;;;;;;;;;;;;;;;;;;;",
";;;;;;;^+++,;;;;;;;;;;;;;;;;;;;;;;;;;;;;;;;;;;;;;;;;;;;;;;;;;;;;;;;;;;;;;;;;;;;;;;;;;;;;;;;;;;;;;;;;",
";;;;;;;^+++{;;;;;;;;;;;;;;;;;;;;;;;;;;;;;;;;;;;;;;;;;;;;;;;;;;;;;;;;;;;;;;;;;;;;;;;;;;;;;;;;;;;;;;;;",
";;;;;;;^+++{;;;;;;;;;;;;;;;;;;;;;;;;;;;;;;;;;;;;;;;;;;;;;;;;;;;;;;;;;;;;;;;;;;;;;;;;;;;;;;;;;;;;;;;;",
";;;;;;;~+++{;;;;;;;;;;;;;;;;;;;;;;;;;;;;;;;;;;;;;;;;;;;;;;;;;;;;;;;;;;;;;;;;;;;;;;;;;;;;;;;;;;;;;;;;",
";;;;;;;~+++~;;;;;;;;;;;;;;;;;;;;;;;;;;;;;;;;;;;;;;;;;;;;;;;;;;;;;;;;;;;;;;;;;;;;;;;;;;;;;;;;;;;;;;;;",
";;;;;;;~+++#;;;;;;;;;;;;;;;;;;;;;;;;;;;;;;;;;;;;;;;;;;;;;;;;;;;;;;;;;;;;;;;;;;;;;;;;;;;;;;;;;;;;;;;;",
";;;;;;;{+++@!;;;;;;;;;;;;;{#^!;;;;;;;;;;;;;;;;;;;;;;;;;;;;;;;;;;;;;;;;;;;;;;;;;;;;;;;;;;;;;;;;;;;;;;",
";;;;;;;!++++{;;;;;;;;;;;;;^++#;;;;;;;;;;;;;;;;;;;;;;;;;;;;;;;;;;;;;;;;;;;;;;;;;;;;;;;;;;;;;;;;;;;;;;",
";;;;;;;!@+++#;;;;;;;;;;;;!@++#;;;;;;;;;;;;;;;;;;;;;;;;;;;;;;;;;;;;;;;;;;;;;;;;;;;;;;;;;;;;;;;;;;;;;;",
";;;;;;;;~@+++{;;;;;;;;;;;^++@{;;;;;;;;;;;;;;;;;;;;;;;;;;;;;;;;;;;;;;;;;;;;;;;;;;;;;;;;;;;;;;;;;;;;;;",
";;;;;;;;;{@++@];;;;;;;;;,@++^;;;;;;;;;;;;;;;;;;;;;;;;;;;;;;;;;;;;;;;;;;;;;;;;;;;;;;;;;;;;;;;;;;;;;;;",
";;;;;;;;;;]#++@~,;;;;;,{#++^;;;;;;;;;;;;;;;;;;;;;;;;;;;;;;;;;;;;;;;;;;;;;;;;;;;;;;;;;;;;;;;;;;;;;;;;",
";;;;;;;;;;;!@++++@#~{^@++@~;;;;;;;;;;;;;;;;;;;;;;;;;;;;;;;;;;;;;;;;;;;;;;;;;;;;;;;;;;;;;;;;;;;;;;;;;",
";;;;;;;;;;;;]#@#@+++++++#,;;;;;;;;;;;;;;;;;;;;;;;;;;;;;;;;;;;;;;;;;;;;;;;;;;;;;;;;;;;;;;;;;;;;;;;;;;",
";;;;;;;;;;;;;!!;!~#@+@#{;;;;;;;;;;;;;;;;;;;;;;;;;;;;;;;;;;;;;;;;;;;;;;;;;;;;;;;;;;;;;;;;;;;;;;;;;;;;",
";;;;;;;;;;;;;;;;;;;]{!;;;;;;;;;;;;;;;;;;;;;;;;;;;;;;;;;;;;;;;;;;;;;;;;;;;;;;;;;;;;;;;;;;;;;;;;;;;;;;",
";;;;;;;;;;;;;;;;;;;;;;;;;;;;;;;;;;;;;;;;;;;;;;;;;;;;;;;;;;;;;;;;;;;;;;;;;;;;;;;;;;;;;;;;;;;;;;;;;;;;",
";;;;;;;;;;;;;;;;;;;;;;;;;;;;;;;;;;;;;;;;;;;;;;;;;;;;;;;;;;;;;;;;;;;;;;;;;;;;;;;;;;;;;;;;;;;;;;;;;;;;"};
