/* XPM */
static char * minitext_xpm[] = {
"23 25 198 2",
"  	c None",
". 	c #4F4F4F",
"+ 	c #838383",
"@ 	c #848484",
"# 	c #878787",
"$ 	c #818181",
"% 	c #858585",
"& 	c #E4E4E4",
"* 	c #FFFFFF",
"= 	c #FEFEFE",
"- 	c #FDFDFD",
"; 	c #EFEFEF",
"> 	c #BEBEBE",
", 	c #EDEDED",
"' 	c #F9F9F9",
") 	c #FCFCFC",
"! 	c #F5F5F5",
"~ 	c #FBFBFB",
"{ 	c #FAFAFA",
"] 	c #F6F6F6",
"^ 	c #E0E0E0",
"/ 	c #B1B1B1",
"( 	c #F0F0F0",
"_ 	c #E8E8E8",
": 	c #A8A8A8",
"< 	c #9D9D9D",
"[ 	c #BDBDBD",
"} 	c #A4A4A4",
"| 	c #BABABA",
"1 	c #CBCBCB",
"2 	c #DCDCDC",
"3 	c #F8F8F8",
"4 	c #FBFBFA",
"5 	c #CCCCCC",
"6 	c #CACACA",
"7 	c #939392",
"8 	c #E7E7E7",
"9 	c #C7C7C7",
"0 	c #D9D9D9",
"a 	c #E1E1E1",
"b 	c #EAEAEA",
"c 	c #E9E9E9",
"d 	c #EBEBEB",
"e 	c #D6D6D6",
"f 	c #ECECEC",
"g 	c #CDCDCD",
"h 	c #F1F1F1",
"i 	c #D4D4D4",
"j 	c #999999",
"k 	c #7D7D7D",
"l 	c #737373",
"m 	c #111111",
"n 	c #FDFDFC",
"o 	c #F8F8F7",
"p 	c #F5F5F4",
"q 	c #DADADA",
"r 	c #C7C7C6",
"s 	c #171717",
"t 	c #B8B8B8",
"u 	c #B9B9B9",
"v 	c #A1A1A1",
"w 	c #ACACAC",
"x 	c #BCBCBB",
"y 	c #D1D1D1",
"z 	c #BCBCBC",
"A 	c #F6F6F5",
"B 	c #F4F4F4",
"C 	c #1B1B1B",
"D 	c #E9E9E8",
"E 	c #B5B5B5",
"F 	c #DBDBDA",
"G 	c #DADAD9",
"H 	c #D8D8D8",
"I 	c #C5C5C5",
"J 	c #CCCCCB",
"K 	c #D2D2D2",
"L 	c #C9C9C8",
"M 	c #CACAC9",
"N 	c #F2F2F1",
"O 	c #E5E5E4",
"P 	c #E4E4E3",
"Q 	c #D4D4D3",
"R 	c #D7D7D7",
"S 	c #CECECE",
"T 	c #B6B6B6",
"U 	c #DEDEDE",
"V 	c #B4B4B3",
"W 	c #CFCFCE",
"X 	c #C1C1C1",
"Y 	c #F2F2F0",
"Z 	c #DFDFDE",
"` 	c #EEEEEE",
" .	c #BBBBBB",
"..	c #D9D9D8",
"+.	c #9E9E9D",
"@.	c #A8A8A7",
"#.	c #B7B7B6",
"$.	c #D1D1D0",
"%.	c #F0F0EF",
"&.	c #EFEFEE",
"*.	c #EEEEED",
"=.	c #E6E6E5",
"-.	c #C4C4C3",
";.	c #D3D3D2",
">.	c #D5D5D4",
",.	c #B3B3B3",
"'.	c #C6C6C5",
").	c #DCDCDB",
"!.	c #BFBFBE",
"~.	c #B5B5B4",
"{.	c #D0D0CF",
"].	c #CDCDCC",
"^.	c #EDEDEC",
"/.	c #EDEDEB",
"(.	c #E3E3E2",
"_.	c #DDDDDD",
":.	c #F7F7F6",
"<.	c #F4F4F3",
"[.	c #F3F3F3",
"}.	c #F2F2F2",
"|.	c #F1F1F0",
"1.	c #EFEFED",
"2.	c #ECECEA",
"3.	c #EBEBEA",
"4.	c #D7D7D6",
"5.	c #EAEAE9",
"6.	c #F7F7F7",
"7.	c #C2C2C1",
"8.	c #CECECD",
"9.	c #B1B1B0",
"0.	c #D8D8D7",
"a.	c #AEAEAD",
"b.	c #BCBCBA",
"c.	c #EAEAE8",
"d.	c #E2E2E1",
"e.	c #E7E7E6",
"f.	c #C3C3C3",
"g.	c #BDBDBC",
"h.	c #C3C3C2",
"i.	c #B2B2B1",
"j.	c #C0C0BF",
"k.	c #C1C1C0",
"l.	c #DEDEDD",
"m.	c #E8E8E7",
"n.	c #E1E1E0",
"o.	c #BEBEBD",
"p.	c #ADADAD",
"q.	c #CBCBCA",
"r.	c #C0C0BE",
"s.	c #D6D6D4",
"t.	c #BABAB8",
"u.	c #B0B0AF",
"v.	c #CBCBC9",
"w.	c #C8C8C7",
"x.	c #E2E2E2",
"y.	c #ADADAC",
"z.	c #B3B3B2",
"A.	c #979796",
"B.	c #A1A1A0",
"C.	c #AFAFAE",
"D.	c #C3C3C1",
"E.	c #B0B0AE",
"F.	c #C9C9C7",
"G.	c #E6E6E4",
"H.	c #E5E5E3",
"I.	c #ECECEB",
"J.	c #EBEBE9",
"K.	c #E9E9E7",
"L.	c #E8E8E6",
"M.	c #E7E7E5",
"N.	c #DFDFDD",
"O.	c #D6D6D5",
"P.	c #DBDBD9",
"Q.	c #DCDCDA",
"R.	c #DDDDDB",
"S.	c #CDCDCB",
"T.	c #E4E4E2",
"U.	c #BABAB9",
"V.	c #BEBEBC",
"W.	c #C5C5C3",
"X.	c #B4B4B2",
"Y.	c #D3D3D1",
"Z.	c #C5C5C4",
"`.	c #D1D1CF",
" +	c #CACAC8",
".+	c #E3E3E1",
"++	c #D7D7D5",
"@+	c #D2D2D1",
"#+	c #D5D5D3",
"$+	c #CECECC",
"%+	c #E2E2E0",
"&+	c #D5D5D5",
"*+	c #E1E1DF",
"=+	c #D2D2D0",
"-+	c #6F6F6F",
";+	c #161616",
">+	c #191919",
",+	c #151515",
". + @ @ @ @ @ @ @ @ @ @ @ @ @ @ # $           ",
"% & * * * * * * * * = = = = = = - ; >         ",
"% , * - ' ) ! ~ - { - = ] = = = ) ^ ) /       ",
"% ( * _ : : < > [ > > } | 1 2 3 4 5 6 [ 7     ",
"% 8 * ! 9 0 a b a c d e f g 8 h ' i j k l m   ",
"% b * = = - - - n ) ) ) ~ ~ { ' 3 o p q r s   ",
"% ; = h t 2 > 2 u v ^ w x y z e A p B b q C   ",
"% D - ( E c 5 F > G H I J u K L M _ N O 0 C   ",
"% P ) ; 9 Q H R S R T U V K u W X Y ( Z 0 C   ",
"% f ~ ` E 0  ...E +.q @.#.1 #.$.%.&.*.=...C   ",
"% b { ` -.;.>.,.y '.).W G !.~.{.].^./.(.H C   ",
"% _.{ :.A p <.[.}.N |.( %.1., ^./.2.3.4.H C   ",
"@ 5.6.c 7.8.y {.9 $.9.0.a.J ,.L b.c.D d.R C   ",
"@ _ ! e.a.Z f.$.E {.W g.h.i.L j.k.l.m.n.4.C   ",
"@ G A e.o.J 8.p.q.r.s.L Q t.u.v.w.e.=.Q R C   ",
"@ x.[.P y.S z.8.y.A.$.B.C.D.E.F.=.G.H.).4.C   ",
"@ O h ^.I.3.3.J.c.K.m.L.e.M.G.O H.H.P N.e C   ",
"@ G h =.O.P.Q.P.O.G J R.q.4.S.>.{.T.T.O.4.C   ",
"@ G %.l.U.V.U.W.~.-.X.j.7.Y.Z.`. +T..+++e C   ",
"@ n.^.(.Q @+S.++J #+s.$+T.T.(.(..+.+%+R.&+C   ",
"@ q ^.M.M.=.O H.P T.T.(..+.+.+.+%+%+*+4.O.C   ",
"@ ;.1.G.H.P T.T.T.T..+.+.+.+%+%+*+*+*+=+4.C   ",
"-+>.;.$.$.$.$.$.`.{.{.{.{.{.W W W W W @+#.;+  ",
"  >+>+>+>+>+>+>+>+>+>+>+>+>+>+>+>+>+>+>+,+    ",
"                                              "};
