/* XPM */
static char * miniconfig_xpm[] = {
"24 24 197 2",
"  	c None",
". 	c #000000",
"+ 	c #525252",
"@ 	c #F4F4F4",
"# 	c #F3F3F3",
"$ 	c #F2F2F2",
"% 	c #F1F1F1",
"& 	c #F0F0F0",
"* 	c #EFEFEF",
"= 	c #EEEEEE",
"- 	c #EDEDED",
"; 	c #ECECEC",
"> 	c #EAEAEA",
", 	c #C5C5C5",
"' 	c #7A7A7A",
") 	c #D1D1D1",
"! 	c #CACACA",
"~ 	c #C9C9C9",
"{ 	c #C7C7C7",
"] 	c #C6C6C6",
"^ 	c #C4C4C4",
"/ 	c #C3C3C3",
"( 	c #C2C2C2",
"_ 	c #C0C0C0",
": 	c #D8D8D8",
"< 	c #D2D2D2",
"[ 	c #2F2F2F",
"} 	c #555555",
"| 	c #3F464D",
"1 	c #5C626A",
"2 	c #7D7D7D",
"3 	c #5C5C5C",
"4 	c #767676",
"5 	c #2A2A2A",
"6 	c #B6BCC1",
"7 	c #FAFAFA",
"8 	c #838D96",
"9 	c #929DA6",
"0 	c #95A0A8",
"a 	c #8A959E",
"b 	c #7E8A93",
"c 	c #74808A",
"d 	c #D6D6D6",
"e 	c #A6B2BE",
"f 	c #B8C5D4",
"g 	c #AAB2B8",
"h 	c #C6CED5",
"i 	c #CAD2D8",
"j 	c #C6CED4",
"k 	c #5C5D5C",
"l 	c #686764",
"m 	c #5D646A",
"n 	c #747474",
"o 	c #D3D3D3",
"p 	c #BEC5CA",
"q 	c #CCD0D2",
"r 	c #BDC3C8",
"s 	c #CDD2D4",
"t 	c #B4A062",
"u 	c #C9CDD0",
"v 	c #8E9296",
"w 	c #9E9C98",
"x 	c #615F5A",
"y 	c #6B6B6B",
"z 	c #CFCFCF",
"A 	c #EBEBEB",
"B 	c #515151",
"C 	c #ABB4BB",
"D 	c #C1C9CF",
"E 	c #D1D7DC",
"F 	c #CACFD4",
"G 	c #5A584D",
"H 	c #686968",
"I 	c #606265",
"J 	c #B5B4B4",
"K 	c #7E7C77",
"L 	c #5D5D5D",
"M 	c #C8C8C8",
"N 	c #505050",
"O 	c #98A3AC",
"P 	c #ABB4BD",
"Q 	c #BCC4CB",
"R 	c #C6CDD4",
"S 	c #959B9F",
"T 	c #8A8883",
"U 	c #D1CEC7",
"V 	c #D4D1CB",
"W 	c #C2BDB4",
"X 	c #4C4C4A",
"Y 	c #B8B8B8",
"Z 	c #E8E8E8",
"` 	c #818E98",
" .	c #8D99A3",
"..	c #99A4AE",
"+.	c #A1ACB6",
"@.	c #A2ACB6",
"#.	c #6E777D",
"$.	c #33373B",
"%.	c #2C3034",
"&.	c #B4B3B2",
"*.	c #C4C1BB",
"=.	c #4B4A48",
"-.	c #252525",
";.	c #E7E7E7",
">.	c #A2A2A2",
",.	c #777777",
"'.	c #757575",
").	c #737373",
"!.	c #727272",
"~.	c #666666",
"{.	c #B4B4B3",
"].	c #C2C0B9",
"^.	c #222120",
"/.	c #E2E2E2",
"(.	c #E4E4E4",
"_.	c #DADADA",
":.	c #DDDDDD",
"<.	c #DEDEDE",
"[.	c #D0D0D0",
"}.	c #CCCCCC",
"|.	c #D7D1AB",
"1.	c #7E7856",
"2.	c #9D9C9B",
"3.	c #B8B4AC",
"4.	c #666460",
"5.	c #6F6D6B",
"6.	c #32312E",
"7.	c #8C8C8C",
"8.	c #939393",
"9.	c #959595",
"0.	c #828282",
"a.	c #909090",
"b.	c #838383",
"c.	c #919191",
"d.	c #8F8F8F",
"e.	c #7C7C7C",
"f.	c #282828",
"g.	c #B4B2AE",
"h.	c #AEA9A0",
"i.	c #5D5A56",
"j.	c #94918B",
"k.	c #3E3E3E",
"l.	c #363636",
"m.	c #373737",
"n.	c #383838",
"o.	c #393939",
"p.	c #343434",
"q.	c #706E6D",
"r.	c #2B2B2B",
"s.	c #323230",
"t.	c #B1AEAA",
"u.	c #3F3E3C",
"v.	c #2C2C2C",
"w.	c #E6E6E6",
"x.	c #DCDCDC",
"y.	c #E3E3E3",
"z.	c #E1E1E1",
"A.	c #BABABA",
"B.	c #141414",
"C.	c #B6B6B6",
"D.	c #D7D7D7",
"E.	c #BCBCBC",
"F.	c #BDBDBD",
"G.	c #CDCDCD",
"H.	c #B2B2B2",
"I.	c #9D9D9D",
"J.	c #B1B1B1",
"K.	c #9F9F9F",
"L.	c #707070",
"M.	c #3D3D3D",
"N.	c #DBDBDB",
"O.	c #D4D4D4",
"P.	c #E0E0E0",
"Q.	c #BFBFBF",
"R.	c #888888",
"S.	c #1C1C1C",
"T.	c #B5B5B5",
"U.	c #D5D5D5",
"V.	c #B9B9B9",
"W.	c #B3B3B3",
"X.	c #B0B0B0",
"Y.	c #969696",
"Z.	c #BBBBBB",
"`.	c #AFAFAF",
" +	c #B4B4B4",
".+	c #929292",
"++	c #585858",
"@+	c #ADADAD",
"#+	c #8A8A8A",
"$+	c #878787",
"%+	c #868686",
"&+	c #858585",
"*+	c #808080",
"=+	c #7E7E7E",
"-+	c #6F6F6F",
";+	c #6C6C6C",
">+	c #4C4C4C",
"                                                ",
"          . . . . . . . . . . . . .             ",
"        + @ @ # $ % & & * = - ; > , .           ",
"        ' % ) ! ~ { ] ^ / ( _ , : < [           ",
"        ' & } | 1 2 2 2 2 2 2 3 4 : 5           ",
"        ' * + 6 7 8 9 0 9 a b c 4 d 5           ",
"        ' = + e f g h i j k l m n o 5           ",
"        ' ; + p q r s t u v w x y z 5           ",
"        ' A B C D E F G H I J K L M 5           ",
"        ' > N O P Q R S T U V W X Y 5           ",
"        ' Z B `  ...+.@.#.$.%.&.*.=.-.          ",
"        ' ;.>.,.4 4 4 4 '.).!.~.{.].^.          ",
"        ' /./.(._.:.<.[.o [.}.|.1.2.3.4.5.6.    ",
"        . 7.8.9.7.0.a.b.8.c.d.e.!.f.g.h.i.j..   ",
"          . k.l.l.m.m.n.o.n.o.n.p.. q.i.+ r..   ",
"        . . . . . . . . . . . . . . s.t.u.v.    ",
"      + $ w.% :.& /.$ $ x.y.z.<.x.: A.B.p..     ",
"    . C.: < D.< E.D.F.A.( G.( H.I.J.K.L.k..     ",
"    M.& <.N.O.O.[._ ] ~ M P.Q.G._ E.>.R.S.      ",
"    T.] ( U.E.V.T.W.X.>.^ Y.Z.`.K.e. +.+++.     ",
"  . @+#+#+R.$+%+&+b.0.*+=+e.' ,.n !.-+;+>+.     ",
"    . . . . . . . . . . . . . . . . . . .       ",
"                                                ",
"                                                "};
