/* XPM */
static char * mtg_xpm[] = {
"72 49 234 2",
"  	c None",
". 	c #FCDFDF",
"+ 	c #EF5E60",
"@ 	c #EB3234",
"# 	c #F06567",
"$ 	c #E81A1C",
"% 	c #F27F81",
"& 	c #F17273",
"* 	c #7A749F",
"= 	c #665E90",
"- 	c #76709C",
"; 	c #756F9C",
"> 	c #746C9A",
", 	c #5D5D92",
"' 	c #FFA4A2",
") 	c #F5A1A2",
"! 	c #F49091",
"~ 	c #F38687",
"{ 	c #FBD9DA",
"] 	c #F9C3C3",
"^ 	c #F17678",
"/ 	c #F17374",
"( 	c #F8B5B6",
"_ 	c #F7ADAE",
": 	c #EC4547",
"< 	c #F6A3A4",
"[ 	c #F6A8A9",
"} 	c #F38788",
"| 	c #FBD2D3",
"1 	c #F7B4B4",
"2 	c #F17475",
"3 	c #F06E6F",
"4 	c #ED4A4C",
"5 	c #706998",
"6 	c #585186",
"7 	c #686292",
"8 	c #666091",
"9 	c #676192",
"0 	c #4E4D88",
"a 	c #FF1C13",
"b 	c #E61A1D",
"c 	c #EB3839",
"d 	c #F6A7A8",
"e 	c #F06A6B",
"f 	c #ED4849",
"g 	c #FF3932",
"h 	c #F38889",
"i 	c #F8BABA",
"j 	c #F06B6C",
"k 	c #EC4345",
"l 	c #F59FA0",
"m 	c #EA2C2E",
"n 	c #F3898A",
"o 	c #F38B8C",
"p 	c #F17071",
"q 	c #F27C7D",
"r 	c #FBD7D8",
"s 	c #F59798",
"t 	c #A39FBC",
"u 	c #9590B3",
"v 	c #A19DBB",
"w 	c #A09CBA",
"x 	c #9E99B9",
"y 	c #8D8DB2",
"z 	c #FF3C34",
"A 	c #F49596",
"B 	c #E92022",
"C 	c #F38384",
"D 	c #F48F90",
"E 	c #4F4780",
"F 	c #5F588C",
"G 	c #5E568A",
"H 	c #484784",
"I 	c #F17879",
"J 	c #E92728",
"K 	c #EB3C3E",
"L 	c #EA292B",
"M 	c #E92325",
"N 	c #ED4D4F",
"O 	c #EC3D3F",
"P 	c #B1AEC7",
"Q 	c #A8A4C0",
"R 	c #B2AFC8",
"S 	c #B2AEC7",
"T 	c #A1A1C0",
"U 	c #EE5759",
"V 	c #443C78",
"W 	c #534C83",
"X 	c #524B82",
"Y 	c #524881",
"Z 	c #39387A",
"` 	c #FF3B33",
" .	c #F27B7C",
"..	c #F8B7B8",
"+.	c #ED4F51",
"@.	c #EA2B2D",
"#.	c #EF6364",
"$.	c #AFABC5",
"%.	c #B0ADC6",
"&.	c #B0ABC5",
"*.	c #9F9FBF",
"=.	c #EA2F30",
"-.	c #251B62",
";.	c #393070",
">.	c #372E6F",
",.	c #382F6F",
"'.	c #372B6D",
").	c #1B1A66",
"!.	c #FF3831",
"~.	c #F8BDBD",
"{.	c #E71B1D",
"].	c #F59A9A",
"^.	c #D5D3E0",
"/.	c #CDCCDC",
"(.	c #D7D6E2",
"_.	c #D6D5E2",
":.	c #D5D4E1",
"<.	c #D6D4E1",
"[.	c #FF2016",
"}.	c #E41C1F",
"|.	c #F35152",
"1.	c #E61C1E",
"2.	c #E61D1F",
"3.	c #E71D1F",
"4.	c #F44A4B",
"5.	c #E71C1E",
"6.	c #36366A",
"7.	c #12124E",
"8.	c #27275E",
"9.	c #262661",
"0.	c #32316F",
"a.	c #2A2A67",
"b.	c #272767",
"c.	c #14145C",
"d.	c #FF6C6C",
"e.	c #FF1D1D",
"f.	c #FF9595",
"g.	c #FF3030",
"h.	c #FF2F2F",
"i.	c #FF5D5D",
"j.	c #FE1515",
"k.	c #F31214",
"l.	c #FD0A0A",
"m.	c #FFB5B5",
"n.	c #EE5557",
"o.	c #F28283",
"p.	c #F9FBFB",
"q.	c #F6F9F9",
"r.	c #F1F1EC",
"s.	c #EEEDEA",
"t.	c #F8F8F6",
"u.	c #FEFDFD",
"v.	c #F6F6F3",
"w.	c #E2E2DD",
"x.	c #FCFCFC",
"y.	c #E7E8D9",
"z.	c #EBEDED",
"A.	c #EDF4F4",
"B.	c #DAE5E4",
"C.	c #B6B6B6",
"D.	c #EDEDED",
"E.	c #E1E7E7",
"F.	c #FCFBFB",
"G.	c #E7F2F2",
"H.	c #DFDFDE",
"I.	c #E6E5E5",
"J.	c #E6EDED",
"K.	c #E2EEEE",
"L.	c #FBFCFC",
"M.	c #E8E8E8",
"N.	c #EBEAEA",
"O.	c #F0F0F0",
"P.	c #EAF0F0",
"Q.	c #FCC6C7",
"R.	c #F6A6A7",
"S.	c #BAB9B9",
"T.	c #A4A2A3",
"U.	c #C3C1C3",
"V.	c #C0BEBF",
"W.	c #C9C8C8",
"X.	c #A8A6A8",
"Y.	c #DADADA",
"Z.	c #CCCBCC",
"`.	c #C8C7C7",
" +	c #CAC8C5",
".+	c #ACABAB",
"++	c #BCC2C2",
"@+	c #C7C5C5",
"#+	c #E3E2E2",
"$+	c #B1AEAE",
"%+	c #C5C4C4",
"&+	c #C1C6C6",
"*+	c #C8CDCD",
"=+	c #C5C0C0",
"-+	c #CCC9C9",
";+	c #E1E0E0",
">+	c #CDCCCC",
",+	c #C3C1C1",
"'+	c #BDB9B9",
")+	c #B6B0B0",
"!+	c #CDCFCF",
"~+	c #C6CBCB",
"{+	c #F3F3F3",
"]+	c #AFADAD",
"^+	c #BFBDBD",
"/+	c #CBC9C9",
"(+	c #C2C3C3",
"_+	c #BABEBD",
":+	c #E3EAEA",
"<+	c #F3080A",
"[+	c #DDDDDD",
"}+	c #D6D5D5",
"|+	c #B4B3B3",
"1+	c #D0CFCF",
"2+	c #CBCACA",
"3+	c #A8A7A7",
"4+	c #D2D1D1",
"5+	c #B1AFB0",
"6+	c #CCCBCB",
"7+	c #B3B1B1",
"8+	c #AAA9A9",
"9+	c #9D9B9B",
"0+	c #B8B7B7",
"a+	c #CED1D0",
"b+	c #FEF6F6",
"c+	c #F41F21",
"d+	c #D4D3D3",
"e+	c #CECDCD",
"f+	c #F9F9F9",
"g+	c #EEEDED",
"h+	c #EFEEEE",
"i+	c #FAF9F9",
"j+	c #EC4041",
"k+	c #EF5C5D",
"                                                                                                                                                ",
"                                                                                                                                                ",
"                                                                                                                                                ",
"                                                                                                                                                ",
"                                                                                                                                                ",
"                                                                                                                                                ",
"                                                                                                                                                ",
"                                                                                                                                                ",
"                                                                                                                                                ",
"                                                                                                                                                ",
"                                                                                                                                                ",
"                                                                                                                                                ",
"                                                                                                                                                ",
"                                                                                                                                                ",
"                                                                                          . + @                                                 ",
"                                                                                          # $ $                                                 ",
"                                                                                          % $ $                                 &               ",
"          * = - ; ; ; ; ; ; ; ; ; - > ,     ' )     ! # # ~ {     ] ^ + / (           & _ : $ $ < [ } |             1 2 + 3 ( & $ 4 &           ",
"          5 6 7 8 8 8 8 8 8 8 8 8 9 = 0     a b [ c $ $ $ $ $ d ^ $ $ $ $ $ e         & $ $ $ $ $ $ $ e         & f $ $ $ $ $ $ $ @ &           ",
"                                            g b $ $ h i j $ $ $ $ k 1 l m $ $ )       & $ $ $ $ n o p ]         k $ $ q r s $ $ $ &             ",
"          t u v w w w w w w w w w w x y     z b $ &       A $ $ p       & B $ :           C $ $               ] $ $ A       ] $ $ D             ",
"          7 E F F F F F F F F F F F G H     z b I         & $ $ &         e $ m           2 $ J               C $ $           K $ k             ",
"                                            g b &         & $ $ &         h $ L           & $ J               ^ $ M           N $ O             ",
"          P Q R P P P P P P P P P P S T     g b 3         & $ $ &         n $ m           & $ J               < $ $ &         B $ U             ",
"          G V W X X X X X X X X X X Y Z     ` b 3         & $ $ &         h $ m           & $ J               & $ $ :        .$ $ ..            ",
"                                            g b 3         & $ $ &         h $ m           & $ J                 $ $ $ M +.@.$ $ #.              ",
"          $.Q P %.%.%.%.%.%.%.%.%.%.&.*.    ` b 3         & $ $ &         h $ m           3 $ =.                  $ $ $ $ $ $ $                 ",
"          V -.;.>.>.>.>.>.,.>.>.>.,.'.).    ` b 3         & $ $ &         h $ m            .$ $                 n $ !                           ",
"                                            !.b 3         & $ $ &         ~ $ @.          ~.{.$ +.& & & &     & $ $     ].e +.U [               ",
"          ^./.(._._._._.:.^.^.<._._.<./.    [.}.|.        & 1.2.&         2 3.3.            4.2.3.5.3.3.l       L $ $ $ $ $ $ $ $ +             ",
"          6.7.8.9.9.8.8.8.0.a.8.b.b.9.c.    d.e.f.        & g.h.&         ' e.i.              d.j.k.l.j.m.      & & 4 n.o.1 1 +.$ $ i           ",
"                                                  p.              q.                                                            M $ <           ",
"          r.s.t.    u.v.v.w.x.r.t.  y.s.  z.  A.B.C.D.  E.u.F.G.z.H.F.I.  J.K.  x.L.  M.N.O.z.A.A.      P.E.    Q.A           & $ $ R.          ",
"          S.T.U.V.D.W.X.Y.Z.V.`.O.  V.H. +.+++@+#+$+%+W.S.&+*+=+-+;+>+%+,+'+)+!+~+t.{+]+^+S./+=+(+&+I.-+'+_+:+  <+{.=.! i ( I $ $ $ &           ",
"          [+`.}+|+1+,+`.`.2+3+I.    4+[+5+`.V.4+{+6+Y.7+I.%+,+}+'+W.@+}+|+8+I.,+|+  {+9+6+1+O.6+4+|+>+0+/+a+B.b+c+{.$ $ $ $ $ $ M |             ",
"          N.[+M.#+%+4+d+}+M.I.V.I.  ;+1+;+e+f+@+e+#+N.}+g+h+Y.@+h+H.}+1+N.T.6+>+1+  i+8+C.H.  }+>+h+%+e+]+++p.    & o.j+M m k+R.                ",
"                                                                                                                                                ",
"                                                                                                                                                ",
"                                                                                                                                                ",
"                                                                                                                                                ",
"                                                                                                                                                ",
"                                                                                                                                                ",
"                                                                                                                                                ",
"                                                                                                                                                ",
"                                                                                                                                                ",
"                                                                                                                                                ",
"                                                                                                                                                ",
"                                                                                                                                                ",
"                                                                                                                                                "};
