/* XPM */
static char * mag_xpm[] = {
"12 12 4 1",
" 	c None",
".	c #5B5B5B",
"+	c #000000",
"@	c #FFFFFF",
"   .+.      ",
" .+++++.    ",
" ++@@@++    ",
".+@@++@+.   ",
"++@@@+@++   ",
".+@@@@@+.   ",
" ++@@@++.   ",
" .+++++++   ",
"   .+..+++  ",
"        +++ ",
"         +++",
"          + "};
