<?xml version="1.0" encoding="UTF-8" standalone="no"?>
<!-- Created with Inkscape (http://www.inkscape.org/) -->
<svg
   xmlns:dc="http://purl.org/dc/elements/1.1/"
   xmlns:cc="http://web.resource.org/cc/"
   xmlns:rdf="http://www.w3.org/1999/02/22-rdf-syntax-ns#"
   xmlns:svg="http://www.w3.org/2000/svg"
   xmlns="http://www.w3.org/2000/svg"
   xmlns:sodipodi="http://inkscape.sourceforge.net/DTD/sodipodi-0.dtd"
   xmlns:inkscape="http://www.inkscape.org/namespaces/inkscape"
   width="800pt"
   height="800pt"
   id="svg2"
   sodipodi:version="0.32"
   inkscape:version="0.43"
   sodipodi:docbase="/home/vokimon/CajitasDeArena/CLAM_Annotator/qt4src/images"
   sodipodi:docname="annotator-splash1.svg"
   version="1.0"
   inkscape:export-filename="/home/vokimon/CajitasDeArena/CLAM_Annotator/qt4src/images/annotator-splash2.png"
   inkscape:export-xdpi="23.040001"
   inkscape:export-ydpi="23.040001">
  <defs
     id="defs4" />
  <sodipodi:namedview
     id="base"
     pagecolor="#ffffff"
     bordercolor="#666666"
     borderopacity="1.0"
     inkscape:pageopacity="0.0"
     inkscape:pageshadow="2"
     inkscape:zoom="0.35355339"
     inkscape:cx="666.42857"
     inkscape:cy="398.78169"
     inkscape:document-units="px"
     inkscape:current-layer="layer1"
     inkscape:window-width="1072"
     inkscape:window-height="811"
     inkscape:window-x="42"
     inkscape:window-y="24" />
  <metadata
     id="metadata7">
    <rdf:RDF>
      <cc:Work
         rdf:about="">
        <dc:format>image/svg+xml</dc:format>
        <dc:type
           rdf:resource="http://purl.org/dc/dcmitype/StillImage" />
      </cc:Work>
    </rdf:RDF>
  </metadata>
  <g
     inkscape:label="Layer 1"
     inkscape:groupmode="layer"
     id="layer1">
    <rect
       style="opacity:1;color:#000000;fill:#f1f5c9;fill-opacity:1;fill-rule:evenodd;stroke:#afafaf;stroke-width:6.595;stroke-linecap:round;stroke-linejoin:round;marker:none;marker-start:none;marker-mid:none;marker-end:none;stroke-miterlimit:4;stroke-dasharray:none;stroke-dashoffset:0;stroke-opacity:1;visibility:visible;display:inline;overflow:visible"
       id="rect2283"
       width="787.91895"
       height="796.00018"
       x="107.07616"
       y="109.04548"
       rx="28.571428"
       ry="34.235168"
       inkscape:export-filename="/home/vokimon/CajitasDeArena/CLAM_Annotator/qt4src/images/annotator-splash2.png"
       inkscape:export-xdpi="34.267483"
       inkscape:export-ydpi="34.267483" />
    <rect
       style="opacity:1;color:#000000;fill:#fffef1;fill-opacity:1;fill-rule:evenodd;stroke:#898f79;stroke-width:6.55000019;stroke-linecap:round;stroke-linejoin:round;marker:none;marker-start:none;marker-mid:none;marker-end:none;stroke-miterlimit:4;stroke-dasharray:none;stroke-dashoffset:0;stroke-opacity:1;visibility:visible;display:inline;overflow:visible"
       id="rect1400"
       width="761.65497"
       height="585.88849"
       x="120.20815"
       y="201.97951"
       rx="28.571428"
       ry="34.235168"
       inkscape:export-filename="/home/vokimon/CajitasDeArena/CLAM_Annotator/qt4src/images/annotator-splash2.png"
       inkscape:export-xdpi="34.267483"
       inkscape:export-ydpi="34.267483" />
    <rect
       style="fill:#97bed2;fill-opacity:1;stroke:none;stroke-width:11.46625042;stroke-miterlimit:4;stroke-dasharray:none;stroke-opacity:1"
       id="rect1311"
       width="583.11224"
       height="288.53104"
       x="204.14343"
       y="349.81277"
       inkscape:export-filename="/home/vokimon/CajitasDeArena/CLAM_Annotator/qt4src/images/annotator-splash2.png"
       inkscape:export-xdpi="34.267483"
       inkscape:export-ydpi="34.267483" />
    <rect
       style="fill:#ebf4b2;fill-opacity:1;stroke:#3f7414;stroke-width:11.97000027;stroke-miterlimit:4;stroke-dasharray:none;stroke-opacity:1"
       id="rect2236"
       width="69.30011"
       height="474.45682"
       x="633.99164"
       y="246.27783"
       inkscape:export-filename="/home/vokimon/CajitasDeArena/CLAM_Annotator/qt4src/images/annotator-splash2.png"
       inkscape:export-xdpi="34.267483"
       inkscape:export-ydpi="34.267483" />
    <rect
       style="fill:#ebf4b2;fill-opacity:1;stroke:#3f7414;stroke-width:11.97000027;stroke-miterlimit:4;stroke-dasharray:none;stroke-opacity:1"
       id="rect2234"
       width="53.676483"
       height="474.45682"
       x="735.49585"
       y="246.27783"
       inkscape:export-filename="/home/vokimon/CajitasDeArena/CLAM_Annotator/qt4src/images/annotator-splash2.png"
       inkscape:export-xdpi="34.267483"
       inkscape:export-ydpi="34.267483" />
    <rect
       style="fill:#ebf4b2;fill-opacity:1;stroke:#3f7414;stroke-width:11.92088699;stroke-miterlimit:4;stroke-dasharray:none;stroke-opacity:1"
       id="rect2240"
       width="108.96436"
       height="472.57513"
       x="212.82118"
       y="246.22882"
       inkscape:export-filename="/home/vokimon/CajitasDeArena/CLAM_Annotator/qt4src/images/annotator-splash2.png"
       inkscape:export-xdpi="34.267483"
       inkscape:export-ydpi="34.267483" />
    <rect
       style="fill:#ebf4b2;fill-opacity:1;stroke:#3f7414;stroke-width:12.01971531;stroke-miterlimit:4;stroke-dasharray:none;stroke-opacity:1"
       id="rect2242"
       width="83.072723"
       height="472.29474"
       x="357.34085"
       y="246.30269"
       inkscape:export-filename="/home/vokimon/CajitasDeArena/CLAM_Annotator/qt4src/images/annotator-splash2.png"
       inkscape:export-xdpi="34.267483"
       inkscape:export-ydpi="34.267483" />
    <rect
       style="fill:#ebf4b2;fill-opacity:1;stroke:#3f7414;stroke-width:11.97000027;stroke-miterlimit:4;stroke-dasharray:none;stroke-opacity:1"
       id="rect2244"
       width="91.255074"
       height="474.45682"
       x="523.51184"
       y="246.27783"
       inkscape:export-filename="/home/vokimon/CajitasDeArena/CLAM_Annotator/qt4src/images/annotator-splash2.png"
       inkscape:export-xdpi="34.267483"
       inkscape:export-ydpi="34.267483" />
    <g
       id="g2188"
       transform="matrix(1.178065,0,0,1.210302,201.7635,184.7941)"
       inkscape:export-filename="/home/vokimon/CajitasDeArena/CLAM_Annotator/qt4src/images/annotator-splash2.png"
       inkscape:export-xdpi="34.267483"
       inkscape:export-ydpi="34.267483">
      <path
         id="path1319"
         d="M 2.8867105,280.80979 C 2.8867105,285.82964 4.6493305,267.35633 6.5004305,257.3362 C 8.1478605,248.41856 9.6497505,263.06721 10.11416,268.09493 C 11.61069,284.29652 14.17626,249.04064 15.53474,241.68714 C 18.07711,227.92515 20.83976,255.41976 21.67808,262.22653 C 24.29323,283.46054 25.29181,279.89392 25.29181,258.31427 C 25.29181,250.14449 27.24031,241.72645 27.82141,233.8626 C 28.85883,219.82356 35.767766,268.06893 36.494356,272.98526 C 40.084646,297.27838 38.822166,247.23792 41.192196,227.9942 C 46.696516,183.30132 43.997706,196.28628 46.974156,244.62134 C 47.364196,250.95545 55.285726,359.61617 55.285726,294.50273 C 55.285726,263.36061 57.386776,220.00252 61.429056,190.82768 C 62.700376,181.65205 62.874556,242.72723 62.874556,251.4678 C 62.874556,268.40647 68.720693,314.58517 69.740613,322.86665 C 71.734543,339.05654 70.872253,288.84064 71.908853,272.0072 C 73.663253,243.51719 74.928273,184.26404 79.497683,159.52955 C 82.945473,140.86642 80.075073,197.85451 81.665913,227.9942 C 82.466343,243.15891 83.146963,354.56531 87.809243,278.85366 C 90.724423,231.51367 94.091363,181.50071 98.289053,136.05595 C 100.00139,117.51783 101.21804,163.18385 102.26414,183.00315 C 104.45304,224.47341 106.22031,272.72911 109.13023,312.10792 C 109.77957,320.89539 113.33071,286.01024 116.35767,257.3362 C 119.877,223.99818 120.22233,188.11104 123.22374,155.61729 C 125.79549,127.77539 125.30098,192.27679 126.11474,214.30127 C 127.43018,249.90427 126.11474,287.85741 126.11474,323.84472 C 126.11474,351.17738 128.40351,305.26075 131.17395,282.76593 C 138.08979,226.61197 138.40141,185.91972 138.40141,276.89753 C 138.40141,364.49285 140.01493,273.28114 146.3516,247.55553 C 150.36765,231.25116 151.32088,282.64874 152.13355,292.54659 C 152.18228,293.14007 159.05651,244.31351 160.44513,236.79681 C 165.04875,211.87714 165.04933,273.45648 167.67258,287.65626 C 168.47162,291.98158 170.45401,260.99173 175.2614,243.64327 C 177.45887,235.71328 173.84161,292.40753 178.15238,269.073 C 187.90539,216.27932 180.78564,223.89743 191.88455,273.96332 C 201.25716,316.24214 199.16768,277.29839 205.97806,246.57746 C 209.90952,228.84308 204.5599,302.93556 208.86904,244.62134 C 210.22826,226.22745 212.60129,194.91604 214.65101,181.04701 C 218.15796,157.31778 216.81924,216.31904 216.81924,237.77487 C 216.81924,254.33126 213.16045,339.00351 218.62609,279.83173 C 222.34655,239.55386 226.58803,201.39577 229.10591,160.50762 C 229.7642,149.81759 230.55141,181.94633 230.55141,192.78381 C 230.55141,216.006 229.82866,268.83747 229.82866,281.78786 C 232.46957,277.08357 235.24923,228.29152 235.24923,258.31427 C 235.24923,293.22718 240.53424,243.8475 242.11531,233.8626 C 245.28332,213.85594 242.83806,258.60996 242.83806,267.11687 C 242.83806,290.37273 243.31347,328.78722 248.62002,285.70013 C 249.87862,275.48075 251.51101,260.74885 251.51101,250.48973 C 251.51101,240.0718 252.59687,268.07124 251.51101,282.76593"
         style="fill:none;fill-opacity:1;fill-rule:evenodd;stroke:#a36b14;stroke-width:2.77343273;stroke-linecap:butt;stroke-linejoin:miter;stroke-miterlimit:4;stroke-dasharray:none;stroke-opacity:1" />
      <path
         id="path2231"
         d="M 253.89901,277.89288 C 253.89901,282.91273 255.66163,264.43942 257.51273,254.41929 C 259.16016,245.50165 260.66205,260.1503 261.12646,265.17802 C 262.62299,281.37961 265.18856,246.12373 266.54704,238.77023 C 269.08941,225.00824 271.85206,252.50285 272.69038,259.30962 C 275.30553,280.54363 276.30411,276.97701 276.30411,255.39736 C 276.30411,247.22758 278.25261,238.80954 278.83371,230.94569 C 279.87113,216.90665 286.78007,265.15202 287.50666,270.06835 C 291.09695,294.36147 289.83447,244.32101 292.2045,225.07729 C 297.70882,180.38441 295.01001,193.36937 297.98646,241.70443 C 298.3765,248.03854 306.29803,356.69926 306.29803,291.58582 C 306.29803,260.4437 308.39908,217.08561 312.44136,187.91077 C 313.71268,178.73514 313.88686,239.81032 313.88686,248.55089 C 313.88686,265.48956 319.733,311.66826 320.75292,319.94974 C 322.74685,336.13963 321.88456,285.92373 322.92116,269.09029 C 324.67556,240.60028 325.94058,181.34713 330.50999,156.61264 C 333.95778,137.94951 331.08738,194.9376 332.67822,225.07729 C 333.47865,240.242 334.15927,351.6484 338.82155,275.93675 C 341.73673,228.59676 345.10367,178.5838 349.30136,133.13904 C 351.0137,114.60092 352.23035,160.26694 353.27645,180.08624 C 355.46535,221.5565 357.23262,269.8122 360.14254,309.19101 C 360.79188,317.97848 364.34302,283.09333 367.36998,254.41929 C 370.88931,221.08127 371.23464,185.19413 374.23605,152.70038 C 376.8078,124.85848 376.31329,189.35988 377.12705,211.38436 C 378.44249,246.98736 377.12705,284.9405 377.12705,320.92781 C 377.12705,348.26047 379.41582,302.34384 382.18626,279.84902 C 389.1021,223.69506 389.41372,183.00281 389.41372,273.98062 C 389.41372,361.57594 391.02724,270.36423 397.36391,244.63862 C 401.37996,228.33425 402.33319,279.73183 403.14586,289.62968 C 403.19459,290.22316 410.06882,241.3966 411.45744,233.8799 C 416.06106,208.96023 416.06164,270.53957 418.68489,284.73935 C 419.48393,289.06467 421.46632,258.07482 426.27371,240.72636 C 428.47118,232.79637 424.85392,289.49062 429.16469,266.15609 C 438.9177,213.36241 431.79795,220.98052 442.89686,271.04641 C 452.26947,313.32523 450.17999,274.38148 456.99037,243.66055 C 460.92183,225.92617 455.57221,300.01865 459.88135,241.70443 C 461.24057,223.31054 463.6136,191.99913 465.66332,178.1301 C 469.17027,154.40087 467.83155,213.40213 467.83155,234.85796 C 467.83155,251.41435 464.17276,336.0866 469.6384,276.91482 C 473.35886,236.63695 477.60034,198.47886 480.11822,157.59071 C 480.77651,146.90068 481.56372,179.02942 481.56372,189.8669 C 481.56372,213.08909 480.84097,265.92056 480.84097,278.87095 C 483.48188,274.16666 486.26154,225.37461 486.26154,255.39736 C 486.26154,290.31027 491.54655,240.93059 493.12762,230.94569 C 496.29563,210.93903 493.85037,255.69305 493.85037,264.19996 C 493.85037,287.45582 494.32578,325.87031 499.63233,282.78322 C 500.89093,272.56384 502.52332,257.83194 502.52332,247.57282 C 502.52332,237.15489 503.60918,265.15433 502.52332,279.84902"
         style="fill:none;fill-opacity:1;fill-rule:evenodd;stroke:#a36b14;stroke-width:2.77343273;stroke-linecap:butt;stroke-linejoin:miter;stroke-miterlimit:4;stroke-dasharray:none;stroke-opacity:1" />
    </g>
    <g
       id="g2192"
       transform="matrix(1.178065,0,0,1.210302,210.8028,185.7133)"
       style="stroke:#d6d100;stroke-opacity:1"
       inkscape:export-filename="/home/vokimon/CajitasDeArena/CLAM_Annotator/qt4src/images/annotator-splash2.png"
       inkscape:export-xdpi="34.267483"
       inkscape:export-ydpi="34.267483">
      <path
         id="path2194"
         d="M 2.8867105,280.80979 C 2.8867105,285.82964 4.6493305,267.35633 6.5004305,257.3362 C 8.1478605,248.41856 9.6497505,263.06721 10.11416,268.09493 C 11.61069,284.29652 14.17626,249.04064 15.53474,241.68714 C 18.07711,227.92515 20.83976,255.41976 21.67808,262.22653 C 24.29323,283.46054 25.29181,279.89392 25.29181,258.31427 C 25.29181,250.14449 27.24031,241.72645 27.82141,233.8626 C 28.85883,219.82356 35.767766,268.06893 36.494356,272.98526 C 40.084646,297.27838 38.822166,247.23792 41.192196,227.9942 C 46.696516,183.30132 43.997706,196.28628 46.974156,244.62134 C 47.364196,250.95545 55.285726,359.61617 55.285726,294.50273 C 55.285726,263.36061 57.386776,220.00252 61.429056,190.82768 C 62.700376,181.65205 62.874556,242.72723 62.874556,251.4678 C 62.874556,268.40647 68.720693,314.58517 69.740613,322.86665 C 71.734543,339.05654 70.872253,288.84064 71.908853,272.0072 C 73.663253,243.51719 74.928273,184.26404 79.497683,159.52955 C 82.945473,140.86642 80.075073,197.85451 81.665913,227.9942 C 82.466343,243.15891 83.146963,354.56531 87.809243,278.85366 C 90.724423,231.51367 94.091363,181.50071 98.289053,136.05595 C 100.00139,117.51783 101.21804,163.18385 102.26414,183.00315 C 104.45304,224.47341 106.22031,272.72911 109.13023,312.10792 C 109.77957,320.89539 113.33071,286.01024 116.35767,257.3362 C 119.877,223.99818 120.22233,188.11104 123.22374,155.61729 C 125.79549,127.77539 125.30098,192.27679 126.11474,214.30127 C 127.43018,249.90427 126.11474,287.85741 126.11474,323.84472 C 126.11474,351.17738 128.40351,305.26075 131.17395,282.76593 C 138.08979,226.61197 138.40141,185.91972 138.40141,276.89753 C 138.40141,364.49285 140.01493,273.28114 146.3516,247.55553 C 150.36765,231.25116 151.32088,282.64874 152.13355,292.54659 C 152.18228,293.14007 159.05651,244.31351 160.44513,236.79681 C 165.04875,211.87714 165.04933,273.45648 167.67258,287.65626 C 168.47162,291.98158 170.45401,260.99173 175.2614,243.64327 C 177.45887,235.71328 173.84161,292.40753 178.15238,269.073 C 187.90539,216.27932 180.78564,223.89743 191.88455,273.96332 C 201.25716,316.24214 199.16768,277.29839 205.97806,246.57746 C 209.90952,228.84308 204.5599,302.93556 208.86904,244.62134 C 210.22826,226.22745 212.60129,194.91604 214.65101,181.04701 C 218.15796,157.31778 216.81924,216.31904 216.81924,237.77487 C 216.81924,254.33126 213.16045,339.00351 218.62609,279.83173 C 222.34655,239.55386 226.58803,201.39577 229.10591,160.50762 C 229.7642,149.81759 230.55141,181.94633 230.55141,192.78381 C 230.55141,216.006 229.82866,268.83747 229.82866,281.78786 C 232.46957,277.08357 235.24923,228.29152 235.24923,258.31427 C 235.24923,293.22718 240.53424,243.8475 242.11531,233.8626 C 245.28332,213.85594 242.83806,258.60996 242.83806,267.11687 C 242.83806,290.37273 243.31347,328.78722 248.62002,285.70013 C 249.87862,275.48075 251.51101,260.74885 251.51101,250.48973 C 251.51101,240.0718 252.59687,268.07124 251.51101,282.76593"
         style="fill:none;fill-opacity:1;fill-rule:evenodd;stroke:#d6d100;stroke-width:2.77343273;stroke-linecap:butt;stroke-linejoin:miter;stroke-miterlimit:4;stroke-dasharray:none;stroke-opacity:1" />
      <path
         id="path2196"
         d="M 253.89901,277.89288 C 253.89901,282.91273 255.66163,264.43942 257.51273,254.41929 C 259.16016,245.50165 260.66205,260.1503 261.12646,265.17802 C 262.62299,281.37961 265.18856,246.12373 266.54704,238.77023 C 269.08941,225.00824 271.85206,252.50285 272.69038,259.30962 C 275.30553,280.54363 276.30411,276.97701 276.30411,255.39736 C 276.30411,247.22758 278.25261,238.80954 278.83371,230.94569 C 279.87113,216.90665 286.78007,265.15202 287.50666,270.06835 C 291.09695,294.36147 289.83447,244.32101 292.2045,225.07729 C 297.70882,180.38441 295.01001,193.36937 297.98646,241.70443 C 298.3765,248.03854 306.29803,356.69926 306.29803,291.58582 C 306.29803,260.4437 308.39908,217.08561 312.44136,187.91077 C 313.71268,178.73514 313.88686,239.81032 313.88686,248.55089 C 313.88686,265.48956 319.733,311.66826 320.75292,319.94974 C 322.74685,336.13963 321.88456,285.92373 322.92116,269.09029 C 324.67556,240.60028 325.94058,181.34713 330.50999,156.61264 C 333.95778,137.94951 331.08738,194.9376 332.67822,225.07729 C 333.47865,240.242 334.15927,351.6484 338.82155,275.93675 C 341.73673,228.59676 345.10367,178.5838 349.30136,133.13904 C 351.0137,114.60092 352.23035,160.26694 353.27645,180.08624 C 355.46535,221.5565 357.23262,269.8122 360.14254,309.19101 C 360.79188,317.97848 364.34302,283.09333 367.36998,254.41929 C 370.88931,221.08127 371.23464,185.19413 374.23605,152.70038 C 376.8078,124.85848 376.31329,189.35988 377.12705,211.38436 C 378.44249,246.98736 377.12705,284.9405 377.12705,320.92781 C 377.12705,348.26047 379.41582,302.34384 382.18626,279.84902 C 389.1021,223.69506 389.41372,183.00281 389.41372,273.98062 C 389.41372,361.57594 391.02724,270.36423 397.36391,244.63862 C 401.37996,228.33425 402.33319,279.73183 403.14586,289.62968 C 403.19459,290.22316 410.06882,241.3966 411.45744,233.8799 C 416.06106,208.96023 416.06164,270.53957 418.68489,284.73935 C 419.48393,289.06467 421.46632,258.07482 426.27371,240.72636 C 428.47118,232.79637 424.85392,289.49062 429.16469,266.15609 C 438.9177,213.36241 431.79795,220.98052 442.89686,271.04641 C 452.26947,313.32523 450.17999,274.38148 456.99037,243.66055 C 460.92183,225.92617 455.57221,300.01865 459.88135,241.70443 C 461.24057,223.31054 463.6136,191.99913 465.66332,178.1301 C 469.17027,154.40087 467.83155,213.40213 467.83155,234.85796 C 467.83155,251.41435 464.17276,336.0866 469.6384,276.91482 C 473.35886,236.63695 477.60034,198.47886 480.11822,157.59071 C 480.77651,146.90068 481.56372,179.02942 481.56372,189.8669 C 481.56372,213.08909 480.84097,265.92056 480.84097,278.87095 C 483.48188,274.16666 486.26154,225.37461 486.26154,255.39736 C 486.26154,290.31027 491.54655,240.93059 493.12762,230.94569 C 496.29563,210.93903 493.85037,255.69305 493.85037,264.19996 C 493.85037,287.45582 494.32578,325.87031 499.63233,282.78322 C 500.89093,272.56384 502.52332,257.83194 502.52332,247.57282 C 502.52332,237.15489 503.60918,265.15433 502.52332,279.84902"
         style="fill:none;fill-opacity:1;fill-rule:evenodd;stroke:#d6d100;stroke-width:2.77343273;stroke-linecap:butt;stroke-linejoin:miter;stroke-miterlimit:4;stroke-dasharray:none;stroke-opacity:1" />
    </g>
    <flowRoot
       xml:space="preserve"
       id="flowRoot1380"
       transform="translate(-23.57375,686.9037)"
       inkscape:export-filename="/home/vokimon/CajitasDeArena/CLAM_Annotator/qt4src/images/annotator-splash2.png"
       inkscape:export-xdpi="34.267483"
       inkscape:export-ydpi="34.267483"><flowRegion
         id="flowRegion1382"><rect
           id="rect1384"
           width="733.37073"
           height="107.07616"
           x="169.70563"
           y="107.02518" /></flowRegion><flowPara
         id="flowPara1386"
         style="font-size:64px;font-style:normal;font-variant:normal;font-weight:normal;font-stretch:normal;text-align:start;line-height:125%;writing-mode:lr-tb;text-anchor:start;font-family:Bitstream Vera Sans">Clam Music Annotator</flowPara></flowRoot>    <flowRoot
       xml:space="preserve"
       id="flowRoot1388"><flowRegion
         id="flowRegion1390"><rect
           id="rect1392"
           width="282.84271"
           height="50.507626"
           x="533.36053"
           y="254.50745" /></flowRegion><flowPara
         id="flowPara1394" /></flowRoot>    <g
       id="g2306"
       transform="translate(67.14286,190)">
      <path
         sodipodi:nodetypes="ccccccccc"
         id="rect2289"
         d="M 1020.2541,363.60391 L 1226.3252,363.60391 C 1231.9214,363.60391 1236.4267,373.51553 1236.4267,385.82727 L 1236.4267,448.45671 C 1236.4267,460.76845 1231.9214,470.68007 1226.3252,470.68007 L 1020.2541,470.68007 C 1014.6578,470.68007 979.84792,438.54509 979.84792,426.23335 L 979.84792,410.07093 C 979.84792,397.75919 1014.6578,363.60391 1020.2541,363.60391 z "
         style="color:#000000;fill:#f98f2d;fill-opacity:1;fill-rule:evenodd;stroke:#aa681a;stroke-width:6;stroke-linecap:round;stroke-linejoin:round;marker:none;marker-start:none;marker-mid:none;marker-end:none;stroke-miterlimit:4;stroke-dasharray:none;stroke-dashoffset:0;stroke-opacity:1;visibility:visible;display:inline;overflow:visible" />
      <rect
         ry="0"
         rx="0"
         y="387.84756"
         x="1032.3759"
         height="62.629459"
         width="181.82745"
         id="rect2291"
         style="opacity:1;color:#000000;fill:#e0ddff;fill-opacity:1;fill-rule:evenodd;stroke:none;stroke-width:11.97000027;stroke-linecap:round;stroke-linejoin:round;marker:none;marker-start:none;marker-mid:none;marker-end:none;stroke-miterlimit:4;stroke-dasharray:none;stroke-dashoffset:0;stroke-opacity:1;visibility:visible;display:inline;overflow:visible" />
      <path
         transform="translate(-65.71428,182.8571)"
         sodipodi:open="true"
         sodipodi:end="12.3785"
         sodipodi:start="6.109983"
         d="M 1091.2148,233.49854 A 14.285714,12.857142 0 1 1 1091.1772,233.31301"
         sodipodi:ry="12.857142"
         sodipodi:rx="14.285714"
         sodipodi:cy="235.71431"
         sodipodi:cx="1077.1428"
         id="path2302"
         style="opacity:1;color:#000000;fill:#763a03;fill-opacity:1;fill-rule:evenodd;stroke:#aa681a;stroke-width:6;stroke-linecap:round;stroke-linejoin:round;marker:none;marker-start:none;marker-mid:none;marker-end:none;stroke-miterlimit:4;stroke-dasharray:none;stroke-dashoffset:0;stroke-opacity:1;visibility:visible;display:inline;overflow:visible"
         sodipodi:type="arc" />
    </g>
    <g
       transform="matrix(-0.105757,0.454696,-0.454696,-0.105757,1019.394,-135.0396)"
       id="g2343"
       inkscape:export-filename="/home/vokimon/CajitasDeArena/CLAM_Annotator/qt4src/images/annotator-splash2.png"
       inkscape:export-xdpi="34.267483"
       inkscape:export-ydpi="34.267483">
      <path
         style="color:#000000;fill:#f98f2d;fill-opacity:1;fill-rule:evenodd;stroke:#aa681a;stroke-width:6;stroke-linecap:round;stroke-linejoin:round;marker:none;marker-start:none;marker-mid:none;marker-end:none;stroke-miterlimit:4;stroke-dasharray:none;stroke-dashoffset:0;stroke-opacity:1;visibility:visible;display:inline;overflow:visible"
         d="M 1020.2541,363.60391 L 1226.3252,363.60391 C 1231.9214,363.60391 1236.4267,373.51553 1236.4267,385.82727 L 1236.4267,448.45671 C 1236.4267,460.76845 1231.9214,470.68007 1226.3252,470.68007 L 1020.2541,470.68007 C 1014.6578,470.68007 979.84792,438.54509 979.84792,426.23335 L 979.84792,410.07093 C 979.84792,397.75919 1014.6578,363.60391 1020.2541,363.60391 z "
         id="path2345"
         sodipodi:nodetypes="ccccccccc" />
      <rect
         style="opacity:1;color:#000000;fill:#e0ddff;fill-opacity:1;fill-rule:evenodd;stroke:none;stroke-width:11.97000027;stroke-linecap:round;stroke-linejoin:round;marker:none;marker-start:none;marker-mid:none;marker-end:none;stroke-miterlimit:4;stroke-dasharray:none;stroke-dashoffset:0;stroke-opacity:1;visibility:visible;display:inline;overflow:visible"
         id="rect2347"
         width="181.82745"
         height="62.629459"
         x="1032.3759"
         y="387.84756"
         rx="0"
         ry="0" />
      <path
         sodipodi:type="arc"
         style="opacity:1;color:#000000;fill:#763a03;fill-opacity:1;fill-rule:evenodd;stroke:#aa681a;stroke-width:6;stroke-linecap:round;stroke-linejoin:round;marker:none;marker-start:none;marker-mid:none;marker-end:none;stroke-miterlimit:4;stroke-dasharray:none;stroke-dashoffset:0;stroke-opacity:1;visibility:visible;display:inline;overflow:visible"
         id="path2349"
         sodipodi:cx="1077.1428"
         sodipodi:cy="235.71431"
         sodipodi:rx="14.285714"
         sodipodi:ry="12.857142"
         d="M 1091.2148,233.49854 A 14.285714,12.857142 0 1 1 1091.1772,233.31301"
         sodipodi:start="6.109983"
         sodipodi:end="12.3785"
         sodipodi:open="true"
         transform="translate(-65.71428,182.8571)" />
    </g>
    <g
       transform="matrix(0.135351,0.439098,-0.439098,0.135351,514.1177,-219.6786)"
       id="g2351"
       inkscape:export-filename="/home/vokimon/CajitasDeArena/CLAM_Annotator/qt4src/images/annotator-splash2.png"
       inkscape:export-xdpi="34.267483"
       inkscape:export-ydpi="34.267483">
      <path
         style="color:#000000;fill:#f98f2d;fill-opacity:1;fill-rule:evenodd;stroke:#aa681a;stroke-width:6;stroke-linecap:round;stroke-linejoin:round;marker:none;marker-start:none;marker-mid:none;marker-end:none;stroke-miterlimit:4;stroke-dasharray:none;stroke-dashoffset:0;stroke-opacity:1;visibility:visible;display:inline;overflow:visible"
         d="M 1020.2541,363.60391 L 1226.3252,363.60391 C 1231.9214,363.60391 1236.4267,373.51553 1236.4267,385.82727 L 1236.4267,448.45671 C 1236.4267,460.76845 1231.9214,470.68007 1226.3252,470.68007 L 1020.2541,470.68007 C 1014.6578,470.68007 979.84792,438.54509 979.84792,426.23335 L 979.84792,410.07093 C 979.84792,397.75919 1014.6578,363.60391 1020.2541,363.60391 z "
         id="path2353"
         sodipodi:nodetypes="ccccccccc" />
      <rect
         style="opacity:1;color:#000000;fill:#e0ddff;fill-opacity:1;fill-rule:evenodd;stroke:none;stroke-width:11.97000027;stroke-linecap:round;stroke-linejoin:round;marker:none;marker-start:none;marker-mid:none;marker-end:none;stroke-miterlimit:4;stroke-dasharray:none;stroke-dashoffset:0;stroke-opacity:1;visibility:visible;display:inline;overflow:visible"
         id="rect2355"
         width="181.82745"
         height="62.629459"
         x="1032.3759"
         y="387.84756"
         rx="0"
         ry="0" />
      <path
         sodipodi:type="arc"
         style="opacity:1;color:#000000;fill:#763a03;fill-opacity:1;fill-rule:evenodd;stroke:#aa681a;stroke-width:6;stroke-linecap:round;stroke-linejoin:round;marker:none;marker-start:none;marker-mid:none;marker-end:none;stroke-miterlimit:4;stroke-dasharray:none;stroke-dashoffset:0;stroke-opacity:1;visibility:visible;display:inline;overflow:visible"
         id="path2357"
         sodipodi:cx="1077.1428"
         sodipodi:cy="235.71431"
         sodipodi:rx="14.285714"
         sodipodi:ry="12.857142"
         d="M 1091.2148,233.49854 A 14.285714,12.857142 0 1 1 1091.1772,233.31301"
         sodipodi:start="6.109983"
         sodipodi:end="12.3785"
         sodipodi:open="true"
         transform="translate(-65.71428,182.8571)" />
    </g>
    <g
       transform="matrix(-0.109754,0.439198,-0.439198,-0.109754,477.6624,-123.1367)"
       id="g2359"
       inkscape:export-filename="/home/vokimon/CajitasDeArena/CLAM_Annotator/qt4src/images/annotator-splash2.png"
       inkscape:export-xdpi="34.267483"
       inkscape:export-ydpi="34.267483">
      <path
         style="color:#000000;fill:#f98f2d;fill-opacity:1;fill-rule:evenodd;stroke:#aa681a;stroke-width:6;stroke-linecap:round;stroke-linejoin:round;marker:none;marker-start:none;marker-mid:none;marker-end:none;stroke-miterlimit:4;stroke-dasharray:none;stroke-dashoffset:0;stroke-opacity:1;visibility:visible;display:inline;overflow:visible"
         d="M 1020.2541,363.60391 L 1226.3252,363.60391 C 1231.9214,363.60391 1236.4267,373.51553 1236.4267,385.82727 L 1236.4267,448.45671 C 1236.4267,460.76845 1231.9214,470.68007 1226.3252,470.68007 L 1020.2541,470.68007 C 1014.6578,470.68007 979.84792,438.54509 979.84792,426.23335 L 979.84792,410.07093 C 979.84792,397.75919 1014.6578,363.60391 1020.2541,363.60391 z "
         id="path2361"
         sodipodi:nodetypes="ccccccccc" />
      <rect
         style="opacity:1;color:#000000;fill:#e0ddff;fill-opacity:1;fill-rule:evenodd;stroke:none;stroke-width:11.97000027;stroke-linecap:round;stroke-linejoin:round;marker:none;marker-start:none;marker-mid:none;marker-end:none;stroke-miterlimit:4;stroke-dasharray:none;stroke-dashoffset:0;stroke-opacity:1;visibility:visible;display:inline;overflow:visible"
         id="rect2363"
         width="181.82745"
         height="62.629459"
         x="1032.3759"
         y="387.84756"
         rx="0"
         ry="0" />
      <path
         sodipodi:type="arc"
         style="opacity:1;color:#000000;fill:#763a03;fill-opacity:1;fill-rule:evenodd;stroke:#aa681a;stroke-width:6;stroke-linecap:round;stroke-linejoin:round;marker:none;marker-start:none;marker-mid:none;marker-end:none;stroke-miterlimit:4;stroke-dasharray:none;stroke-dashoffset:0;stroke-opacity:1;visibility:visible;display:inline;overflow:visible"
         id="path2365"
         sodipodi:cx="1077.1428"
         sodipodi:cy="235.71431"
         sodipodi:rx="14.285714"
         sodipodi:ry="12.857142"
         d="M 1091.2148,233.49854 A 14.285714,12.857142 0 1 1 1091.1772,233.31301"
         sodipodi:start="6.109983"
         sodipodi:end="12.3785"
         sodipodi:open="true"
         transform="translate(-65.71428,182.8571)" />
    </g>
    <path
       style="fill:none;fill-opacity:0.75;fill-rule:evenodd;stroke:#5e4444;stroke-width:4.77646208;stroke-linecap:butt;stroke-linejoin:miter;stroke-miterlimit:4;stroke-dasharray:none;stroke-opacity:1"
       d="M 242.68039,240.30858 C 242.68039,240.30858 226.73873,220.90258 213.98541,226.00942 C 201.23209,231.11626 196.44959,231.11626 189.27584,243.37268 C 181.85141,256.05739 177.3196,277.07783 177.3196,277.07783"
       id="path2369"
       sodipodi:nodetypes="cssc"
       inkscape:export-filename="/home/vokimon/CajitasDeArena/CLAM_Annotator/qt4src/images/annotator-splash2.png"
       inkscape:export-xdpi="34.267483"
       inkscape:export-ydpi="34.267483" />
    <path
       style="fill:none;fill-opacity:0.75;fill-rule:evenodd;stroke:#5e4444;stroke-width:4.56798935;stroke-linecap:butt;stroke-linejoin:miter;stroke-miterlimit:4;stroke-dasharray:none;stroke-opacity:1"
       d="M 407.25292,244.90736 C 407.25292,244.90736 421.83337,225.50136 433.49773,230.6082 C 445.16208,235.71504 449.53622,235.71504 456.09743,247.97146 C 462.88791,260.65617 467.03276,281.67661 467.03276,281.67661"
       id="path2371"
       sodipodi:nodetypes="cssc"
       inkscape:export-filename="/home/vokimon/CajitasDeArena/CLAM_Annotator/qt4src/images/annotator-splash2.png"
       inkscape:export-xdpi="34.267483"
       inkscape:export-ydpi="34.267483" />
    <path
       style="fill:none;fill-opacity:0.75;fill-rule:evenodd;stroke:#5e4444;stroke-width:4.56798935;stroke-linecap:butt;stroke-linejoin:miter;stroke-miterlimit:4;stroke-dasharray:none;stroke-opacity:1"
       d="M 665.82435,240.62165 C 665.82435,240.62165 680.4048,221.21565 692.06916,226.32249 C 703.73351,231.42933 708.10765,231.42933 714.66886,243.68575 C 721.45934,256.37046 725.60419,277.3909 725.60419,277.3909"
       id="path2373"
       sodipodi:nodetypes="cssc"
       inkscape:export-filename="/home/vokimon/CajitasDeArena/CLAM_Annotator/qt4src/images/annotator-splash2.png"
       inkscape:export-xdpi="34.267483"
       inkscape:export-ydpi="34.267483" />
  </g>
</svg>
