<?xml version="1.0" encoding="UTF-8" standalone="no"?>
<svg
   xmlns:dc="http://purl.org/dc/elements/1.1/"
   xmlns:cc="http://web.resource.org/cc/"
   xmlns:rdf="http://www.w3.org/1999/02/22-rdf-syntax-ns#"
   xmlns:svg="http://www.w3.org/2000/svg"
   xmlns="http://www.w3.org/2000/svg"
   xmlns:sodipodi="http://sodipodi.sourceforge.net/DTD/sodipodi-0.dtd"
   xmlns:inkscape="http://www.inkscape.org/namespaces/inkscape"
   version="1.0"
   width="468pt"
   height="638pt"
   viewBox="0 0 468 638"
   preserveAspectRatio="xMidYMid meet"
   id="svg2304"
   sodipodi:version="0.32"
   inkscape:version="0.45.1"
   sodipodi:docname="faustlogo.svg"
   sodipodi:docbase="CLAMSVN/NetworkEditor/src/images"
   inkscape:output_extension="org.inkscape.output.svg.inkscape">
  <defs
     id="defs2395" />
  <sodipodi:namedview
     inkscape:window-height="596"
     inkscape:window-width="822"
     inkscape:pageshadow="2"
     inkscape:pageopacity="0.0"
     guidetolerance="10.0"
     gridtolerance="10.0"
     objecttolerance="10.0"
     borderopacity="1.0"
     bordercolor="#666666"
     pagecolor="#ffffff"
     id="base"
     inkscape:zoom="0.47398119"
     inkscape:cx="179.4587"
     inkscape:cy="341.37197"
     inkscape:window-x="382"
     inkscape:window-y="228"
     inkscape:current-layer="svg2304" />
  <metadata
     id="metadata2306">
Created by potrace 1.8, written by Peter Selinger 2001-2007
<rdf:RDF>
  <cc:Work
     rdf:about="">
    <dc:format>image/svg+xml</dc:format>
    <dc:type
       rdf:resource="http://purl.org/dc/dcmitype/StillImage" />
  </cc:Work>
</rdf:RDF>
</metadata>
  <g
     id="g3540"
     style="fill:#eb0000;fill-opacity:1">
    <path
       d="M 51.6177,26.61702 L 45.8824,32.122908 L 45.8824,301.91142 C 45.8824,568.48816 45.8824,571.47052 50.47064,576.05876 C 55.05888,580.647 58.041236,580.647 234.68848,580.647 C 406.05924,580.647 414.7769,580.41759 418.21808,576.51758 C 421.88867,572.61758 422.11808,550.1352 422.11808,301.22318 C 422.11808,33.040556 422.11808,30.0582 417.52984,25.46996 C 412.9416,20.88172 409.95924,20.88172 235.1473,20.88172 L 57.123588,20.88172 L 51.6177,26.61702 z M 269.10028,86.493552 C 327.60034,101.63474 368.43567,155.31715 373.25332,223.2231 L 374.6298,243.41136 L 389.08275,243.41136 C 409.72983,243.41136 411.33572,246.1643 410.18866,282.4114 C 409.27101,315.90555 408.58277,316.8232 384.95334,316.8232 C 373.94156,316.8232 369.35332,317.74085 369.35332,319.57614 C 369.35332,321.18203 371.87685,332.1938 375.08862,343.89382 C 382.88863,372.57032 382.65922,374.1762 373.02391,374.1762 C 365.91214,374.1762 364.99449,375.32326 357.88272,389.08798 C 353.7533,397.1174 345.03565,409.50565 338.61211,416.38801 C 327.14151,428.77626 326.9121,429.00567 330.8121,434.28214 C 332.87681,437.2645 335.40034,442.31156 336.31799,445.75274 C 337.69446,451.71746 337.23564,452.17628 330.8121,452.17628 C 325.76504,452.17628 323.47092,450.79981 322.32386,447.81745 C 319.3415,438.18215 302.82384,439.0998 302.82384,448.7351 C 302.82384,452.86452 304.65914,454.69981 311.5415,456.76452 C 329.43563,462.49982 334.71211,466.17041 337.46505,474.42924 C 340.67682,484.75278 337.23564,498.5175 329.66504,503.79398 C 323.92974,507.69398 304.65914,508.38222 297.77678,504.71163 C 293.64736,502.41751 286.765,489.79985 286.765,484.29396 C 286.765,483.1469 289.74736,481.99984 293.41795,481.99984 C 298.00619,481.99984 301.21796,483.83514 303.74149,487.73514 C 308.10032,494.38809 316.58856,495.30574 322.09445,489.79985 C 328.97681,483.1469 325.30622,479.01748 307.8709,473.97042 C 295.71207,470.29983 289.05912,463.87629 289.05912,455.38805 C 289.05912,450.5704 289.05912,450.5704 276.44146,454.24099 L 263.8238,457.91158 L 263.8238,473.5116 C 263.8238,498.74692 257.17085,507.23516 237.44142,507.23516 C 228.72376,507.23516 225.512,506.0881 220.00611,500.58221 C 213.81198,494.38809 213.35316,492.55279 213.35316,476.72336 L 213.35316,459.51746 L 193.1649,453.09393 L 172.97665,446.44098 L 176.87665,459.05864 C 178.94136,465.941 182.84136,479.2469 185.3649,488.42338 L 190.18255,505.17045 L 181.6943,504.48222 C 175.04136,504.02339 173.20606,502.64692 172.059,498.05868 C 170.91194,493.01162 169.53547,492.32338 159.44134,492.32338 C 149.34721,492.32338 147.97074,493.01162 146.82368,498.05868 C 145.67662,502.64692 143.84132,504.02339 137.18838,504.48222 L 128.92954,505.17045 L 139.02367,471.21748 C 144.52956,452.6351 149.1178,435.88803 149.1178,434.28214 C 149.1178,432.67626 143.61191,425.56449 136.72955,418.45272 C 115.39424,396.88799 98.64716,357.19971 98.64716,328.98204 L 98.64716,316.8232 L 85.341264,316.8232 C 64.23536,316.8232 63.317712,315.21732 62.400064,283.09964 C 61.482416,246.1643 62.400064,244.78783 85.570676,243.87018 C 95.20598,243.41136 103.2354,242.49371 103.2354,241.57606 C 103.2354,240.65842 100.02363,229.64664 96.35304,217.25839 C 87.17656,187.20542 87.405972,185.37012 97.270688,186.51718 C 104.84128,187.43483 105.0707,186.97601 108.74129,175.73482 C 112.8707,162.42892 125.02954,141.55243 136.72955,127.09948 C 149.1178,112.1877 172.74724,96.358268 193.85314,89.246496 C 215.87669,81.6759 246.38849,80.52884 269.10028,86.493552 z M 112.41188,436.11744 L 112.41188,442.9998 L 96.35304,442.9998 L 80.2942,442.9998 L 80.2942,451.02922 L 80.2942,459.05864 L 94.05892,459.05864 C 107.82364,459.05864 107.82364,459.05864 107.82364,465.941 C 107.82364,472.82336 107.82364,472.82336 94.05892,472.82336 L 80.2942,472.82336 L 80.2942,488.8822 L 80.2942,504.94104 L 73.41184,504.94104 L 66.52948,504.94104 L 66.52948,467.08806 L 66.52948,429.23508 L 89.47068,429.23508 L 112.41188,429.23508 L 112.41188,436.11744 z M 406.05924,436.11744 C 406.05924,442.54098 405.60042,442.9998 396.88276,442.9998 L 387.70628,442.9998 L 387.70628,473.97042 L 387.70628,504.94104 L 380.82392,504.94104 L 373.94156,504.94104 L 373.94156,473.97042 L 373.94156,442.9998 L 364.76508,442.9998 C 356.04742,442.9998 355.5886,442.54098 355.5886,436.11744 L 355.5886,429.23508 L 380.82392,429.23508 L 406.05924,429.23508 L 406.05924,436.11744 z M 93.829508,513.19987 C 117.00012,517.78811 123.88248,549.90579 105.30011,565.73522 C 95.20598,573.99405 76.623608,573.99405 66.758892,565.50581 C 49.32358,550.82344 54.141232,523.06459 75.70596,514.34693 C 82.817732,511.59399 84.653028,511.36458 93.829508,513.19987 z M 180.08842,517.78811 C 186.51196,521.91753 192.70608,534.30578 192.70608,542.79402 C 192.70608,550.82344 187.4296,560.68816 179.85901,566.65287 C 175.27077,570.32346 170.45312,571.47052 161.27664,571.47052 C 150.03545,571.47052 147.74133,570.55287 140.85897,563.67051 C 133.97661,556.78815 133.05896,554.49403 133.05896,543.25284 C 133.05896,529.0293 138.33544,520.31164 150.03545,515.03517 C 158.29428,511.36458 172.059,512.51164 180.08842,517.78811 z M 248.68261,515.03517 C 259.9238,519.62341 266.11792,529.0293 266.11792,540.95872 C 266.11792,560.68816 255.10614,571.47052 235.1473,571.47052 C 226.65906,571.47052 223.21788,570.09405 216.56493,563.89992 C 209.45316,557.47639 208.07668,554.49403 207.15904,544.85873 C 205.09433,520.99988 226.20023,505.62928 248.68261,515.03517 z M 322.32386,515.03517 C 337.23564,521.4587 343.65918,540.27049 336.08858,556.32933 C 326.68269,576.28817 293.18854,576.747 283.09441,557.24698 C 278.27676,548.0705 279.88264,529.71754 285.84735,523.06459 C 295.02383,512.51164 309.01796,509.52928 322.32386,515.03517 z M 405.371,521.91753 C 411.79454,529.0293 412.9416,531.78224 412.9416,541.87637 C 412.9416,562.29404 400.32394,573.30582 379.44745,570.78228 C 357.19448,568.25875 346.41212,543.48226 359.25919,523.75282 C 364.30626,515.95282 375.54744,511.59399 387.70628,512.74105 C 395.7357,513.42928 399.40629,515.26458 405.371,521.91753 z "
       id="path2310"
       style="fill:#eb0000;stroke:none;fill-opacity:1" />
    <path
       d="M 206.24139,106.68181 C 176.87665,114.94064 149.1178,138.79949 134.66484,168.16422 C 130.0766,177.79953 126.1766,186.97601 126.1766,188.12307 C 126.1766,189.49954 128.70013,190.6466 131.9119,190.6466 C 135.12367,190.6466 138.33544,192.02307 139.02367,193.85837 C 139.71191,195.69366 133.97661,207.16426 126.40601,219.55251 L 112.41188,242.2643 L 128.92954,242.95254 C 153.0178,243.87018 153.70604,244.78783 153.70604,278.74081 C 153.70604,314.29967 152.32957,316.8232 132.82955,316.8232 L 119.29424,316.8232 L 119.29424,325.99968 C 119.29424,352.38206 133.51778,385.87621 152.55898,404.91741 C 170.91194,423.49978 213.35316,442.9998 213.35316,432.90567 C 213.35316,430.38214 215.41787,429.23508 220.23552,429.23508 C 225.512,429.23508 227.11788,430.15273 227.11788,433.82332 C 227.11788,437.72332 228.72376,438.41156 238.58848,438.41156 C 248.4532,438.41156 250.05908,437.72332 250.05908,433.82332 C 250.05908,430.15273 251.66496,429.23508 256.94144,429.23508 C 261.52968,429.23508 263.8238,430.38214 263.8238,432.67626 C 263.8238,437.03509 263.36498,437.03509 281.0297,430.38214 C 307.18267,420.51742 327.37092,403.08211 339.30035,379.22326 L 344.34741,369.58796 L 337.23564,368.21149 C 333.56505,367.29384 330.35328,365.45854 330.35328,364.08207 C 330.35328,362.7056 337.00623,351.46441 345.26506,339.07616 L 360.17684,316.8232 L 343.42976,316.8232 C 319.57092,316.8232 318.88268,315.90555 318.88268,279.65846 C 318.88268,245.24666 320.02974,243.41136 340.218,243.41136 L 353.29448,243.41136 L 353.29448,231.25252 C 353.29448,214.96427 345.49447,184.22306 337.46505,168.16422 C 316.35915,126.41124 279.65323,103.24063 235.37671,103.69945 C 225.28258,103.69945 211.97669,105.30534 206.24139,106.68181 z M 232.62377,213.5878 C 240.19436,216.34074 243.40613,223.68193 253.50026,261.53491 C 257.85909,278.5114 264.51204,297.782 268.18263,304.66436 L 274.83558,316.8232 L 264.74145,316.8232 C 252.81202,316.8232 250.5179,313.61143 243.17672,285.39376 C 235.83554,258.55255 236.75318,259.69961 230.10024,267.49962 C 216.79434,283.55846 209.45316,307.41731 216.1061,314.07026 C 218.17081,316.13496 216.33552,316.8232 207.84727,316.8232 L 196.8355,316.8232 L 198.21197,309.48202 C 199.81785,300.99377 211.74728,279.88787 224.82376,261.76432 C 233.312,249.8349 233.77083,248.45842 231.70612,240.65842 C 229.18259,231.48194 220.00611,222.76428 213.12375,222.76428 C 207.15904,222.76428 207.61786,219.55251 214.0414,215.19368 C 220.00611,210.83486 224.59435,210.37603 232.62377,213.5878 z "
       id="path2312"
       style="fill:#eb0000;stroke:none;fill-opacity:1" />
    <path
       d="M 156.45898,461.12335 C 152.78839,477.18219 152.78839,477.4116 159.44134,477.4116 C 165.86488,477.4116 166.09429,476.03513 162.19428,460.43511 L 159.21193,449.19392 L 156.45898,461.12335 z "
       id="path2314"
       style="fill:#eb0000;stroke:none;fill-opacity:1" />
    <path
       d="M 227.11788,471.21748 C 227.11788,485.44102 231.93553,494.15868 239.27672,493.01162 C 245.92966,492.09397 250.05908,483.1469 250.05908,469.841 L 250.05908,459.05864 L 238.58848,459.05864 L 227.11788,459.05864 L 227.11788,471.21748 z "
       id="path2316"
       style="fill:#eb0000;stroke:none;fill-opacity:1" />
  </g>
  <g
     id="g5583">
    <g
       id="g5554">
      <path
         sodipodi:type="arc"
         style="fill:#008caa;fill-opacity:1;fill-rule:nonzero;stroke:#008caa;stroke-width:1.18599999;stroke-miterlimit:4;stroke-dasharray:none;stroke-dashoffset:0;stroke-opacity:1"
         id="path3568"
         sodipodi:cx="86.923279"
         sodipodi:cy="543.48151"
         sodipodi:rx="32.912697"
         sodipodi:ry="32.068783"
         d="M 119.83598 543.48151 A 32.912697 32.068783 0 1 1  54.010582,543.48151 A 32.912697 32.068783 0 1 1  119.83598 543.48151 z"
         transform="matrix(0.8992511,0,0,-0.9380081,8.7574228,1052.2167)" />
      <path
         style="fill:#000000;stroke:none"
         id="path2318"
         d="M 82.58832,533.61754 C 82.58832,535.45284 84.194204,537.05872 86.0295,537.05872 C 87.864796,537.05872 89.47068,535.45284 89.47068,533.61754 C 89.47068,531.78224 87.864796,530.17636 86.0295,530.17636 C 84.194204,530.17636 82.58832,531.78224 82.58832,533.61754 z " />
      <path
         style="fill:#000000;stroke:none"
         id="path2320"
         d="M 82.58832,551.9705 C 82.58832,553.8058 84.194204,555.41168 86.0295,555.41168 C 87.864796,555.41168 89.47068,553.8058 89.47068,551.9705 C 89.47068,550.1352 87.864796,548.52932 86.0295,548.52932 C 84.194204,548.52932 82.58832,550.1352 82.58832,551.9705 z " />
    </g>
    <g
       id="g5563">
      <path
         transform="matrix(0.8992511,0,0,-0.9380081,83.865889,1052.2167)"
         d="M 119.83598 543.48151 A 32.912697 32.068783 0 1 1  54.010582,543.48151 A 32.912697 32.068783 0 1 1  119.83598 543.48151 z"
         sodipodi:ry="32.068783"
         sodipodi:rx="32.912697"
         sodipodi:cy="543.48151"
         sodipodi:cx="86.923279"
         id="path3572"
         style="fill:#008caa;fill-opacity:1;fill-rule:nonzero;stroke:#008caa;stroke-width:1.18599999;stroke-miterlimit:4;stroke-dasharray:none;stroke-dashoffset:0;stroke-opacity:1"
         sodipodi:type="arc" />
      <path
         style="fill:#000000;stroke:none"
         id="path2322"
         d="M 152.10016,535.45284 C 141.77662,541.87637 140.62956,543.25284 144.07074,545.31755 C 146.13544,546.69402 151.87074,549.90579 156.6884,552.88815 C 161.27664,555.64109 165.17664,557.24698 165.17664,556.09992 C 165.17664,554.95286 161.04722,551.74109 156.00016,548.75873 C 150.9531,546.00579 146.82368,543.25284 146.82368,542.79402 C 146.82368,542.3352 150.9531,539.58225 156.00016,536.82931 C 161.04722,533.84695 165.17664,530.8646 165.17664,529.71754 C 165.17664,527.194 165.63546,526.96459 152.10016,535.45284 z " />
      <path
         style="fill:#000000;stroke:none"
         id="path2324"
         d="M 169.76488,533.61754 C 169.76488,535.45284 170.91194,537.05872 172.059,537.05872 C 173.43547,537.05872 174.35312,535.45284 174.35312,533.61754 C 174.35312,531.78224 173.43547,530.17636 172.059,530.17636 C 170.91194,530.17636 169.76488,531.78224 169.76488,533.61754 z " />
      <path
         style="fill:#000000;stroke:none"
         id="path2326"
         d="M 169.76488,553.11756 C 169.76488,554.26462 170.91194,555.41168 172.059,555.41168 C 173.43547,555.41168 174.35312,554.26462 174.35312,553.11756 C 174.35312,551.74109 173.43547,550.82344 172.059,550.82344 C 170.91194,550.82344 169.76488,551.74109 169.76488,553.11756 z " />
    </g>
    <g
       id="g5569">
      <path
         sodipodi:type="arc"
         style="fill:#008caa;fill-opacity:1;fill-rule:nonzero;stroke:#008caa;stroke-width:1.18599999;stroke-miterlimit:4;stroke-dasharray:none;stroke-dashoffset:0;stroke-opacity:1"
         id="path3574"
         sodipodi:cx="86.923279"
         sodipodi:cy="543.48151"
         sodipodi:rx="32.912697"
         sodipodi:ry="32.068783"
         d="M 119.83598 543.48151 A 32.912697 32.068783 0 1 1  54.010582,543.48151 A 32.912697 32.068783 0 1 1  119.83598 543.48151 z"
         transform="matrix(0.8992511,0,0,-0.9380081,158.5524,1052.2167)" />
      <path
         style="fill:#000000;stroke:none"
         id="path2328"
         d="M 234.00024,529.48812 C 234.00024,530.40577 238.35907,533.84695 243.63554,536.82931 L 253.27085,542.3352 L 243.63554,547.84108 C 238.35907,551.05285 234.00024,554.49403 234.00024,555.64109 C 234.00024,556.55874 239.50613,554.26462 246.38849,550.1352 C 253.27085,546.00579 258.31791,542.10578 257.40026,541.41755 C 253.04144,537.51754 234.00024,527.65283 234.00024,529.48812 z " />
      <path
         style="fill:#000000;stroke:none"
         id="path2330"
         d="M 222.52964,533.61754 C 222.52964,535.45284 224.13552,537.05872 225.97082,537.05872 C 227.80612,537.05872 229.412,535.45284 229.412,533.61754 C 229.412,531.78224 227.80612,530.17636 225.97082,530.17636 C 224.13552,530.17636 222.52964,531.78224 222.52964,533.61754 z " />
      <path
         style="fill:#000000;stroke:none"
         id="path2332"
         d="M 222.52964,553.11756 C 222.52964,554.26462 224.13552,555.41168 225.97082,555.41168 C 227.80612,555.41168 229.412,554.26462 229.412,553.11756 C 229.412,551.74109 227.80612,550.82344 225.97082,550.82344 C 224.13552,550.82344 222.52964,551.74109 222.52964,553.11756 z " />
    </g>
    <g
       id="g5575">
      <path
         transform="matrix(0.8992511,0,0,-0.9380081,231.12912,1052.2167)"
         d="M 119.83598 543.48151 A 32.912697 32.068783 0 1 1  54.010582,543.48151 A 32.912697 32.068783 0 1 1  119.83598 543.48151 z"
         sodipodi:ry="32.068783"
         sodipodi:rx="32.912697"
         sodipodi:cy="543.48151"
         sodipodi:cx="86.923279"
         id="path3576"
         style="fill:#008caa;fill-opacity:1;fill-rule:nonzero;stroke:#008caa;stroke-width:1.18599999;stroke-miterlimit:4;stroke-dasharray:none;stroke-dashoffset:0;stroke-opacity:1"
         sodipodi:type="arc" />
      <path
         style="fill:#000000;stroke:none"
         id="path2334"
         d="M 305.11796,542.79402 C 305.11796,544.62932 306.26502,546.2352 307.64149,546.2352 C 309.01796,546.2352 309.47679,547.84108 308.78855,549.90579 C 308.10032,551.74109 308.32973,552.65874 309.7062,551.9705 C 313.37679,549.67638 312.45914,539.35284 308.55914,539.35284 C 306.72384,539.35284 305.11796,540.95872 305.11796,542.79402 z " />
    </g>
    <g
       id="g5579">
      <path
         sodipodi:type="arc"
         style="fill:#008caa;fill-opacity:1;fill-rule:nonzero;stroke:#008caa;stroke-width:1.18599999;stroke-miterlimit:4;stroke-dasharray:none;stroke-dashoffset:0;stroke-opacity:1"
         id="path3578"
         sodipodi:cx="86.923279"
         sodipodi:cy="543.48151"
         sodipodi:rx="32.912697"
         sodipodi:ry="32.068783"
         d="M 119.83598 543.48151 A 32.912697 32.068783 0 1 1  54.010582,543.48151 A 32.912697 32.068783 0 1 1  119.83598 543.48151 z"
         transform="matrix(0.8992511,0,0,-0.9380081,305.39367,1052.2167)" />
      <path
         style="fill:#000000;stroke:none"
         id="path2336"
         d="M 373.25332,538.6646 C 370.27097,541.41755 371.64744,544.62932 374.6298,542.10578 C 376.92392,540.04108 378.98862,540.4999 382.88863,543.02343 C 388.85334,547.38226 394.58864,545.77638 394.58864,540.04108 C 394.58864,536.5999 394.12982,536.5999 392.52393,539.12343 C 390.68864,541.87637 389.31216,542.10578 384.2651,539.81166 C 377.38274,536.5999 375.31803,536.37048 373.25332,538.6646 z " />
    </g>
  </g>
  <g
     id="g5605">
    <path
       d="M 50.700052,596.24702 C 47.947108,601.29408 49.32358,603.5882 55.517704,603.5882 C 60.105944,603.5882 61.023592,607.02938 57.353,609.3235 C 55.976528,610.24115 53.223584,609.55291 51.158876,607.71762 C 47.947108,605.19408 47.488284,605.19408 48.635344,608.17644 C 50.241228,613.68233 58.958884,613.68233 61.94124,608.40585 C 64.005948,604.27644 63.547124,603.12938 58.270648,601.29408 C 53.682408,599.45878 52.76476,598.08231 54.600056,596.24702 C 56.435352,594.41172 58.270648,594.64113 61.023592,596.93525 C 64.464772,599.6882 64.923596,599.6882 63.776536,596.70584 C 62.170652,591.42936 53.452996,591.19995 50.700052,596.24702 z "
       id="path2338"
       style="fill:#000000;stroke:none" />
    <path
       d="M 123.19424,593.72348 C 120.90012,597.8529 119.06483,613.91174 121.12954,611.61762 C 123.42366,609.09409 127.09425,592.1176 125.25895,592.1176 C 124.57072,592.1176 123.65307,592.80584 123.19424,593.72348 z "
       id="path2340"
       style="fill:#000000;stroke:none" />
    <path
       d="M 139.02367,597.16466 C 138.33544,600.14702 137.87661,604.96467 137.87661,608.17644 C 138.10602,612.07644 138.56485,612.53527 139.25308,609.78232 C 139.71191,607.71762 142.23544,605.88232 144.52956,605.88232 C 149.80604,605.88232 154.62369,599.91761 152.78839,595.55878 C 150.72368,590.05289 140.62956,591.19995 139.02367,597.16466 z M 149.1178,598.99996 C 149.1178,601.52349 147.51192,603.5882 145.67662,603.5882 C 143.84132,603.5882 142.23544,601.52349 142.23544,598.99996 C 142.23544,596.47643 143.84132,594.41172 145.67662,594.41172 C 147.51192,594.41172 149.1178,596.47643 149.1178,598.99996 z "
       id="path2342"
       style="fill:#000000;stroke:none" />
    <path
       d="M 292.95912,596.0176 C 288.37088,612.53527 288.6003,612.76468 296.4003,612.53527 C 302.1356,612.30586 302.59443,611.84703 298.69442,611.1588 C 293.87677,610.24115 293.41795,609.3235 294.79442,601.06467 C 296.4003,592.1176 295.02383,588.44701 292.95912,596.0176 z "
       id="path2344"
       style="fill:#000000;stroke:none" />
    <path
       d="M 66.758892,598.99996 C 66.52948,600.83526 65.841244,604.96467 65.153008,608.17644 C 64.005948,612.53527 64.23536,613.2235 66.300068,611.38821 C 67.905952,610.01174 68.8236,605.88232 68.135364,602.21173 C 67.67654,598.54114 66.988304,597.16466 66.758892,598.99996 z "
       id="path2346"
       style="fill:#000000;stroke:none" />
    <path
       d="M 76.394196,598.54114 C 72.494192,601.06467 71.576544,612.76468 75.476548,612.76468 C 76.394196,612.76468 76.85302,610.24115 76.394196,607.25879 C 75.247136,602.21173 79.14714,596.93525 81.900084,599.6882 C 84.194204,602.21173 79.835376,614.82939 76.164784,615.74704 C 72.723604,616.66468 72.723604,616.8941 75.935372,617.12351 C 80.753024,617.35292 83.964792,613.45292 85.800088,604.73526 C 86.947148,598.99996 86.488324,597.62349 83.047144,597.39408 C 80.753024,597.16466 77.770668,597.8529 76.394196,598.54114 z "
       id="path2348"
       style="fill:#000000;stroke:none" />
    <path
       d="M 90.61774,600.83526 C 89.929504,602.44114 89.47068,606.11173 89.47068,608.86468 C 89.700092,612.76468 90.388328,612.30586 93.370684,605.88232 L 97.041276,597.8529 L 98.417748,605.88232 L 100.02363,613.91174 L 101.62952,607.4882 C 102.54716,604.04702 102.77658,600.14702 102.08834,598.99996 C 100.25304,596.0176 91.994212,597.16466 90.61774,600.83526 z "
       id="path2350"
       style="fill:#000000;stroke:none" />
    <path
       d="M 108.74129,599.45878 C 107.59423,601.29408 108.28246,601.52349 110.806,600.60584 C 113.10012,599.91761 114.706,599.91761 114.706,601.06467 C 114.706,602.21173 112.64129,603.5882 109.88835,604.27644 C 103.92364,605.88232 105.30011,611.38821 111.72364,612.30586 C 115.39424,612.76468 116.77071,611.38821 117.68836,606.57056 C 118.37659,603.12938 118.37659,599.45878 117.68836,598.54114 C 116.08247,595.78819 110.57658,596.47643 108.74129,599.45878 z M 114.706,606.79997 C 114.706,607.4882 113.78835,608.63526 112.41188,609.3235 C 111.26482,610.01174 110.11776,609.55291 110.11776,608.40585 C 110.11776,607.02938 111.26482,605.88232 112.41188,605.88232 C 113.78835,605.88232 114.706,606.34114 114.706,606.79997 z "
       id="path2352"
       style="fill:#000000;stroke:none" />
    <path
       d="M 155.08251,604.27644 C 153.24722,612.99409 155.31192,615.51762 157.37663,607.25879 C 158.06487,604.04702 159.67075,601.29408 160.81781,601.29408 C 161.96487,601.29408 162.88252,600.37643 162.88252,599.45878 C 162.88252,594.18231 156.22957,598.31172 155.08251,604.27644 z "
       id="path2354"
       style="fill:#000000;stroke:none" />
    <path
       d="M 167.47076,601.52349 C 164.25899,607.25879 166.09429,612.76468 170.68253,612.76468 C 175.04136,612.76468 179.85901,604.50585 178.02371,599.91761 C 176.18842,595.09996 170.2237,596.0176 167.47076,601.52349 z M 174.35312,604.73526 C 174.35312,607.94703 173.43547,610.47056 172.059,610.47056 C 169.53547,610.47056 168.84723,602.89996 171.37076,600.60584 C 173.8943,598.08231 174.35312,598.77055 174.35312,604.73526 z "
       id="path2356"
       style="fill:#000000;stroke:none" />
    <path
       d="M 183.5296,601.52349 C 181.92372,604.04702 181.46489,607.71762 182.15313,609.55291 C 183.5296,613.2235 189.49431,613.91174 191.55902,610.47056 C 192.47667,609.09409 191.32961,608.86468 189.2649,609.78232 C 186.28254,610.69997 185.59431,610.01174 186.28254,605.65291 C 186.74137,601.7529 188.11784,600.37643 191.32961,600.83526 C 193.85314,601.29408 194.77079,600.60584 193.85314,599.22937 C 191.55902,595.09996 186.28254,596.24702 183.5296,601.52349 z "
       id="path2358"
       style="fill:#000000;stroke:none" />
    <path
       d="M 200.50609,598.54114 C 192.47667,604.04702 197.52373,615.74704 205.78256,610.47056 C 209.45316,608.17644 209.22374,608.17644 204.86492,609.3235 C 201.65315,610.24115 199.58844,609.78232 199.58844,608.40585 C 199.58844,607.02938 201.42374,605.88232 203.71786,605.88232 C 209.68257,605.88232 211.51786,603.35879 208.53551,599.6882 C 205.55315,596.24702 204.17668,596.0176 200.50609,598.54114 z M 206.4708,601.29408 C 206.4708,602.44114 204.86492,603.5882 202.80021,603.5882 C 200.96491,603.5882 200.04726,602.44114 200.7355,601.29408 C 201.42374,599.91761 203.02962,598.99996 204.40609,598.99996 C 205.55315,598.99996 206.4708,599.91761 206.4708,601.29408 z "
       id="path2360"
       style="fill:#000000;stroke:none" />
    <path
       d="M 215.64728,598.99996 C 212.66492,601.06467 212.66492,601.7529 216.33552,604.50585 C 221.61199,608.63526 221.38258,611.1588 215.41787,609.3235 C 211.97669,608.17644 211.05904,608.40585 211.97669,610.24115 C 214.27081,613.68233 219.08846,613.45292 222.52964,609.3235 C 224.82376,606.57056 224.59435,605.65291 221.61199,604.50585 C 219.54728,603.81761 217.9414,602.21173 217.9414,601.06467 C 217.9414,600.14702 219.54728,599.91761 221.8414,600.60584 C 224.36494,601.52349 225.05317,601.29408 223.90611,599.45878 C 221.8414,596.0176 220.23552,596.0176 215.64728,598.99996 z "
       id="path2362"
       style="fill:#000000;stroke:none" />
    <path
       d="M 229.412,600.14702 C 227.11788,602.89996 227.34729,603.81761 230.32965,604.96467 C 232.39436,605.65291 234.00024,607.4882 234.00024,608.63526 C 234.00024,610.01174 232.16494,610.24115 230.10024,609.3235 C 227.11788,608.40585 226.65906,608.63526 228.49435,610.47056 C 231.2473,613.2235 238.58848,611.38821 238.58848,607.94703 C 238.58848,606.79997 236.9826,605.19408 235.1473,604.50585 C 233.312,603.5882 231.70612,601.98232 231.70612,600.83526 C 231.70612,599.45878 233.312,598.99996 235.1473,599.91761 C 236.9826,600.60584 238.58848,600.14702 238.58848,598.99996 C 238.58848,595.55878 232.62377,596.24702 229.412,600.14702 z "
       id="path2364"
       style="fill:#000000;stroke:none" />
    <path
       d="M 243.40613,598.99996 C 243.17672,600.83526 242.48848,604.96467 241.80025,608.17644 C 240.65319,612.53527 240.8826,613.2235 242.94731,611.38821 C 244.55319,610.01174 245.47084,605.88232 244.7826,602.21173 C 244.32378,598.54114 243.63554,597.16466 243.40613,598.99996 z "
       id="path2366"
       style="fill:#000000;stroke:none" />
    <path
       d="M 251.20614,600.83526 C 250.5179,602.44114 250.05908,606.11173 250.05908,608.86468 C 250.28849,612.76468 250.97673,612.30586 253.95908,605.88232 L 257.62968,597.8529 L 259.00615,605.88232 L 260.61203,613.91174 L 262.21792,607.4882 C 263.13556,604.04702 263.36498,600.14702 262.67674,598.99996 C 260.84144,596.0176 252.58261,597.16466 251.20614,600.83526 z "
       id="path2368"
       style="fill:#000000;stroke:none" />
    <path
       d="M 268.18263,601.52349 C 265.6591,606.34114 266.80616,612.76468 270.24734,612.76468 C 271.16498,612.76468 272.08263,610.47056 271.85322,607.4882 C 271.85322,604.73526 273.00028,602.44114 274.14734,602.44114 C 275.52381,602.44114 276.21205,605.4235 275.98264,609.3235 C 275.52381,615.97645 275.52381,615.97645 277.58852,610.47056 C 278.50617,607.25879 279.42382,603.12938 279.65323,601.29408 C 279.88264,596.0176 271.16498,596.24702 268.18263,601.52349 z "
       id="path2370"
       style="fill:#000000;stroke:none" />
    <path
       d="M 308.32973,599.45878 C 307.18267,601.29408 307.8709,601.52349 310.39444,600.60584 C 312.68856,599.91761 314.29444,599.91761 314.29444,601.06467 C 314.29444,602.21173 312.22973,603.5882 309.47679,604.27644 C 303.51208,605.88232 304.88855,611.38821 311.31208,612.30586 C 314.98268,612.76468 316.35915,611.38821 317.2768,606.57056 C 317.96503,603.12938 317.96503,599.45878 317.2768,598.54114 C 315.67091,595.78819 310.16502,596.47643 308.32973,599.45878 z M 314.29444,606.79997 C 314.29444,607.4882 313.37679,608.63526 312.00032,609.3235 C 310.85326,610.01174 309.7062,609.55291 309.7062,608.40585 C 309.7062,607.02938 310.85326,605.88232 312.00032,605.88232 C 313.37679,605.88232 314.29444,606.34114 314.29444,606.79997 z "
       id="path2372"
       style="fill:#000000;stroke:none" />
    <path
       d="M 324.84739,599.22937 C 322.32386,607.25879 321.86504,612.76468 323.47092,612.76468 C 325.53563,612.76468 328.7474,598.77055 326.9121,597.16466 C 326.45328,596.47643 325.53563,597.39408 324.84739,599.22937 z "
       id="path2374"
       style="fill:#000000;stroke:none" />
    <path
       d="M 331.50034,604.73526 C 331.50034,609.09409 332.18858,612.76468 333.33564,612.76468 C 334.25328,612.76468 334.94152,610.24115 334.94152,607.02938 C 334.94152,603.81761 334.94152,600.60584 335.17093,599.6882 C 335.17093,598.77055 334.4827,597.62349 333.33564,597.39408 C 332.41799,596.93525 331.50034,600.37643 331.50034,604.73526 z "
       id="path2376"
       style="fill:#000000;stroke:none" />
    <path
       d="M 339.30035,601.52349 C 336.77682,606.34114 337.92388,612.76468 341.36506,612.76468 C 342.2827,612.76468 343.20035,610.47056 342.97094,607.4882 C 342.97094,604.73526 344.118,602.44114 345.26506,602.44114 C 346.64153,602.44114 347.32977,605.4235 347.10036,609.3235 C 346.64153,615.97645 346.64153,615.97645 348.70624,610.47056 C 349.62389,607.25879 350.54154,603.12938 350.77095,601.29408 C 351.00036,596.0176 342.2827,596.24702 339.30035,601.52349 z "
       id="path2378"
       style="fill:#000000;stroke:none" />
    <path
       d="M 355.5886,602.44114 C 355.5886,605.65291 355.5886,608.86468 355.5886,609.78232 C 355.5886,610.92938 357.88272,611.61762 360.63566,611.61762 C 364.53567,611.61762 366.14155,609.78232 367.28861,604.04702 C 367.97685,600.14702 367.97685,596.70584 367.0592,596.70584 C 366.14155,596.70584 364.76508,599.6882 364.07684,603.5882 C 362.24155,612.76468 356.96507,612.76468 358.34154,603.5882 C 359.02978,599.6882 358.57096,596.70584 357.4239,596.70584 C 356.50625,596.70584 355.5886,599.22937 355.5886,602.44114 z "
       id="path2380"
       style="fill:#000000;stroke:none" />
    <path
       d="M 375.08862,598.77055 C 374.40038,600.37643 375.08862,600.60584 377.15333,599.91761 C 382.88863,597.62349 381.51216,602.21173 375.77686,604.73526 C 370.27097,607.02938 369.35332,610.92938 373.71215,612.30586 C 375.08862,612.76468 375.54744,611.61762 374.85921,609.55291 C 373.94156,607.25879 374.6298,605.88232 377.15333,605.88232 C 379.44745,605.88232 380.13568,607.25879 379.44745,609.3235 C 378.5298,611.1588 379.21804,612.76468 380.59451,612.76468 C 381.97098,612.76468 383.11804,610.24115 383.11804,607.02938 C 383.11804,603.81761 383.11804,600.60584 383.34745,599.45878 C 383.34745,596.70584 376.6945,596.24702 375.08862,598.77055 z "
       id="path2382"
       style="fill:#000000;stroke:none" />
    <path
       d="M 387.47687,601.52349 C 384.95334,606.34114 386.1004,612.76468 389.54158,612.76468 C 390.45922,612.76468 391.37687,610.47056 391.14746,607.4882 C 391.14746,604.73526 392.29452,602.44114 393.44158,602.44114 C 394.81805,602.44114 395.50629,605.4235 395.27688,609.3235 C 394.81805,615.97645 394.81805,615.97645 396.88276,610.47056 C 397.80041,607.25879 398.71806,603.12938 398.94747,601.29408 C 399.17688,596.0176 390.45922,596.24702 387.47687,601.52349 z "
       id="path2384"
       style="fill:#000000;stroke:none" />
    <path
       d="M 403.99453,601.7529 C 401.24159,608.63526 406.74748,615.28821 411.1063,610.69997 C 413.62984,608.40585 413.40042,608.17644 410.18866,609.3235 C 407.66512,610.24115 406.05924,609.78232 406.05924,608.40585 C 406.05924,607.02938 408.12395,605.88232 410.87689,605.88232 C 414.08866,605.88232 415.23572,604.73526 414.7769,601.98232 C 413.62984,595.78819 406.28865,595.55878 403.99453,601.7529 z M 410.64748,601.29408 C 410.64748,602.44114 409.50042,603.5882 408.12395,603.5882 C 406.97689,603.5882 406.51806,602.44114 407.2063,601.29408 C 407.89454,599.91761 409.0416,598.99996 409.72983,598.99996 C 410.18866,598.99996 410.64748,599.91761 410.64748,601.29408 z "
       id="path2386"
       style="fill:#000000;stroke:none" />
    <path
       d="M 267.95322,616.66468 C 269.5591,617.35292 271.62381,617.12351 272.31204,616.43527 C 273.22969,615.74704 271.85322,615.0588 269.32969,615.28821 C 266.80616,615.28821 266.11792,615.97645 267.95322,616.66468 z "
       id="path2388"
       style="fill:#000000;stroke:none" />
    <path
       d="M 339.07094,616.66468 C 340.67682,617.35292 342.74153,617.12351 343.42976,616.43527 C 344.34741,615.74704 342.97094,615.0588 340.44741,615.28821 C 337.92388,615.28821 337.23564,615.97645 339.07094,616.66468 z "
       id="path2390"
       style="fill:#000000;stroke:none" />
    <path
       d="M 387.24746,616.66468 C 388.85334,617.35292 390.91805,617.12351 391.60628,616.43527 C 392.52393,615.74704 391.14746,615.0588 388.62393,615.28821 C 386.1004,615.28821 385.41216,615.97645 387.24746,616.66468 z "
       id="path2392"
       style="fill:#000000;stroke:none" />
  </g>
</svg>
